STARTFONT 2.3
FONT -FontForge-Shadows Into Light-Book-R-Normal--32-320-72-72-P-132-ISO10646-1
SIZE 32 72 72  4
FONTBOUNDINGBOX 46 52 -6 -14
COMMENT "Generated by fontforge, http://fontforge.sourceforge.net"
COMMENT "Copyright (c) 2010, Kimberly Geswein (kimberlygeswein.com)"
STARTPROPERTIES 40
FOUNDRY "FontForge"
FAMILY_NAME "Shadows Into Light"
WEIGHT_NAME "Book"
SLANT "R"
SETWIDTH_NAME "Normal"
ADD_STYLE_NAME ""
PIXEL_SIZE 32
POINT_SIZE 320
RESOLUTION_X 72
RESOLUTION_Y 72
SPACING "P"
AVERAGE_WIDTH 132
CHARSET_REGISTRY "ISO10646"
CHARSET_ENCODING "1"
FONTNAME_REGISTRY ""
CHARSET_COLLECTIONS "ISO8859-2 ISO8859-9 ISO8859-4 ISO10646-1"
BITS_PER_PIXEL 4
FONT_NAME "ShadowsIntoLight"
FACE_NAME "Shadows Into Light"
COPYRIGHT "Copyright (c) 2010, Kimberly Geswein (kimberlygeswein.com)"
FONT_VERSION "001.000"
FONT_ASCENT 26
FONT_DESCENT 6
UNDERLINE_POSITION 0
UNDERLINE_THICKNESS 0
X_HEIGHT 19
CAP_HEIGHT 22
RAW_ASCENT 799
RAW_DESCENT 200
NORM_SPACE 14
RELATIVE_WEIGHT 40
RELATIVE_SETWIDTH 50
SUPERSCRIPT_X 0
SUPERSCRIPT_Y 15
SUPERSCRIPT_SIZE 20
SUBSCRIPT_X 0
SUBSCRIPT_Y 4
SUBSCRIPT_SIZE 20
AVG_LOWERCASE_WIDTH 121
AVG_UPPERCASE_WIDTH 154
ENDPROPERTIES
CHARS 352
STARTCHAR space
ENCODING 32
SWIDTH 450 0
DWIDTH 14 0
BBX 1 1 0 0
BITMAP
00
ENDCHAR
STARTCHAR exclam
ENCODING 33
SWIDTH 137 0
DWIDTH 4 0
BBX 4 28 0 0
BITMAP
0200
1F20
2F20
2F20
3F20
4F20
5F20
5F20
6F20
6F20
6F20
7F20
7F30
7F50
8F70
7F90
4F60
0200
0000
0000
0000
0000
0000
0000
0000
0000
006A
006A
ENDCHAR
STARTCHAR quotedbl
ENCODING 34
SWIDTH 212 0
DWIDTH 7 0
BBX 6 10 0 16
BITMAP
030000
2F6075
0F7099
0E8099
0CA099
0BB099
0AB099
08C099
06C069
03B000
ENDCHAR
STARTCHAR numbersign
ENCODING 35
SWIDTH 450 0
DWIDTH 14 0
BBX 14 18 1 3
BITMAP
00000006100000
0000000E500000
0027000E700000
005F400EA00000
003F700ED00000
001F900EFED300
000EB38FF60000
088FFD9CF10000
0CFFC008F10001
002E9008F118E5
000EA008FCEB30
000EC00AFE4000
000EE2BFF80000
000EFE74F70000
07CFF500D80000
4FEDD000AA0000
0104B0006A0000
0000A000210000
ENDCHAR
STARTCHAR dollar
ENCODING 36
SWIDTH 445 0
DWIDTH 14 0
BBX 14 29 0 -4
BITMAP
00000059000000
000000CA000000
000000FA000000
000000FA000000
000000FB462000
000003FFFF5000
00005EFD510000
0008FDFA000000
00AF70EA000000
0AF600EA000000
5FB000EA000000
BF4000EB000000
DF3000EE000000
8FEA99FFEB7100
0379AACF568D80
0000007F1001E4
0000005F2001F2
0000003F401C90
0000002F63CB00
0000002FFF8000
000002AFF60000
00006FEFD00000
0000461ED00000
0000000AE00000
00000007F20000
00000003F50000
00000000E80000
00000000AA0000
00000000330000
ENDCHAR
STARTCHAR percent
ENCODING 37
SWIDTH 450 0
DWIDTH 14 0
BBX 14 26 0 0
BITMAP
00000000001000
000000000BD000
000000001FA000
000000006F5000
04DFA100AF1000
1FC4A801FB0000
6F602B05F60000
7F205809F20000
7F11D20DD00000
5F5CA01F800000
0DFC105F400000
0130009F100000
000000CB000000
000000F7001520
000003F4008FE2
000006F100CEE8
000009C000D87B
00000B8000E599
00000E5000E9E5
00002F1000EFD1
00004D00008C30
00006A00000000
00008700000000
0000A400000000
0000C100000000
0000A000000000
ENDCHAR
STARTCHAR ampersand
ENCODING 38
SWIDTH 356 0
DWIDTH 11 0
BBX 11 15 0 3
BITMAP
000003900000
000007E00000
000007E00000
000007D00000
000007D00120
000007D08F70
04DFB8ECFA00
1E65DEFF9000
6B002FF90000
79009FF60000
7A08F8F50000
4FAE54F50000
099205F50000
000006F50000
000002500000
ENDCHAR
STARTCHAR quotesingle
ENCODING 39
SWIDTH 155 0
DWIDTH 5 0
BBX 3 10 1 10
BITMAP
C900
EF10
CF20
AF30
9F30
7F20
5F10
3F10
1D10
0100
ENDCHAR
STARTCHAR parenleft
ENCODING 40
SWIDTH 291 0
DWIDTH 9 0
BBX 9 27 0 0
BITMAP
0000000320
0000002E80
000000CE20
000008F500
00004F9000
0000CD0000
0006F40000
000EB00000
006F300000
00CC000000
03F6000000
08F1000000
0CC0000000
1F80000000
3F50000000
6F30000000
7F20000000
7F20000000
6F20000000
4F40000000
1F70000000
0BC0000000
05F3000000
00DC000000
004F800000
0008F91000
00006DE700
ENDCHAR
STARTCHAR parenright
ENCODING 41
SWIDTH 241 0
DWIDTH 8 0
BBX 7 24 0 0
BITMAP
2E300000
1CE30000
01CE2000
001EB000
0005F500
0000CB00
00005F20
00001F60
00000C90
000009B0
000008C0
000007D0
000006D0
000006C0
000007B0
00000AA0
00000E80
00005F50
0000AF20
0001FB00
0006F500
000CD000
001F3000
00350000
ENDCHAR
STARTCHAR asterisk
ENCODING 42
SWIDTH 481 0
DWIDTH 15 0
BBX 15 16 0 2
BITMAP
0000039000000000
000007E000300000
000007F002E80000
000007F00CF30000
051007F09E400000
2EE947F9E3024640
019FFFFFAAEFFE60
0004CFFFFDA63000
0478AFFFD4000000
6FFECFFDDFA20000
04108FCC07EE7000
0007FD6E0019F300
005FF34F10002000
02EF502F20000000
00C4000F40000000
0000000C40000000
ENDCHAR
STARTCHAR plus
ENCODING 43
SWIDTH 466 0
DWIDTH 15 0
BBX 15 15 0 3
BITMAP
0000039000000000
000007E000000000
000007E000000000
000007E000000000
000007E000000000
000007E000014540
000007E048DFFE60
000007FEFDA63000
0478BFFA20000000
6FEB8DF500000000
041007F500000000
000005F500000000
000002F500000000
000000E500000000
0000004100000000
ENDCHAR
STARTCHAR comma
ENCODING 44
SWIDTH 112 0
DWIDTH 4 0
BBX 4 8 0 -4
BITMAP
07A0
1FF3
0EF4
0BF2
0CE0
0CB0
0D70
0610
ENDCHAR
STARTCHAR hyphen
ENCODING 45
SWIDTH 399 0
DWIDTH 13 0
BBX 13 6 0 5
BITMAP
00000000014500
00000005BFFF10
000028EFFEA600
147CFFD9400000
7FFC7300000000
01000000000000
ENDCHAR
STARTCHAR period
ENCODING 46
SWIDTH 128 0
DWIDTH 4 0
BBX 4 2 0 0
BITMAP
1BE2
1ED1
ENDCHAR
STARTCHAR slash
ENCODING 47
SWIDTH 306 0
DWIDTH 10 0
BBX 9 26 0 -3
BITMAP
0000000350
0000000CB0
0000002F60
0000006F10
000000BC00
000001F700
000005F200
00000AD000
00000E8000
00004F3000
00009E0000
0000D90000
0003F40000
0007E00000
000CA00000
001F600000
006F100000
00BB000000
01E7000000
05F2000000
09C0000000
0E80000000
3F30000000
8D00000000
C900000000
5300000000
ENDCHAR
STARTCHAR zero
ENCODING 48
SWIDTH 308 0
DWIDTH 10 0
BBX 8 18 1 0
BITMAP
00002000
005EFB10
05F62DB0
0D7004F2
5D0000D6
970000A8
C600007A
D600006B
E700005C
E700005C
C800005C
AA00008A
7C0000B8
5E0000E6
1F3005F2
0A801DB0
03F8CF40
007FD500
ENDCHAR
STARTCHAR one
ENCODING 49
SWIDTH 112 0
DWIDTH 4 0
BBX 2 20 1 0
BITMAP
C3
E4
E5
E5
E6
E6
E6
F6
F7
F7
F7
F8
F8
E8
E9
D9
CA
BA
9A
79
ENDCHAR
STARTCHAR two
ENCODING 50
SWIDTH 512 0
DWIDTH 16 0
BBX 16 19 0 0
BITMAP
0000003500000000
00004DFFC0000000
0007FE8CF5000000
008FB102F9000000
07FA0000CB000000
4F900000CB000000
06000000DA000000
00000001F7000000
00000004F4000000
00000009E0000000
0000000DA0000000
0000004F50000000
000000BE00000000
000003F800000000
00000BF2000049C8
00004F9016AEFD71
0000CF8CFFC73000
0005FFD951000000
0004930000000000
ENDCHAR
STARTCHAR three
ENCODING 51
SWIDTH 461 0
DWIDTH 15 0
BBX 15 22 0 0
BITMAP
0000048CF9000000
0018EFEDFF100000
07EFA3007F100000
5FD300008C000000
3B100002E5000000
0000001CC0000000
000000BF20000000
000009F700000000
00008FD899730000
0006FFFD99BFB100
004FFE600003EB00
008E920000007F20
0000000000006F20
000000000000AE00
000000000003F800
00000000001DE100
0000000001CF5000
000000003DF70000
00000006EF600000
0000009FF5000000
000007FD30000000
000006B100000000
ENDCHAR
STARTCHAR four
ENCODING 52
SWIDTH 503 0
DWIDTH 16 0
BBX 16 25 0 0
BITMAP
0000000003C30000
000000000BF50000
000000005FF50000
00000000DFF50000
00000006FFF50000
0000001DFAF50000
0000007FA4F50000
000001EE14F50000
000009F504F50000
00003F9004F50000
0000CE1004F50000
0007F50004F50000
002EB00004FA8AC7
00CF3015AEFFECA3
2AFE8CFEBAF60000
9FFDA63004F50000
6510000004F50000
0000000004F50000
0000000004F50000
0000000004F50000
0000000004F50000
0000000004F50000
0000000004F50000
0000000004F50000
0000000004D20000
ENDCHAR
STARTCHAR five
ENCODING 53
SWIDTH 478 0
DWIDTH 15 0
BBX 15 22 0 0
BITMAP
003000000148BF90
0BF80148BFDA8940
4FFEBFEA52000000
5FFFC40000000000
1CFC000000000000
09F5000000000000
09F2000000000000
0AF1000000000000
0AF1004BFF700000
0BF008FDAEF20000
0BF19F7004F60000
0AF8E30001F70000
0AFD200002F60000
08D2000006F30000
012000000CD00000
000000005F700000
00000002EE100000
0000000CF6000000
000000AF90000000
000005FD10000000
00000CD200000000
00000B2000000000
ENDCHAR
STARTCHAR six
ENCODING 54
SWIDTH 375 0
DWIDTH 12 0
BBX 12 26 0 0
BITMAP
0005E2000000
0009F2000000
000CE0000000
000EA0000000
002F70000000
005F40000000
007F10000000
00AC00000000
00D900000000
01F600000000
03F300000000
06F100000000
08D000000000
0BA000004650
0E80002CFFF3
1F6001DF82F3
3F600AF501F1
3F604F7005C0
3F60BC000A70
2F62F3003F20
1F78A000BA00
0D9D5005F300
09EF301EA000
04FF51BE2000
00BFEEF40000
001AFD400000
ENDCHAR
STARTCHAR seven
ENCODING 55
SWIDTH 458 0
DWIDTH 15 0
BBX 14 24 0 0
BITMAP
00000000136894
000258BDFFFFF9
29DFFFFECA9EF3
49986410004FC0
0000000000BF60
0000000000FE10
0000000003FA00
0000000007F500
000000000AE000
000000000DA000
000000001F7000
000000003F3000
000000006F0000
000000008C0000
00000000AA0000
00000000C90000
00000000E90000
00000000F90000
00000001F90000
00000001FA0000
00000001FC0000
00000000EE0000
00000000BF3000
000000004E4000
ENDCHAR
STARTCHAR eight
ENCODING 56
SWIDTH 333 0
DWIDTH 11 0
BBX 10 23 0 0
BITMAP
0000003300
00006EFF80
000AEADFF2
009D17FFF6
05F406A897
0DC0000097
3F700000D5
6F400002F1
5F400007B0
2F70001E60
0BD1006E10
02EB12E800
003ECCF200
0003EFB000
00007FD000
0000CBD600
0003D01D20
00097005B0
001E2000E4
003E0000B7
005E0001E5
003FB78EB0
0008EFD810
ENDCHAR
STARTCHAR nine
ENCODING 57
SWIDTH 475 0
DWIDTH 15 0
BBX 14 22 0 0
BITMAP
00000004897200
000003CFFEEE30
00004EE720AFA0
0004EC2003FFE0
001EC1000CFDF2
00AE20009FB5F2
05F60005FE14F3
0CD0004FF303F3
2F6004EF6002F3
6F005FF70002F4
8E49FF800001F5
6FFFE5000000F6
079710000000E8
000000000000D9
000000000000CB
000000000000BC
000000000000BD
000000000000AE
000000000000AF
0000000000009F
0000000000009F
0000000000007B
ENDCHAR
STARTCHAR colon
ENCODING 58
SWIDTH 120 0
DWIDTH 4 0
BBX 3 11 0 3
BITMAP
1820
3F60
0510
0000
0000
0000
0000
0000
0650
0CB0
0420
ENDCHAR
STARTCHAR semicolon
ENCODING 59
SWIDTH 121 0
DWIDTH 4 0
BBX 4 14 0 -4
BITMAP
0430
0FD0
0220
0000
0000
0000
07A0
1FF3
0EF4
0BF2
0CE0
0CB0
0D70
0610
ENDCHAR
STARTCHAR less
ENCODING 60
SWIDTH 409 0
DWIDTH 13 0
BBX 12 17 1 4
BITMAP
000000000022
0000000001CB
000000002DF6
00000004EF90
0000006FF900
000009FF6000
0001BFD30000
002DF9100000
04EE50000000
4FD200000000
5FE300000000
07FF81000000
004DFD500000
00019FFB2000
000003CFFB50
00000006EFF1
000000001A70
ENDCHAR
STARTCHAR equal
ENCODING 61
SWIDTH 433 0
DWIDTH 14 0
BBX 14 10 0 2
BITMAP
00000000001210
0013468ACEFB10
08FFFFFEB73000
04AA8530000000
00000000000121
0000000159DFF3
000016BFFFD930
079CFE95200000
2EE94000000000
01000000000000
ENDCHAR
STARTCHAR greater
ENCODING 62
SWIDTH 450 0
DWIDTH 14 0
BBX 12 18 1 3
BITMAP
4E7000000000
4FFD40000000
03BFFB200000
0004CFF81000
000005DFE600
00000007EFC1
0000000019F7
0000000005F5
000000001DC0
00000001CE30
0000003DF400
000006FF5000
0001AFE40000
002DFD300000
03EFC1000000
2EF800000000
7E4000000000
110000000000
ENDCHAR
STARTCHAR question
ENCODING 63
SWIDTH 445 0
DWIDTH 14 0
BBX 14 30 0 0
BITMAP
00000000231000
000048CFFFFD50
028EFFB7557DF5
4EFFA3000001F9
6C9300000001F8
000000000004F4
00000000000BD0
00000000006F50
0000000004FB00
000000005FD100
00000006FE3000
0000007FE30000
000006FF400000
00003FF4000000
0000AF40000000
0000EE00000000
0000FF50010000
00008FFBBE3000
000006BCB71000
00000000000000
00000000000000
00000000000000
00000000000000
00000000000000
00000000000000
00000000000000
00000000000000
00000000000000
000004F5000000
000002D7000000
ENDCHAR
STARTCHAR at
ENCODING 64
SWIDTH 945 0
DWIDTH 30 0
BBX 30 29 0 0
BITMAP
00000000000000159BCA7100000000
0000000000002AFFFECDFF70000000
000000000018FFA5100018FA000000
0000000003DF92000000004F900000
000000004ED3000000000006F40000
00000005FB10000000000000CC0000
0000004FA0000000000000006F3000
000002EB000002AEE80000001F8000
00001DD100007FEACF0000000EA000
00009F200009F8124F1000000CC000
0003F700008F500CF50000000CC000
000CD00006F6006FF20000000CB000
004F60002E8002EFF30000000D9000
00BE0000CD000BD4F40000001F5000
02F90006F4006F40C70000006F1000
07F4000DB002E8009D000001D90000
0BF1004F502DB0005FA2004DC10000
0ED0008F23DD100007EFFFF9100000
1FC0009FBFC1000000034310000000
2FC0003CB600000000000000000000
2FD000000000000000000000000000
0FE000000000000000000000000BF7
0DF400000000000000000000008FE3
08FA000000000000000000003BFA20
01EF40000000000000000029FE5000
006FE4000000000000004AFE810000
0006FF9400000000037CFE81000000
00003CFFECA999ACEFEA5000000000
00000037ADEFEECA73000000000000
ENDCHAR
STARTCHAR A
ENCODING 65
SWIDTH 390 0
DWIDTH 13 0
BBX 16 25 0 -1
BITMAP
000BB00000000000
000EF50000000000
001FFC0000000000
002FFF3000000000
004FCE8000000000
006F58E000000000
007F42F400000000
009F20C900000000
00BF107E00000000
00CF002F50000000
00ED000DA0000000
00FC0009F1000000
02FA0006F7159DD2
03F90002FEEFC9D3
05F90006FF820000
06F804AFFF200000
08FEEFB68F600000
09FF81001FA00000
0BF400000BE00000
0CC0000006F20000
0DA0000002F60000
0F90000000DA0000
1F700000008E0000
03100000002D1000
0000000000020000
ENDCHAR
STARTCHAR B
ENCODING 66
SWIDTH 537 0
DWIDTH 17 0
BBX 17 24 0 0
BITMAP
000000000220000000
0000005AFFFD300000
18103CFEA7AF700000
3F88FC50004F500000
0DFF800000BD000000
0AF9000006F5000000
08F400003E90000000
06F40001DB00000000
04F5001CC147998300
01F601BE9EEB9BFF40
00EA1BFFD510006F60
00CECFF70000005F10
00AFFF50000000B800
007FF600000008D100
005FC00000006F4000
003F60000005F80000
001F6000005FB00000
000E800005FD100000
000BB0005FE2000000
0009D004FE30000000
0007F11EE400000000
0005F26D3000000000
0002F3000000000000
000091000000000000
ENDCHAR
STARTCHAR C
ENCODING 67
SWIDTH 487 0
DWIDTH 16 0
BBX 15 25 0 -1
BITMAP
0000000242000000
0000009FFF700000
000009FA5BF30000
00005F8000B60000
0000DD0000010000
0006F50000000000
000CD00000000000
002F700000000000
007F200000000000
00BD000000000000
00F9000000000000
04F5000000000000
07F1000000000000
0AE0000000000000
0CB0000000000320
0F90000000001FB0
1F70000000008F70
3F6000000003FD10
3F600000000CF300
1F80000000AF7000
0DC0000009F70000
08F40002CF600000
01EFB9BFD4000000
002BFFD710000000
0000020000000000
ENDCHAR
STARTCHAR D
ENCODING 68
SWIDTH 554 0
DWIDTH 18 0
BBX 17 24 0 0
BITMAP
000540000000000000
0009A0000000000000
002EFFFFDCA7400000
03DFFB888ACEFE7000
2EFFF10000004AFC10
281DF0000000005F90
000CF0000000000AE0
000BF00000000008F0
000AF00000000009C0
0009F1000000000D80
0008F1000000004F30
0007F200000000BC00
0005F300000005F500
0004F30000001EB000
0003F4000000CF3000
0002F4000009F70000
0001F500007FB00000
0000F50005FD100000
0000E6005FE2000000
0000D704FF40000000
0000C73EF500000000
000064DF6000000000
00000AF60000000000
00000D600000000000
ENDCHAR
STARTCHAR E
ENCODING 69
SWIDTH 474 0
DWIDTH 15 0
BBX 14 24 1 0
BITMAP
00000000002300
69000005AEE500
DF3017EFE71000
9F78EFE7100000
7FFFE710000000
5FE71000000000
4F700000000000
2F700000000000
0F800000001000
0E9000001AB000
0EA00006ED2000
0DB005DF910000
0CB3BFA2000000
0BFFC300000000
0BFA0000000000
0BF40000000000
0BF400000006E8
0BF4000002CFA1
0BF400006ED400
0BF4002BFA1000
0BF417EE500000
0BFCEF91000000
0BFFC300000000
05940000000000
ENDCHAR
STARTCHAR F
ENCODING 70
SWIDTH 428 0
DWIDTH 14 0
BBX 14 23 0 0
BITMAP
00000000000141
0340000003AFE3
1FB00004BFE710
1FB006CFD61000
1FDAEFD6000000
1FFFC500000000
1FE50000000000
1FE00000000000
0FF00000000000
0FF10000000000
0FF10000000390
0EF2000002AF80
0DF300018ED400
0DF3006DE70000
0CF44CFA100000
0BFDFC40000000
0AFF7000000000
09F60000000000
08F50000000000
06F50000000000
04F50000000000
01F50000000000
00B30000000000
ENDCHAR
STARTCHAR G
ENCODING 71
SWIDTH 591 0
DWIDTH 19 0
BBX 19 25 0 -4
BITMAP
00000000029CB2000000
000000007FFFA3000000
00000009FB6100000000
0000009F400000000000
000005F7000000000000
00002EB0000000000000
0000AE20000000000000
0004F700000000000000
000CD0000000147ACC30
004F5000004BFFFFF800
00BD0000019999CFB000
02F70000000000DF6000
07F10000000006FF3000
0CC0000000001EFF1000
1F8000000000BFFE0000
3F5000000009FEDD0000
5F400000009FD2CC0000
4FA000003CFC10DC0000
1EFC867BFF9000ED0000
02DFFFFFD40000ED0000
00048984000000EE0000
00000000000000EF0000
00000000000000CF2000
000000000000008F3000
00000000000000140000
ENDCHAR
STARTCHAR H
ENCODING 72
SWIDTH 424 0
DWIDTH 14 0
BBX 12 22 1 0
BITMAP
200000003100
F8000001FA00
F9000000DD00
FA0000009F00
EA0000006F10
EB0000004F30
DB0000004F40
DC0000004F50
CC0000007F70
CD000000CF80
BE000009FFA0
BF0003BF9CB0
AF35BFC30AD0
AFEFD50009E0
9FF8100008F0
9F70000006F2
8F10000005F3
7E00000004F5
7F00000003F6
6F20000002F7
6F30000000F8
5E20000000A5
ENDCHAR
STARTCHAR I
ENCODING 73
SWIDTH 153 0
DWIDTH 5 0
BBX 3 24 1 0
BITMAP
3C30
3F60
1F70
0F90
0EA0
0DB0
0DB0
0DC0
0CC0
0CD0
0CD0
0BD0
0BE0
0BE0
0AE0
0AE0
0AE0
0AF0
09F0
09F0
09F0
08F0
08F0
04B0
ENDCHAR
STARTCHAR J
ENCODING 74
SWIDTH 371 0
DWIDTH 12 0
BBX 11 25 0 -2
BITMAP
000000049000
00000007E000
00000006F100
00000005F400
00000004F600
00000003F800
00000001FB00
00000000ED00
00000000CF00
00000000AF20
000000008F40
000000006F60
000000004F70
000000003F90
000000001FA0
000000000EB0
000000000DB0
000000000CC0
610000000BC0
770000000BC0
4E1000000BB0
0C9000000CA0
03F700002F60
005EA425DC00
00029EFE9100
ENDCHAR
STARTCHAR K
ENCODING 75
SWIDTH 524 0
DWIDTH 17 0
BBX 17 22 0 0
BITMAP
073000000000000000
1FB000000001100000
0CD00000004E500000
09F0000003EB000000
06F200001DE2000000
05F30000AF60000000
03F50004FB00000000
02F7001DE200000000
00F8008F5000000000
00EA03F90000000000
00DC0CD10000000000
00CD6F400000000000
00AFEC000000000000
009FF5000000000000
008FF1000000000000
006FD3000000000000
005FFFFEEDDCCCCC70
003FC9999999999920
001F90000000000000
000DC0000000000000
000AD0000000000000
000480000000000000
ENDCHAR
STARTCHAR L
ENCODING 76
SWIDTH 537 0
DWIDTH 17 0
BBX 17 20 0 0
BITMAP
1EE100000000000000
1FF200000000000000
0FF300000000000000
0EF300000000000000
0DF400000000000000
0CF400000000000000
0CF500000000000000
0BF500000000000000
0BF600000000000000
0AF600000000000000
0AF700000000000000
09F700000000000000
09F800000000000120
09F800000000029FD0
08F900000004BFEA50
08F9000005CFD61000
08FA0006DFE6000000
07FB38EFE710000000
07FFFFE71000000000
05FDA6100000000000
ENDCHAR
STARTCHAR M
ENCODING 77
SWIDTH 682 0
DWIDTH 22 0
BBX 20 25 1 0
BITMAP
54000000000000015000
FFA1000000000009F200
DFFA00000000000EF300
AFFF50000000004FF400
8E2ED0000000009CF600
6F06F700000000E6E700
4F00DD00000004F1D800
3F106F60000008C0C900
2F300DD000000D70AA00
1F4006F600003F309C00
1F6000DD00008D008D00
0F70006F6000D9006E00
0E90000DD003F4005F00
0EA00006F708E0004F20
0EC00000DE1D90003F30
0ED000006FCF30001F50
0EF000000EFC00000F70
0EF1000007F300000E90
0DF30000002000000CB0
0DF40000000000000BD0
0DF60000000000000AF1
0CF700000000000008F4
0BF700000000000007F7
0AF800000000000006FB
07F600000000000004B5
ENDCHAR
STARTCHAR N
ENCODING 78
SWIDTH 541 0
DWIDTH 17 0
BBX 16 25 1 0
BITMAP
0000000000016000
000000000006F500
000000000003FA00
000000000000FC00
810000000000DE00
FE3000000000CF00
EFE200000000BF00
DFFC00000000AF00
BFFF800000009F10
9F8EF40000008F10
7F44FE2000008F20
6F506FB000007F20
4F600AF800007F20
2F7000CF40006F30
1F90002EE1006F30
0EB00004FB007F40
0CC000007F707F40
0AF000000AF48F40
09F2000001CDAF50
07F40000002EFF60
05F600000005FF90
04F8000000008FE0
02F8000000005FF1
02F9000000001640
00C5000000000000
ENDCHAR
STARTCHAR O
ENCODING 79
SWIDTH 382 0
DWIDTH 12 0
BBX 12 22 0 0
BITMAP
000001674000
00003DFFF900
0001EFC9DF80
000AF7001DF2
003F900006F6
009F300003F9
00ED000001FB
04F9000000EC
08F4000000EC
0CF1000000FC
0EC0000001FB
2F90000003F9
4F60000006F7
6F40000009F4
7F3000000DF1
8F2000003FB0
6F3000009F60
4F600002ED00
1FA0000BF500
0AF823BF9000
02EFFFFA0000
003CFB500000
ENDCHAR
STARTCHAR P
ENCODING 80
SWIDTH 508 0
DWIDTH 16 0
BBX 16 26 0 0
BITMAP
0002000268985000
003F75CFFFFFFD30
00CFFFB62026CFE1
06FFC300000009F7
1EFF5000000000F8
18BF3000000004F6
009F200000001DE1
00AF00000000BF60
00AF0000001BF900
00AF000004DF8000
00AF0002AFE40000
00AF229FFA100000
00AFCFFB30000000
009FFB4000000000
009F800000000000
009F600000000000
008F600000000000
007F600000000000
006F600000000000
006F600000000000
005F600000000000
003F600000000000
002F600000000000
000F600000000000
000E600000000000
000B500000000000
ENDCHAR
STARTCHAR Q
ENCODING 81
SWIDTH 512 0
DWIDTH 16 0
BBX 16 24 0 0
BITMAP
00006ED7CFEA1000
0004FFFC98AFB000
000CFE400004F500
004FF30000009C00
009F800000003F10
00EE100000000E40
02FA000000000C60
05F5000000000B80
08F2000000000AA0
0BD0000000000AA0
0DA0000000000AA0
0F80000002100AA0
1F7000004F700A90
1F7000001ED00B80
1F80000007F50C60
0F90000001EB1F40
0DB00000009FBF10
0AD00000002FFB00
07F20000000BF600
02F70000000CFB00
00BE1000005FEF40
002EB10005E84FC0
0005FEA9DF8009F4
00003AEFC4000181
ENDCHAR
STARTCHAR R
ENCODING 82
SWIDTH 503 0
DWIDTH 16 0
BBX 15 26 1 0
BITMAP
4300000000000000
BF50001688520000
BF503AFFFFFFB300
BF79FEA6435BFE20
BFFD61000000DF40
BFB100000002EC00
BF400000002DC100
BF30000005EB1000
BF100002BF700000
BF00018FB2000000
BE007EE600000000
BD6DFA1000000000
BFFE500000000000
BFC1000000000000
BFD6000000000000
BFFFD60000000000
BB5BFFD600000000
BB003BFFD5000000
BB00003BFFC50000
BB0000003AFFD600
BB0000000029FFC0
BB00000000002960
AB00000000000000
AB00000000000000
AB00000000000000
6600000000000000
ENDCHAR
STARTCHAR S
ENCODING 83
SWIDTH 541 0
DWIDTH 17 0
BBX 17 24 0 0
BITMAP
000000000023300000
000000028DFFF20000
0000008FC7CFD10000
00002CE50003000000
0003ED200000000000
003EC1000000000000
01DE20000000000000
09F400000000000000
2FB000000000000000
7F4000000000000000
9F1000000000000000
8F2000000000000000
3F9000000000000000
07FB40000000000000
003AFFCA8754200000
00001479BDFFFFB400
00000000000147DF30
000000000000006F70
00000000000006EE20
000000000005DFC200
0000000049EFC50000
000016BEFFA4000000
0002EFEA5100000000
000153000000000000
ENDCHAR
STARTCHAR T
ENCODING 84
SWIDTH 595 0
DWIDTH 19 0
BBX 23 23 0 0
BITMAP
0000000001A4000012457820
0000000016FE9BCEFFFFE700
013579CEFFFFEDCA97520000
6FFFFFC976FF000000000000
4986300000DF000000000000
0000000000BF000000000000
00000000009F100000000000
00000000007F200000000000
00000000006F300000000000
00000000004F500000000000
00000000003F700000000000
00000000002F900000000000
00000000000FB00000000000
00000000000ED00000000000
00000000000CF00000000000
00000000000BF20000000000
000000000009F40000000000
000000000008F60000000000
000000000006F70000000000
000000000004F90000000000
000000000002FA0000000000
000000000000EA0000000000
000000000000BB0000000000
ENDCHAR
STARTCHAR U
ENCODING 85
SWIDTH 450 0
DWIDTH 14 0
BBX 13 24 1 -4
BITMAP
00000000003C10
DD000000008F50
FE00000000BF60
FE00000000DF50
EE00000001FF50
EE00000003FF40
DE00000006FF30
DE00000008FF20
CE0000000BFF20
CE0000000EFF10
BE0000002FFF00
BE0000005FFF00
BE0000009FAF00
AE000000EB7F10
9E000004F65F20
7F10000BD04F40
5F60005F602F50
1EE304EB001F70
07FFEFB1000E80
00599500000DA0
00000000000BB0
00000000000AB0
000000000008B0
00000000000440
ENDCHAR
STARTCHAR V
ENCODING 86
SWIDTH 524 0
DWIDTH 17 0
BBX 16 24 0 0
BITMAP
0000000000000011
00000000000000AE
00000000000000EC
00000000000002F9
00000000000006F5
6B200000000009F2
5F90000000000DE0
0DF2000000002FB0
07F8000000005F70
01EE100000009F40
008F80000000DF10
001FE1000001FD00
0009F7000005F900
0002FE000008F600
0000AF60000CF300
00003FD0001FE000
00000BF5004FB000
000004FC008F8000
000000CF50BF5000
0000005FC0FF1000
0000000DF7FD0000
00000006FFFA0000
00000001CFF60000
0000000019E30000
ENDCHAR
STARTCHAR W
ENCODING 87
SWIDTH 878 0
DWIDTH 28 0
BBX 27 25 0 -1
BITMAP
0000000000000000000000000660
0000000000000000000000000CD0
0000000000000000000000001F90
0000000000000000000000005F50
07600000000003F9000000008F20
4FE00000000008FF10000000CD00
1EF4000000000AFF60000001F900
07F9000000001ECFB0000004F600
01ED000000005F3FF1000008F200
00AF300000009D0BF500000CD000
005F80000000E806F900001F9000
001FC0000004F301FE00004F6000
000BF2000008E000AF30008F2000
0008F700000D90004F9000BD0000
0004FB00003F50000DE001F90000
0001FF10008F100007F404F60000
0000CF6000DB000001EB07F20000
00008FB003F60000008F3BD00000
00004FF108F20000001ECEA00000
00000EF50DC000000008FF700000
00000AFA3F8000000001EF400000
000005FEAF50000000007E000000
000000EFFE100000000001000000
0000006FF7000000000000000000
0000000540000000000000000000
ENDCHAR
STARTCHAR X
ENCODING 88
SWIDTH 461 0
DWIDTH 15 0
BBX 14 23 0 0
BITMAP
00000000000024
000000000000AC
01C300000003F4
02FA0000000CB0
00CF2000005F30
005F900001DA00
000CF20008F200
0005F9002F9000
0000DF10AE1000
00006F84F80000
00000EEDE10000
000007FF700000
000003FF200000
000008FF800000
00001EEEF20000
0000AF45F90000
0004F800AF2000
001DD1002FA000
00AF400008F300
06FA000002FA00
1EE2000000AF30
06600000003FA0
00000000000AA0
ENDCHAR
STARTCHAR Y
ENCODING 89
SWIDTH 483 0
DWIDTH 15 0
BBX 15 25 0 0
BITMAP
0000000000000660
0000000000000BB0
0000000000000E70
0000000000004F30
2300000000009D00
8E2000000000E900
2FB000000004F500
08F800000009F100
01DF5000000EB000
003EE300005F7000
0006FD1000AF2000
00008FC101FC0000
00000AFB16F70000
000000BFDDF10000
0000001CFFA00000
00000001FF500000
00000000FE100000
00000003FA000000
00000007F5000000
0000000CE0000000
0000002FA0000000
0000007F50000000
000000CE10000000
000000EA00000000
000000D500000000
ENDCHAR
STARTCHAR Z
ENCODING 90
SWIDTH 670 0
DWIDTH 21 0
BBX 21 22 0 0
BITMAP
0ACCCCCCCCCCCBBBB70000
0799888899ABCDFFFB0000
000000000000007FE30000
00000000000003FF500000
0000000000001DF8000000
000000000000BFB0000000
000000000008FD10000000
00000000005FE300000000
0000000002EF5000000000
000000001CF80000000000
00000000AFB00000000000
00000006FD100000000000
0000003FE3000000000000
000001EF50000000000000
00000BF800000000000000
00009FB000000000000000
0005FD1000000000000000
003EF30000000000000000
01DF500000000000000000
0AFC666666666666789B70
4FFFFFFFFFFFFFFFFFFFA0
1DFECCBBAAA99988765410
ENDCHAR
STARTCHAR bracketleft
ENCODING 91
SWIDTH 470 0
DWIDTH 15 0
BBX 15 40 0 -4
BITMAP
0434556778897000
3FFFFFFFECA61000
3FD1110000000000
2FB0000000000000
1FA0000000000000
0EB0000000000000
0DB0000000000000
0CC0000000000000
0AD0000000000000
09D0000000000000
08E0000000000000
06F1000000000000
05F2000000000000
04F3000000000000
02F5000000000000
01F6000000000000
00F8000000000000
00D9000000000000
00CB000000000000
00BC000000000000
009E000000000000
008F000000000000
007F100000000000
005F200000000000
004F300000000000
003F400000000000
001F500000000000
000F600000000000
000E700000000000
000C700000000000
000C800000000000
000C900000000000
000C900000000000
000CA00000000000
000CB00000000000
000CC00000015A20
000CE33469DFFC20
000CFFFFFC841000
0008FEA620000000
0000200000000000
ENDCHAR
STARTCHAR backslash
ENCODING 92
SWIDTH 554 0
DWIDTH 18 0
BBX 18 33 0 0
BITMAP
040000000000000000
6F6000000000000000
3FD000000000000000
08F600000000000000
00DD00000000000000
003F60000000000000
000AD0000000000000
0003F5000000000000
0000BC000000000000
00004F500000000000
00000CC00000000000
000006F40000000000
000000DC0000000000
0000007F4000000000
0000001EB000000000
00000008F400000000
00000002FB00000000
00000000AF30000000
000000003FB0000000
000000000BF3000000
0000000004FA000000
0000000000CF300000
00000000006FA00000
00000000000DF20000
000000000007FA0000
000000000001EF2000
0000000000008F9000
0000000000002FF200
0000000000000AF900
00000000000003FF20
00000000000000BF80
000000000000004FE1
000000000000000CE2
ENDCHAR
STARTCHAR bracketright
ENCODING 93
SWIDTH 512 0
DWIDTH 16 0
BBX 16 42 0 -4
BITMAP
0002233567889820
8DFFFFFFFFFFFF60
ADCBA8642103FF40
000000000000FF20
000000000000FF10
000000000000EF00
000000000000EF00
000000000000EE00
000000000000EE00
000000000000EE00
000000000000DE00
000000000000DE00
000000000000CF00
000000000000CF00
000000000000BF10
000000000000AF10
0000000000009F20
0000000000009F20
0000000000008F30
0000000000007F40
0000000000006F40
0000000000005F50
0000000000005F60
0000000000004F70
0000000000003F70
0000000000002F80
0000000000001F90
0000000000000FA0
0000000000000FB0
0000000000000EC0
0000000000000ED0
0000000000000DE0
0000000000000DF0
0000000000000DF1
0000000000000CF3
0000000000000CF4
0000000000000BF5
0000000000000CF7
0000000000048FF8
000000037BEFFFE5
0000005FFFDB8410
0000000220000000
ENDCHAR
STARTCHAR asciicircum
ENCODING 94
SWIDTH 390 0
DWIDTH 13 0
BBX 12 9 0 21
BITMAP
00001B500000
00009FE30000
0002F9BE2000
000AE11CC100
003F6002EB00
00BC00004F90
04F4000007FB
0CA0000000AC
1B2000000000
ENDCHAR
STARTCHAR underscore
ENCODING 95
SWIDTH 612 0
DWIDTH 20 0
BBX 19 6 0 0
BITMAP
00000000000000025860
0000000000036ADFFFB0
000000047BEFFFFFC820
00037BFFFFFDA6310000
3AEFFFEB741000000000
4EDA6300000000000000
ENDCHAR
STARTCHAR grave
ENCODING 96
SWIDTH 155 0
DWIDTH 5 0
BBX 4 5 0 19
BITMAP
2600
6F50
2EE2
06FA
007B
ENDCHAR
STARTCHAR a
ENCODING 97
SWIDTH 366 0
DWIDTH 12 0
BBX 11 18 0 0
BITMAP
000000034000
000003DFFA00
00002EFFFE00
0000DFA1FD00
0008FC01FC00
002FF303FD00
009F9006FE00
01EF200CFF00
06F9004FFF20
0CF200CF9F40
2FB006FA2F60
7F501DF20F80
BE008F800DA0
EA03FE100BB0
EA2DF5000AD0
BFEF900008D0
6FFA000006D0
065000000270
ENDCHAR
STARTCHAR b
ENCODING 98
SWIDTH 442 0
DWIDTH 14 0
BBX 13 27 1 0
BITMAP
5B500000000000
7F900000000000
7F900000000000
7F800000000000
7F700000000000
7F700000000000
7F600000000000
7F500000000000
7F400000000000
8F300000000000
8F200004551000
8F2005EFFFD100
9F208FFCBFF800
9F18FC3003FC00
9F7FB00000AF00
AFFD1000008F10
AFE3000000AF00
BF80000000DE00
BE10000005FA00
BC0000001EF400
CB000001BFB000
CB00001CFD1000
CB0004DFD20000
CA019FFB100000
CB8EFE60000000
BFFFA200000000
9DA30000000000
ENDCHAR
STARTCHAR c
ENCODING 99
SWIDTH 390 0
DWIDTH 13 0
BBX 12 19 0 0
BITMAP
00018CB10000
000CFDF80000
007FA0EC0000
00EF20BE0000
03FB006F0000
07F6000B0000
0AF200000000
0CE000000000
0EB000000000
0F9000000000
1F7000000000
2F6000000094
2F60000003F6
1F60000008F4
0D9000000DF1
09D100005F90
04F90002ED10
00AFC8BFD200
0019EEC71000
ENDCHAR
STARTCHAR d
ENCODING 100
SWIDTH 316 0
DWIDTH 10 0
BBX 9 31 0 -3
BITMAP
0000001EB0
0000001FB0
0000000FB0
0000000EB0
0000000CB0
0000000BB0
0000000AB0
00000009B0
00000008B0
00000007B0
00000007B0
0000477AB0
001BFFFFC0
00BFE66FC0
05FE200DC0
0BF6000CC0
1FE0000BC0
4F80000CD0
7F40000ED0
9F00002FD0
9C00006FD0
AA0000BFD0
BA0001FDE0
BA0008F6E0
AC002E85E0
AF31CC05E0
6FEFC104E0
07B81004E0
00000004E0
00000004E0
0000000280
ENDCHAR
STARTCHAR e
ENCODING 101
SWIDTH 461 0
DWIDTH 15 0
BBX 15 17 -1 0
BITMAP
0000006CEC500000
000009FFDFF90000
00004FE401CF4000
0000DF5001DF6000
0005FB003DF90000
000BF418FD500000
003FFCFF81000000
00AFFFA200000000
05FFD30000000240
3FFF700000001DE0
058F50000000AF90
004F40000006FD10
003F4000003EE300
002F400002EE3000
000E80005ED30000
0008FA9CFA100000
00009EFB40000000
ENDCHAR
STARTCHAR f
ENCODING 102
SWIDTH 345 0
DWIDTH 11 0
BBX 11 29 0 0
BITMAP
000017610000
00008FFD1000
0000EFDF9000
0004FD09E000
0007F902F100
000AF6004000
000BF4000000
000DF3000000
000EF1000000
000EF0000000
000FE0000000
001FD0000000
001FC0000550
000FB018EF80
000FC9EFFD10
003FFFEB6100
06FFC2000000
4FCDC0000000
020AD0000000
000AE0000000
000AF1000000
0009F2000000
0008F4000000
0007F6000000
0006F7000000
0005F8000000
0004F8000000
0003F8000000
0001E5000000
ENDCHAR
STARTCHAR g
ENCODING 103
SWIDTH 437 0
DWIDTH 14 0
BBX 13 32 0 -14
BITMAP
00000002784000
0000009FFFF900
00000BFA4DFC00
00009F600DFE00
0005F7005FFF00
001EC000BBEF10
007F3003F6EF20
01EA000AF1DF40
06F4002FA0CF50
0BD0009F30BF60
1F8002FC00AF70
4F500AF4009F90
7F205FB0009FA0
7F53EF30008FB0
2FFFF700007FC0
08FF7000006FD0
00320000005FE0
00000000005FE0
00000000005FD0
00000000005FC0
00000000006FA0
00000000007F80
00000000009F40
0000000000CF10
0000000001FB00
0000000006F600
000000000DE100
000000008F7000
00000007FD0000
000004BFE30000
004DFFFD300000
00038961000000
ENDCHAR
STARTCHAR h
ENCODING 104
SWIDTH 466 0
DWIDTH 15 0
BBX 14 25 1 -1
BITMAP
74000000000000
EA000000000000
EA000000000000
EB000000000000
EB000000000000
EB000000000000
EC000000000000
EC000000000000
ED000002799500
ED00008FFFFF70
ED0008FFD54FC0
EE003FFD100ED0
EE00BFE2000EE0
EE02FF60000DE0
EF08FC00000DF0
EF0DF400000CF0
EF3FB000000CF0
EF9F4000000CF1
EFEC0000000BF1
EFF50000000BF1
EFD00000000AF2
EF600000000AF2
ED000000000AF2
730000000009F2
00000000000230
ENDCHAR
STARTCHAR i
ENCODING 105
SWIDTH 132 0
DWIDTH 4 0
BBX 3 25 0 -1
BITMAP
2910
4F40
0300
0000
0000
0210
0BD0
0DE0
0EE0
0ED0
0FD0
0ED0
0ED0
0ED0
0ED0
0DD0
0DD0
0CD0
0CD0
0BD0
0BD0
0BD0
0BD0
0AD0
0120
ENDCHAR
STARTCHAR j
ENCODING 106
SWIDTH 112 0
DWIDTH 4 0
BBX 10 37 -6 -11
BITMAP
0000000540
0000000E60
0000000000
0000000000
0000000000
0000000000
0000000000
0000000000
0000000000
0000000520
0000001F80
0000001F80
0000001F80
0000002F80
0000002F80
0000001F80
0000001F90
0000000FA0
0000000EB0
0000000DC0
0000000CE0
0000000BF0
0000000AF1
00000008F2
00000007F3
00000007F4
00000006F4
00000005F5
00000004F5
00000004F5
00000006F4
00000008F2
6900000BE0
3FA0002FA0
05FB10BF40
003CEDFB00
00005AB200
ENDCHAR
STARTCHAR k
ENCODING 107
SWIDTH 428 0
DWIDTH 14 0
BBX 13 27 0 -2
BITMAP
00610000000000
05F50000000000
05F80000000000
06F80000000000
06F90000000000
07F80000000000
07F800000008A0
08F70000007FD0
08F6000002FF50
09F500000CFC00
09F400007FF400
0AF30002EFA000
0BF2000CFE1000
0BF1007FF50000
0CF103FF800000
0CF01DFA000000
0DF2CFC1000000
0DFDFB10000000
0EFFA000000000
0EFF4000000000
0FFFF820000000
1FC4AFFB620000
1FB0027DFFDA60
2F9000005BFFA0
2F600000002740
2E100000000000
01000000000000
ENDCHAR
STARTCHAR l
ENCODING 108
SWIDTH 137 0
DWIDTH 4 0
BBX 4 28 0 0
BITMAP
0200
3F40
1F60
0F70
0D80
0BA0
0AB0
09C0
08D0
07E0
06F0
05F0
05F1
04F2
04F2
03F3
03F3
03F4
03F4
03F5
03F5
03F6
03F6
04F6
05F7
06F7
07F7
0052
ENDCHAR
STARTCHAR m
ENCODING 109
SWIDTH 579 0
DWIDTH 19 0
BBX 17 20 1 0
BITMAP
220000000000000000
FA0000000000000000
EC0000000000000000
CE0000000000310000
BE0025300006FF4000
9F00DFF4001EFFB000
8F04FFFA006FFFE000
8F18FFFE00CF3EF200
7F1BF4DF13F90AF400
6F1EC07F38F307F500
5F4F804F5DD006F600
5F7F401FDF8005F600
4FBF100CFF4004F600
4FED000AFE0003F700
3FFA0007FB0002F800
3FF70004F70002FA00
2FF30001300001FE00
1FF10000000000BF60
1FC000000000003C50
0C6000000000000000
ENDCHAR
STARTCHAR n
ENCODING 110
SWIDTH 483 0
DWIDTH 15 0
BBX 14 19 1 0
BITMAP
51000000494000
F600001AFFF300
F90000CFEDFB00
EB0007FE208F20
DD001EF5001F70
CF005FC0000FA0
BF20AF60000EC0
AF40EE10000DE0
9F52FA00000CF1
8F76F500000CF1
7F89E100000BF2
6FADB000000AF3
5FDF70000009F3
4FFF30000008F4
3FFE00000007F4
1FFB00000006F4
0FF800000005F4
0EF600000004F3
0CC10000000030
ENDCHAR
STARTCHAR o
ENCODING 111
SWIDTH 266 0
DWIDTH 9 0
BBX 8 18 0 0
BITMAP
00188100
00CFFC10
02FEBE90
05F402F3
09C000C9
0C9000AC
0F70009E
2F60009E
4F6000AE
5F5000BE
6F5000DD
6F5001FA
5F6004F8
4F6009F3
3F601EC0
2FA2BF40
0EFFF700
06EB4000
ENDCHAR
STARTCHAR p
ENCODING 112
SWIDTH 482 0
DWIDTH 15 0
BBX 15 26 0 -9
BITMAP
0930000000000000
2FA000028CEEB500
2FA001AFE9669F70
2F807EC500000FD0
1F9BF70000004FB0
1FFF50000000BF40
0FF600000006FA00
0ED00000005FC100
0EA0000006FD2000
0DA00001AFC10000
0DB0005EFC100000
0CD01AFF90000000
0BF5EFE600000000
0BFFFC2000000000
0BFF700000000000
0BE2000000000000
0BD0000000000000
0BC0000000000000
0BB0000000000000
0BB0000000000000
0CA0000000000000
0C90000000000000
0D90000000000000
0E80000000000000
1F70000000000000
0A40000000000000
ENDCHAR
STARTCHAR q
ENCODING 113
SWIDTH 408 0
DWIDTH 13 0
BBX 14 24 0 -9
BITMAP
0000005AC80000
00000AFECF5000
0000AF910E9000
0007F7001FC000
003F90003FE000
00BE10006FF100
03F60000AFF300
09E10000ECF500
0EA00004F6F700
3F60000BE1F900
5F40004F90DB00
4F5003EE20BD00
1EEBAFD3009F00
03ACA610007F20
00000000006F40
00000000004F60
00000000002F80
00000000000FA0
00000000000DD0
00000000000BF0
000000000009F2
000000000007F4
000000000005F6
000000000003C6
ENDCHAR
STARTCHAR r
ENCODING 114
SWIDTH 396 0
DWIDTH 13 0
BBX 12 17 0 0
BITMAP
000000002331
1C50005DFFFC
2F8005FFCA85
0EA00EF70000
0CC05FA00000
0AE09F400000
07F1CF100000
05F3DD000000
03F5EB000000
00F7FA000000
00DAF9000000
00BDF8000000
008FF7000000
006FF6000000
004FF5000000
001FF3000000
000AC1000000
ENDCHAR
STARTCHAR s
ENCODING 115
SWIDTH 366 0
DWIDTH 12 0
BBX 12 18 0 -1
BITMAP
000000011000
000018DFF800
0004ED88C400
005FB1000000
02ED10000000
09F400000000
0EC000000000
2F7000000000
3F700049CC30
1FEABEFFFFE1
08FFFA5239F4
0024100009F3
000000006FA0
00000007FD10
000001AFE200
00003DFD2000
0007FFA10000
0006A5000000
ENDCHAR
STARTCHAR t
ENCODING 116
SWIDTH 268 0
DWIDTH 9 0
BBX 11 26 -2 -1
BITMAP
000042000000
0000ED000000
0000EC000000
0000FB000000
0000FA000000
0000F9000000
0001F8000000
0001F9026B80
0001FDDFFF90
003CFFFE8200
0AFFFD610000
1FFDF8000000
0654F8000000
0004F9000000
0003FA000000
0002FA000000
0001FB000000
0000FC000000
0000EC000000
0000DD000000
0000DD000000
0000CE000000
0000BF000000
0000AF000000
00009F000000
000049000000
ENDCHAR
STARTCHAR u
ENCODING 117
SWIDTH 387 0
DWIDTH 12 0
BBX 11 17 1 -1
BITMAP
640000024100
EA000006F500
DA000006F500
DB000006F500
DC000007F500
DD000007F500
CE000008F500
CE000009F400
BF00000CF400
AF10002FF500
9F20009FF600
7F3002FFF700
4F500BFCF800
1F908FE2DB00
0AECFE30BE00
02EFD2008F40
001300002820
ENDCHAR
STARTCHAR v
ENCODING 118
SWIDTH 354 0
DWIDTH 11 0
BBX 11 18 0 0
BITMAP
000000001200
000000008F60
000000008F70
000000008F70
481000008F70
7F9000009F70
1EF300009F60
07FB0000AF50
01DF4000AF40
006FC000BF30
000CF600CF30
0004FE10DF20
0000AF90EF10
00002EF7FF00
000007FFFF00
000000BFFF00
0000002EFF00
00000004EB00
ENDCHAR
STARTCHAR w
ENCODING 119
SWIDTH 566 0
DWIDTH 18 0
BBX 17 17 0 0
BITMAP
000000035000000300
0D50000CF300001F60
1FC0000FFC00001F90
0AF3002FDF60001F90
04F9003F8CE1001F90
00DE105F73F9001F90
007F606F609F301F90
002FB08F501EB01FA0
000BF29F4007F51FB0
0006F8BF4000CD1FB0
0001EEDF30004F8FC0
00009FFF20000AFFC0
00004FFF100002EFD0
00000DFE0000007FE0
000007FD0000000CF0
000002FC0000000020
0000008A0000000000
ENDCHAR
STARTCHAR x
ENCODING 120
SWIDTH 454 0
DWIDTH 15 0
BBX 14 23 0 -3
BITMAP
00000002400000
00000009F60000
0000000AF70000
0000000AF60000
0000000BF30000
4D80000CF10000
4FF4000EC00000
09FC000F900000
00AFA02F600000
000AFB7F400000
00009FFF200000
000009FF400000
000005FFE30000
000009FFFE3000
00000CF27FE300
00001FD004EE30
00005F90003EE3
00008F600003ED
0000CF20000048
0001FE00000000
0004FB00000000
0004F700000000
00004000000000
ENDCHAR
STARTCHAR y
ENCODING 121
SWIDTH 363 0
DWIDTH 12 0
BBX 11 29 0 -12
BITMAP
000000000470
0000000007E0
1820000008E0
4FC0000009E0
0DF500000AE0
04FD10000BE0
00AF80000CE0
001EE2000DD0
0006FA000ED0
0000BF500FC0
00002FE10FC0
000008FB2FB0
000000DFCFB0
0000004FFFA0
0000000AFF90
00000001EF80
000000006F70
000000003F60
000000004F50
000000005F40
000000007F30
000000008F20
000000009F10
00000000AF00
00000000BD00
00000000CC00
00000000EB00
00000000FA00
00000001F800
ENDCHAR
STARTCHAR z
ENCODING 122
SWIDTH 618 0
DWIDTH 20 0
BBX 21 17 0 -1
BITMAP
0000000016BF8000000000
00000049EFFFA000000000
00038DFFA5CF7000000000
1CEFFC7103FF2000000000
07B730000AFA0000000000
000000002FF30000000000
000000009F900000000000
00000002FE100000000000
00000008F5000000000000
0000001EB0000000000000
0000007F40000000000000
000000DD00000000014300
000003F80000147ADFFF50
000008F7369CFFFFFFDA30
00000CFFFFFFEB86310000
00000EFDA7520000000000
0000031000000000000000
ENDCHAR
STARTCHAR braceleft
ENCODING 123
SWIDTH 348 0
DWIDTH 11 0
BBX 11 31 0 -3
BITMAP
000000120000
00005CFFFA20
0006FE733BE0
002FE3000140
007F60000000
009F10000000
008F10000000
004F40000000
000CC0000000
0004F7000000
0000BE100000
0001CF500000
2DFFE8000000
2EF800000000
02BC00000000
001E90000000
0007F6000000
08ACF9000000
5FFF91000000
8FD300000000
9F3000000000
AD0000000000
AD0000000000
9E0000000000
7F2000000000
3F8000000000
0CF500000000
04FF80000000
008FFE710000
0006EFFF7000
000014793000
ENDCHAR
STARTCHAR bar
ENCODING 124
SWIDTH 137 0
DWIDTH 4 0
BBX 4 28 0 0
BITMAP
0200
3F40
1F60
0F70
0D80
0BA0
0AB0
09C0
08D0
07E0
06F0
05F0
05F1
04F2
04F2
03F3
03F3
03F4
03F4
03F5
03F5
03F6
03F6
04F6
05F7
06F7
07F7
0052
ENDCHAR
STARTCHAR braceright
ENCODING 125
SWIDTH 348 0
DWIDTH 11 0
BBX 11 31 -1 -4
BITMAP
002685100000
19EBDFE40000
1E3005EE3000
0000005FA000
0000000CD000
00000009E000
0000000AC000
0000000E8000
0000007E1000
000002E80000
000009F20000
00000AF94400
0000017DFF70
00000001FE20
00000009C100
0000006F3000
000001FD0000
000001DFED30
0000002AFFA0
000000006FC0
000000000BD0
0000000007D0
0000000008E0
0000000009C0
000000000DA0
000000005F60
00000003EE10
0000006EF700
00006DFFB000
000DFFE70000
000474100000
ENDCHAR
STARTCHAR asciitilde
ENCODING 126
SWIDTH 458 0
DWIDTH 15 0
BBX 13 6 1 17
BITMAP
028CC810002400
2EEACF9001EF30
9F601EE10BFC00
BD0007FCAFD200
2200009FFC2000
00000003300000
ENDCHAR
STARTCHAR nonbreakingspace
ENCODING 160
SWIDTH 450 0
DWIDTH 14 0
BBX 1 1 0 0
BITMAP
00
ENDCHAR
STARTCHAR exclamdown
ENCODING 161
SWIDTH 137 0
DWIDTH 4 0
BBX 4 21 0 -5
BITMAP
0069
0034
0000
0000
0000
0000
0000
0000
0940
2F90
3F70
2F50
2F40
2F40
1F40
1F40
0F40
0E40
0E40
0D40
0920
ENDCHAR
STARTCHAR cent
ENCODING 162
SWIDTH 394 0
DWIDTH 13 0
BBX 12 26 0 -3
BITMAP
000005100000
00003F500000
00001F700000
00000E800000
00017EC20000
000BFFFE5000
007FA9DEF400
00DF27B5FC00
04FA06B05800
07F605C00000
0AF204D00000
0CE003D00000
0EB002E00000
0F9002E00000
1F7001F00000
2F6001F000A4
2F6000F003F6
1F6000F109F4
0D9000F10EE1
09D100F15F80
04F900F4DD10
00AFC9FFD200
0019EFF91000
000003F60000
000004F60000
000000100000
ENDCHAR
STARTCHAR sterling
ENCODING 163
SWIDTH 539 0
DWIDTH 17 0
BBX 17 23 0 -1
BITMAP
000000000002420000
0000000006DFFF8000
00000001BFD75BF300
0000001CF70000B700
0000009F5000000100
000003F80000000000
00000BE10000000000
00002F700000000000
00007F879BB2000000
5BDFFFFFC820000000
6FECFC510000000000
0001F8000000000000
0004F6000000000000
0006F4000000000000
0008F2000000000000
0009F1000000000000
000AF1000000000000
000AF0000000000000
000BE00049CCA61000
000AE02BFFFEFFE920
0009F9EE941018FE30
0005FE710000003100
000061000000000000
ENDCHAR
STARTCHAR currency
ENCODING 164
SWIDTH 500 0
DWIDTH 16 0
BBX 13 19 1 2
BITMAP
00000000006D40
0002000000CF60
006F701204FE10
005FC7EFCBF800
001EFFFEFFD100
0009FD20BF6000
0009F2003F6000
000DB0000F8000
000E90000D9000
000EA0000DA000
000CB0000E9000
0009D0005F9000
000CF101DF6000
008FF92BFF2000
03FE9FFFFF2000
0DF61BEB7F9000
8FB000000CD000
BE200000046000
23000000000000
ENDCHAR
STARTCHAR yen
ENCODING 165
SWIDTH 478 0
DWIDTH 15 0
BBX 13 26 1 0
BITMAP
00000000006B30
00E9000003FF80
00CF50000AFE10
007FD0002FF700
002FF5009FD000
000AFB01EF4000
0004FF46FA0000
0000DFDDF20000
00006FFFA00000
00001EFF400000
000007FF100000
000001EC000000
000000EB000000
000000EB245620
02579BFFFFFF50
0AFFFFFFFEA400
026766FB100000
000000FB221000
1568ADFFFFF900
4EFDCAFC445000
000001FA000000
000002FA000000
000002FA000000
000002FA000000
000002F9000000
00000284000000
ENDCHAR
STARTCHAR brokenbar
ENCODING 166
SWIDTH 137 0
DWIDTH 4 0
BBX 4 28 0 0
BITMAP
0200
3F40
2F60
0F70
0D80
0CA0
0BB0
09C0
08D0
07E0
06F0
0250
0000
02A2
03F3
02F4
02F4
01F5
01F5
01F6
01F6
02F7
03F7
03F7
05F7
07F7
07F7
0052
ENDCHAR
STARTCHAR section
ENCODING 167
SWIDTH 366 0
DWIDTH 12 0
BBX 12 25 0 -1
BITMAP
0000048BB300
0003CFDEF300
004EC3012000
02ED10000000
0BF300000000
2FA000000000
5F5000000000
7F2000158500
5F956AEFFF80
2EFFFEA8AFE0
03CFB1000FF1
02ED10006F90
0AF40002ED10
0EC0002DE300
2F8002DE3000
3F706EFCCC30
1FFEFFFFFFE1
08FFFA5239F4
0024100009F3
000000006FA0
00000007FD10
000001AFE200
00003DFD2000
0007FFA10000
0006A5000000
ENDCHAR
STARTCHAR dieresis
ENCODING 168
SWIDTH 306 0
DWIDTH 10 0
BBX 7 3 2 21
BITMAP
8D307D40
EE20CF40
11001100
ENDCHAR
STARTCHAR copyright
ENCODING 169
SWIDTH 485 0
DWIDTH 16 0
BBX 16 22 0 0
BITMAP
0000000377500000
000001AFFFFD2000
00002DFC648FE100
0000CF900006FB00
0008F9000000CF20
001EC028A5007F80
008F33EEEE103FC0
00EB0CF28F301FF0
04F42FA008200EF1
09E06F5000000EF1
0CA08F3000000EF0
1F709F1000004FD0
3F50AF10000BFF90
5F308F10007FFF50
7F204F7006FFFE00
8F200CFBDFDBF700
6F3001ADC73FD100
4F60000001DF4000
1FB000003DF60000
0AF92249FF600000
02EFFFFFD4000000
003CFEB500000000
ENDCHAR
STARTCHAR ordfeminine
ENCODING 170
SWIDTH 227 0
DWIDTH 7 0
BBX 7 9 0 4
BITMAP
00003200
002CED00
00C84D00
08B07E00
2E21EF10
890B7B30
D27C0850
D8D20670
6A200360
ENDCHAR
STARTCHAR guillemotleft
ENCODING 171
SWIDTH 652 0
DWIDTH 21 0
BBX 18 17 1 4
BITMAP
000000000022000056
0000000001CB0005FA
000000002DF6007FE2
00000004EF900AFE30
0000006FF901CFD300
000009FF603DFB1000
0001BFD305EF700000
002DF9107FD3000000
04EE501AFA10000000
4FD2007FC000000000
5FE3002EF810000000
07FF8103DFD4000000
004DFD501AFFA20000
00019FFB204DFE8100
000003CFFB507EFFB0
00000006EFF102AFE0
000000001A70000520
ENDCHAR
STARTCHAR logicalnot
ENCODING 172
SWIDTH 539 0
DWIDTH 17 0
BBX 15 9 2 4
BITMAP
0123456789ABB500
CFFFFFFFFFFFF900
233222111000AA00
000000000000AB00
000000000000AC00
0000000000009E00
0000000000009F00
0000000000009F10
0000000000006B10
ENDCHAR
STARTCHAR uni00AD
ENCODING 173
SWIDTH 399 0
DWIDTH 13 0
BBX 13 6 0 5
BITMAP
00000000014500
00000005BFFF10
000028EFFEA600
147CFFD9400000
7FFC7300000000
01000000000000
ENDCHAR
STARTCHAR registered
ENCODING 174
SWIDTH 382 0
DWIDTH 12 0
BBX 16 22 0 0
BITMAP
0000000021000000
0000018EFFA20000
00002DFFFFFE3000
0001CD73249FD100
000990000006F800
002F40000000BE10
009D6C15AB814F60
01E96FDB76BD0FA0
05F46F40009D0DE0
09F16F003CE30CF0
0DC06E2AFC200CF1
1F907FFE60000DF1
3F607FFB20001FE0
5F407C4DF8104FB0
7F307C007FE78F70
8F207C0002AFFF20
6F307C000009FA00
4F600000003FE200
1FC0000003EF4000
0AFB30028FE50000
02EFFFFFFB300000
003CFFD940000000
ENDCHAR
STARTCHAR macron
ENCODING 175
SWIDTH 399 0
DWIDTH 13 0
BBX 12 3 0 21
BITMAP
000013579ABA
4BDEFFFFFFED
498765421000
ENDCHAR
STARTCHAR degree
ENCODING 176
SWIDTH 201 0
DWIDTH 6 0
BBX 6 6 0 12
BITMAP
002520
07FFF4
2F50A9
2F106B
0DA6D8
039960
ENDCHAR
STARTCHAR plusminus
ENCODING 177
SWIDTH 466 0
DWIDTH 15 0
BBX 13 16 0 2
BITMAP
00000390000000
000007E0000000
000007E0000000
000007E0000000
000007E0000000
000007E0000000
000007E148AC20
000007FEFEA700
0478BFFA200000
6FEB8DF5000000
041008F5000000
000005F5000000
000002F5000000
000000F98ABB00
028ACEFFFFED10
04BA8643100000
ENDCHAR
STARTCHAR twosuperior
ENCODING 178
SWIDTH 318 0
DWIDTH 10 0
BBX 10 11 0 5
BITMAP
0001400000
007DD80000
09A12C0000
48001C0000
00003B0000
0000770000
0000C20000
0004B00000
000C4026A2
005D8CA610
0098300000
ENDCHAR
STARTCHAR threesuperior
ENCODING 179
SWIDTH 280 0
DWIDTH 9 0
BBX 9 13 0 5
BITMAP
0002650000
05BB9E0000
6C201B0000
1100950000
0007A00000
006FBB9300
04FA202C30
0130000860
0000000C20
0000009800
00001AB000
0002D90000
0009600000
ENDCHAR
STARTCHAR acute
ENCODING 180
SWIDTH 155 0
DWIDTH 5 0
BBX 5 6 0 18
BITMAP
000100
004E50
04FF20
1EF600
5F6000
010000
ENDCHAR
STARTCHAR mu
ENCODING 181
SWIDTH 387 0
DWIDTH 12 0
BBX 11 22 0 -4
BITMAP
011000000000
0E9000005D50
0FA000006F60
0FB000006F70
0FB000007F80
0FC000007F80
0FD000008F90
0FE000009F90
1FF00000BF90
1FF10001EF90
1FF10006FFA0
1FF2000DFFA0
1FF4007FFFB0
1FF704FF7FC0
1FFD6EF70FD0
1FDFFE600760
2F6761000000
2F4000000000
2F3000000000
2F3000000000
2F2000000000
2D1000000000
ENDCHAR
STARTCHAR paragraph
ENCODING 182
SWIDTH 447 0
DWIDTH 14 0
BBX 13 21 0 0
BITMAP
00000124566410
0017CFFFFFFF40
02DFFFFFFFFF40
0AFFFFFFFB1E50
1FFFFFFFF80E60
3FFFFFFFF80E60
4FFFFFFAF90E70
1DFFFC52FA0E70
01452001FB0E80
00000000FC0E90
00000000ED0E90
00000000DE0DA0
00000000CF0DB0
00000000BF0CB0
00000000AF1CC0
000000009F2BC0
000000008F3AD0
000000007F38D0
000000007F37E0
000000006F35E0
00000000280150
ENDCHAR
STARTCHAR periodcentered
ENCODING 183
SWIDTH 128 0
DWIDTH 4 0
BBX 3 3 0 7
BITMAP
0010
3EE0
3E90
ENDCHAR
STARTCHAR cedilla
ENCODING 184
SWIDTH 322 0
DWIDTH 10 0
BBX 8 12 2 -10
BITMAP
32000000
B8000000
EA000000
FA000000
EFA20000
9FFF8100
07BFFE30
0002CFD0
00003FF3
0148EFF3
BFFFFD60
69863000
ENDCHAR
STARTCHAR onesuperior
ENCODING 185
SWIDTH 112 0
DWIDTH 4 0
BBX 2 11 1 5
BITMAP
E1
F2
F3
F3
F4
F4
F5
F5
E6
C6
96
ENDCHAR
STARTCHAR ordmasculine
ENCODING 186
SWIDTH 212 0
DWIDTH 7 0
BBX 7 9 0 4
BITMAP
02BC7000
09C58900
0E300E20
4F000D50
6E000E50
7E002F30
6E008D00
5F26E400
1CEA3000
ENDCHAR
STARTCHAR guillemotright
ENCODING 187
SWIDTH 625 0
DWIDTH 20 0
BBX 18 19 1 3
BITMAP
000000140000000000
4E70008FB200000000
4FFD403DFF91000000
03BFFB206EFE600000
0004CFF8118EFC4000
000005DFE6019FFA20
00000007EFC102AFE2
0000000019F70007F5
0000000005F5000AE1
000000001DC0006F60
00000001CE3008FA00
0000003DF401AFB000
000006FF503DFA0000
0001AFE406FF900000
002DFD309FF7000000
03EFC10AFE40000000
2EF8007FC200000000
7E4000870000000000
110000000000000000
ENDCHAR
STARTCHAR onequarter
ENCODING 188
SWIDTH 678 0
DWIDTH 22 0
BBX 20 26 1 -3
BITMAP
00000003400000000000
0000000DA00000000000
0000003F500000000000
0000007F100000000000
000000CB000000000000
910002F6000000000000
F20006F2000000000000
F2000BC0000001A50000
F3001F7000000AF70000
F3005F2000007FF70000
F4009D000003FDF70000
F400E800001DE2F70000
F504F40000AE30F70000
F508E00008E300F70000
F60D90005F5000F70000
D62F5004F70000FA7893
B67E104EC258BEFC8751
96BA08FECA7520F70000
01F60320000000F70000
06F10000000000F70000
0AB00000000000F70000
0E700000000000F70000
4F200000000000F70000
9D000000000000E50000
D8000000000000000000
53000000000000000000
ENDCHAR
STARTCHAR onehalf
ENCODING 189
SWIDTH 693 0
DWIDTH 22 0
BBX 19 26 1 -3
BITMAP
00000000152000000000
000000005F3000000000
000000009D0000000000
00000000E90000000000
01000004F40000000000
3B000008E00000000000
3B00000DA00000000000
3C00002F500000000000
3C00007F100000000000
4C0000BB002640000000
4D0001F608FEF3000000
4D0006F2BD40C8000000
4D000ADCB1007A000000
4E000EAA00008A000000
3E004F300000A8000000
2F009D000000E4000000
0F00D8000005E0000000
0D03F400000A90000000
0008E000003F30000000
000CA00000AB00015820
002F500003F337BFB600
006F10000CEDD9510000
00BB00001A7200000000
01F60000000000000000
04F10000000000000000
01700000000000000000
ENDCHAR
STARTCHAR threequarters
ENCODING 190
SWIDTH 868 0
DWIDTH 28 0
BBX 22 26 1 -3
BITMAP
0000000000000001520000
0000025100000006F20000
0039DFFA0000000AD00000
2BF9308B0000000E800000
AC2000A60000004F330000
110005D00000009E2F4000
00004E30000000E9AF4000
0004E721000003F6FF4000
003EFEDCD80008EAEE4000
02EFA2001BA00CCF7E4000
0273000004E02FFC0E4000
0000000006D07FF30E4000
000000001D70BF800E4000
00000001BC01FF100E4000
0000002CD206F8002ECCE4
000005EC100FF48CEFA530
00008FA1009FFA730E4000
0000C600008F30000E4000
00000000009D00000E4000
0000000000D900000E4000
0000000003F400000E4000
0000000007E000000E4000
000000000CA000000E4000
000000001F5000000C2000
000000005F100000000000
0000000017000000000000
ENDCHAR
STARTCHAR questiondown
ENCODING 191
SWIDTH 541 0
DWIDTH 17 0
BBX 15 27 2 -2
BITMAP
0000000DB0000000
00000009C0000000
0000000000000000
0000000000000000
0000000000000000
0000000000000000
0000000000000000
0000000000000000
0000000000000000
0000000000000000
000049BCA3000000
0000AB9CFF500000
000000009FB00000
000000004FA00000
00000002DF400000
0000003EF8000000
000004FF80000000
00005FF600000000
0005FE3000000000
004FC20000000000
01EC100000000000
09E2000000000000
1E90000000000000
4F6000000028DF60
4F9000003AFFFA10
0AFECBCEFFB72000
00489A9640000000
ENDCHAR
STARTCHAR Agrave
ENCODING 192
SWIDTH 390 0
DWIDTH 13 0
BBX 15 31 1 -2
BITMAP
0007000000000000
003F900000000000
000CF50000000000
0003EE0000000000
00004E1000000000
0000000000000000
004E300000000000
007FC00000000000
009FF40000000000
00AFFA0000000000
00CFCF1000000000
00EC1F6000000000
00FB0AB000000000
02F905F100000000
04F801E700000000
05F700AC00000000
07F5006F20000000
08F4002F80000000
0AF2000EE038BD80
0BF1000AFEFEABA0
0DF1001DFC400000
0EF017EFF9000000
1FFEFD95ED000000
2FFC40009F200000
3FB000004F600000
5F4000000E900000
6F2000000AD00000
8F10000006F20000
9E00000001F60000
2200000000A60000
0000000000200000
ENDCHAR
STARTCHAR Aacute
ENCODING 193
SWIDTH 390 0
DWIDTH 13 0
BBX 16 32 0 -1
BITMAP
0000010000000000
0000AC0000000000
000BFA0000000000
008FC10000000000
00CC100000000000
0010000000000000
0000000000000000
000BB00000000000
000EF50000000000
001FFC0000000000
002FFF3000000000
004FCE8000000000
006F58E000000000
007F42F400000000
009F20C900000000
00BF107E00000000
00CF002F50000000
00ED000DA0000000
00FC0009F1000000
02FA0006F7159DD2
03F90002FEEFC9D3
05F90006FF820000
06F804AFFF200000
08FEEFB68F600000
09FF81001FA00000
0BF400000BE00000
0CC0000006F20000
0DA0000002F60000
0F90000000DA0000
1F700000008E0000
03100000002D1000
0000000000020000
ENDCHAR
STARTCHAR Acircumflex
ENCODING 194
SWIDTH 390 0
DWIDTH 13 0
BBX 17 34 -1 -1
BITMAP
0000A7000000000000
0006FF500000000000
001DB9F30000000000
007F30AE2000000000
01E9001DD100000000
08E10002EB00000000
2E7000004FC1000000
9D00000007E1000000
A40000000000000000
0000BB000000000000
0000EF500000000000
0001FFC00000000000
0002FFF30000000000
0004FCE80000000000
0006F58E0000000000
0007F42F4000000000
0009F20C9000000000
000BF107E000000000
000CF002F500000000
000ED000DA00000000
000FC0009F10000000
002FA0006F7159DD20
003F90002FEEFC9D30
005F90006FF8200000
006F804AFFF2000000
008FEEFB68F6000000
009FF81001FA000000
00BF400000BE000000
00CC0000006F200000
00DA0000002F600000
00F90000000DA00000
01F700000008E00000
003100000002D10000
000000000000200000
ENDCHAR
STARTCHAR Atilde
ENCODING 195
SWIDTH 390 0
DWIDTH 13 0
BBX 17 33 -1 -1
BITMAP
006BCA400004200000
09FCAFF1009F900000
3FD008F704FF400000
5F5001EF9EF7000000
0400004EFE60000000
000000014100000000
000000000000000000
000000000000000000
0000BB000000000000
0000EF500000000000
0001FFC00000000000
0002FFF30000000000
0004FCE80000000000
0006F58E0000000000
0007F42F4000000000
0009F20C9000000000
000BF107E000000000
000CF002F500000000
000ED000DA00000000
000FC0009F10000000
002FA0006F7159DD20
003F90002FEEFC9D30
005F90006FF8200000
006F804AFFF2000000
008FEEFB68F6000000
009FF81001FA000000
00BF400000BE000000
00CC0000006F200000
00DA0000002F600000
00F90000000DA00000
01F700000008E00000
003100000002D10000
000000000000200000
ENDCHAR
STARTCHAR Adieresis
ENCODING 196
SWIDTH 390 0
DWIDTH 13 0
BBX 16 29 0 -1
BITMAP
02BB01AC10000000
04FC02FD10000000
0020002100000000
0000000000000000
000BB00000000000
000EF50000000000
001FFC0000000000
002FFF3000000000
004FCE8000000000
006F58E000000000
007F42F400000000
009F20C900000000
00BF107E00000000
00CF002F50000000
00ED000DA0000000
00FC0009F1000000
02FA0006F7159DD2
03F90002FEEFC9D3
05F90006FF820000
06F804AFFF200000
08FEEFB68F600000
09FF81001FA00000
0BF400000BE00000
0CC0000006F20000
0DA0000002F60000
0F90000000DA0000
1F700000008E0000
03100000002D1000
0000000000020000
ENDCHAR
STARTCHAR Aring
ENCODING 197
SWIDTH 390 0
DWIDTH 13 0
BBX 16 30 0 -1
BITMAP
0013420000000000
1AFFFFA000000000
AF934BF500000000
DD0003F800000000
AF500AF600000000
2DFFFE8000000000
002EF50000000000
001FFC0000000000
003FFF3000000000
004FCE8000000000
006F58E000000000
007F42F400000000
009F20C900000000
00AF107E00000000
00CF002F50000000
00ED000DA0000000
00FC0009F1000000
02FA0006F7159DD2
03F90002FEEFC9D3
05F90006FF820000
06F804AFFF200000
08FEEFB68F600000
09FF81001FA00000
0BF400000BE00000
0CC0000006F20000
0DA0000002F60000
0F90000000DA0000
1F700000008E0000
03100000002D1000
0000000000020000
ENDCHAR
STARTCHAR AE
ENCODING 198
SWIDTH 708 0
DWIDTH 23 0
BBX 23 24 0 0
BITMAP
000BB0000000000000352000
000EF5001B6000039DFA1000
001FFC004FD005CFFA200000
002FFF300EF5DFFA20000000
004FCE800CFFFA2000000000
006F58E00BFA200000000000
007F42F409F1000000000000
009F20C907F1000000000000
00BF107E06F2000000110000
00CF002F55F3000005E30000
00ED000DA4F40004CC300000
00FC0009F5F504BE70000000
02FA0006FAFABFA200000000
03F90002FFFFC30000000000
05F90006FFFE000000000000
06F804AFFFFE000000000100
08FEEFB68FFE00000002BF30
09FF81001EFE0000007FD500
0BF400000AFD00002BF91000
0CC0000006FD0006EE500000
0DA0000002FD04CFA1000000
0F90000002FFEFD500000000
1F70000002FFF81000000000
031000000023200000000000
ENDCHAR
STARTCHAR Ccedilla
ENCODING 199
SWIDTH 487 0
DWIDTH 16 0
BBX 15 35 0 -11
BITMAP
0000000242000000
0000009FFF700000
000009FA5BF30000
00005F8000B60000
0000DD0000010000
0006F50000000000
000CD00000000000
002F700000000000
007F200000000000
00BD000000000000
00F9000000000000
04F5000000000000
07F1000000000000
0AE0000000000000
0CB0000000000320
0F90000000001FB0
1F70000000008F70
3F6000000003FD10
3F600000000CF300
1F80000000AF7000
0DC0000009F70000
08F40002CF600000
01EFB9BFD4000000
002BFFD710000000
00001F6000000000
00003F6000000000
00003FA100000000
00001FFD60000000
000008FFFC400000
00000026DFF50000
000000000AFD0000
000000001AFF1000
0000047BFFFC0000
00001FFFEB610000
0000023200000000
ENDCHAR
STARTCHAR Egrave
ENCODING 200
SWIDTH 474 0
DWIDTH 15 0
BBX 14 29 1 0
BITMAP
00062000000000
000DC100000000
0008FA00000000
0000CF40000000
00001D50000000
00000000002300
69000005AEE500
DF3017EFE71000
9F78EFE7100000
7FFFE710000000
5FE71000000000
4F700000000000
2F700000000000
0F800000001000
0E9000001AB000
0EA00006ED2000
0DB005DF910000
0CB3BFA2000000
0BFFC300000000
0BFA0000000000
0BF40000000000
0BF400000006E8
0BF4000002CFA1
0BF400006ED400
0BF4002BFA1000
0BF417EE500000
0BFCEF91000000
0BFFC300000000
05940000000000
ENDCHAR
STARTCHAR Eacute
ENCODING 201
SWIDTH 474 0
DWIDTH 15 0
BBX 14 29 1 0
BITMAP
00000001000000
0000004E500000
000004FF200000
00001EF6000000
00005F60000000
00000100002300
69000005AEE500
DF3017EFE71000
9F78EFE7100000
7FFFE710000000
5FE71000000000
4F700000000000
2F700000000000
0F800000001000
0E9000001AB000
0EA00006ED2000
0DB005DF910000
0CB3BFA2000000
0BFFC300000000
0BFA0000000000
0BF40000000000
0BF400000006E8
0BF4000002CFA1
0BF400006ED400
0BF4002BFA1000
0BF417EE500000
0BFCEF91000000
0BFFC300000000
05940000000000
ENDCHAR
STARTCHAR Ecircumflex
ENCODING 202
SWIDTH 474 0
DWIDTH 15 0
BBX 14 34 1 0
BITMAP
000006A1000000
00001EFA000000
00009E6E800000
0002F805F60000
000AD1008F4000
003F50000BE300
00BC000001DE50
04F30000003E50
06800000000000
00000000000000
00000000002300
69000005AEE500
DF3017EFE71000
9F78EFE7100000
7FFFE710000000
5FE71000000000
4F700000000000
2F700000000000
0F800000001000
0E9000001AB000
0EA00006ED2000
0DB005DF910000
0CB3BFA2000000
0BFFC300000000
0BFA0000000000
0BF40000000000
0BF400000006E8
0BF4000002CFA1
0BF400006ED400
0BF4002BFA1000
0BF417EE500000
0BFCEF91000000
0BFFC300000000
05940000000000
ENDCHAR
STARTCHAR Edieresis
ENCODING 203
SWIDTH 474 0
DWIDTH 15 0
BBX 14 29 1 0
BITMAP
001AC109D20000
002FD01EE20000
00021001100000
00000000000000
00000000000000
00000000002300
69000005AEE500
DF3017EFE71000
9F78EFE7100000
7FFFE710000000
5FE71000000000
4F700000000000
2F700000000000
0F800000001000
0E9000001AB000
0EA00006ED2000
0DB005DF910000
0CB3BFA2000000
0BFFC300000000
0BFA0000000000
0BF40000000000
0BF400000006E8
0BF4000002CFA1
0BF400006ED400
0BF4002BFA1000
0BF417EE500000
0BFCEF91000000
0BFFC300000000
05940000000000
ENDCHAR
STARTCHAR Igrave
ENCODING 204
SWIDTH 153 0
DWIDTH 5 0
BBX 4 30 0 0
BITMAP
2600
6F50
2EE2
06FA
007B
0000
03C3
03F6
01F7
00F9
00EA
00DB
00DB
00DC
00CC
00CD
00CD
00BD
00BE
00BE
00AE
00AE
00AE
00AF
009F
009F
009F
008F
008F
004B
ENDCHAR
STARTCHAR Iacute
ENCODING 205
SWIDTH 153 0
DWIDTH 5 0
BBX 4 31 1 0
BITMAP
0001
01BC
0BF9
9FC1
DB10
1000
0000
3C30
3F60
1F70
0F90
0EA0
0DB0
0DB0
0DC0
0CC0
0CD0
0CD0
0BD0
0BE0
0BE0
0AE0
0AE0
0AE0
0AF0
09F0
09F0
09F0
08F0
08F0
04B0
ENDCHAR
STARTCHAR Icircumflex
ENCODING 206
SWIDTH 153 0
DWIDTH 5 0
BBX 12 33 -3 0
BITMAP
00004B200000
0000DFC10000
0006F7DB0000
001DA03E9000
007F2005F700
01E800008F50
08E100000BF7
2F60000001D8
4A0000000000
00003C300000
00003F600000
00001F700000
00000F900000
00000EA00000
00000DB00000
00000DB00000
00000DC00000
00000CC00000
00000CD00000
00000CD00000
00000BD00000
00000BE00000
00000BE00000
00000AE00000
00000AE00000
00000AE00000
00000AF00000
000009F00000
000009F00000
000009F00000
000008F00000
000008F00000
000004B00000
ENDCHAR
STARTCHAR Idieresis
ENCODING 207
SWIDTH 153 0
DWIDTH 5 0
BBX 7 28 -1 0
BITMAP
2BB01AC0
5FB03FD0
02000210
00000000
003C3000
003F6000
001F7000
000F9000
000EA000
000DB000
000DB000
000DC000
000CC000
000CD000
000CD000
000BD000
000BE000
000BE000
000AE000
000AE000
000AE000
000AF000
0009F000
0009F000
0009F000
0008F000
0008F000
0004B000
ENDCHAR
STARTCHAR Eth
ENCODING 208
SWIDTH 554 0
DWIDTH 18 0
BBX 17 24 0 0
BITMAP
000540000000000000
0009A0000000000000
002EFFFFDCA7400000
03DFFB888ACEFE7000
2EFFF10000004AFC10
281DF0000000005F90
000CF0000000000AE0
000BF00000000008F0
000AF00000000009C0
0009F1000000000D80
0008F1000000004F30
0007F100000000BC00
0006F200000005F500
0005F30000001EB000
0004F4000000CF3000
0003F8797009F70000
18ADFFFFD07FB00000
3BBDFEA615FD100000
0002F7005FE2000000
0000D704FF40000000
0000B73EF500000000
000064DF6000000000
00000AF60000000000
00000D600000000000
ENDCHAR
STARTCHAR Ntilde
ENCODING 209
SWIDTH 541 0
DWIDTH 17 0
BBX 16 30 1 0
BITMAP
017CC92000141000
1DFABFC000DF5000
7F900CF308FE1000
9E2004FD9FE40000
2300007FFD300000
0000000240016000
000000000006F500
000000000003FA00
000000000000FC00
810000000000DE00
FE3000000000CF00
EFE200000000BF00
DFFC00000000AF00
BFFF800000009F10
9F8EF40000008F10
7F44FE2000008F20
6F506FB000007F20
4F600AF800007F20
2F7000CF40006F30
1F90002EE1006F30
0EB00004FB007F40
0CC000007F707F40
0AF000000AF48F40
09F2000001CDAF50
07F40000002EFF60
05F600000005FF90
04F8000000008FE0
02F8000000005FF1
02F9000000001640
00C5000000000000
ENDCHAR
STARTCHAR Ograve
ENCODING 210
SWIDTH 382 0
DWIDTH 12 0
BBX 12 29 0 0
BITMAP
000000170000
0000003F8000
0000000DF500
00000003ED00
000000004E10
000000000000
000000000000
000001674000
00003DFFF900
0001EFC9DF80
000AF7001DF2
003F900006F6
009F300003F9
00ED000001FB
04F9000000EC
08F4000000EC
0CF1000000FC
0EC0000001FB
2F90000003F9
4F60000006F7
6F40000009F4
7F3000000DF1
8F2000003FB0
6F3000009F60
4F600002ED00
1FA0000BF500
0AF823BF9000
02EFFFFA0000
003CFB500000
ENDCHAR
STARTCHAR Oacute
ENCODING 211
SWIDTH 382 0
DWIDTH 12 0
BBX 12 28 0 0
BITMAP
000000110000
000001CA0000
00001DF70000
0000BFB00000
0000EA000000
000010000000
000001674000
00003DFFF900
0001EFC9DF80
000AF7001DF2
003F900006F6
009F300003F9
00ED000001FB
04F9000000EC
08F4000000EC
0CF1000000FC
0EC0000001FB
2F90000003F9
4F60000006F7
6F40000009F4
7F3000000DF1
8F2000003FB0
6F3000009F60
4F600002ED00
1FA0000BF500
0AF823BF9000
02EFFFFA0000
003CFB500000
ENDCHAR
STARTCHAR Ocircumflex
ENCODING 212
SWIDTH 382 0
DWIDTH 12 0
BBX 12 30 0 0
BITMAP
00003B200000
0000CFD10000
0005F7DB0000
000DB03E9000
007F2005F700
01E900008F50
08E100000BF7
1E60000001D8
3A0001674000
00003DFFF900
0001EFC9DF80
000AF7001DF2
003F900006F6
009F300003F9
00ED000001FB
04F9000000EC
08F4000000EC
0CF1000000FC
0EC0000001FB
2F90000003F9
4F60000006F7
6F40000009F4
7F3000000DF1
8F2000003FB0
6F3000009F60
4F600002ED00
1FA0000BF500
0AF823BF9000
02EFFFFA0000
003CFB500000
ENDCHAR
STARTCHAR Otilde
ENCODING 213
SWIDTH 382 0
DWIDTH 12 0
BBX 14 28 0 0
BITMAP
0006BCA3000141
00BFBAFE000AF8
04FB00AF606FF3
06F4002EE9FF60
01400005FFE500
00000000141000
00000167400000
00003DFFF90000
0001EFC9DF8000
000AF7001DF200
003F900006F600
009F300003F900
00ED000001FB00
04F9000000EC00
08F4000000EC00
0CF1000000FC00
0EC0000001FB00
2F90000003F900
4F60000006F700
6F40000009F400
7F3000000DF100
8F2000003FB000
6F3000009F6000
4F600002ED0000
1FA0000BF50000
0AF823BF900000
02EFFFFA000000
003CFB50000000
ENDCHAR
STARTCHAR Odieresis
ENCODING 214
SWIDTH 382 0
DWIDTH 12 0
BBX 12 26 0 0
BITMAP
00002BB01AC1
00004FB02FD0
000002000210
000000000000
000001674000
00003DFFF900
0001EFC9DF80
000AF7001DF2
003F900006F6
009F300003F9
00ED000001FB
04F9000000EC
08F4000000EC
0CF1000000FC
0EC0000001FB
2F90000003F9
4F60000006F7
6F40000009F4
7F3000000DF1
8F2000003FB0
6F3000009F60
4F600002ED00
1FA0000BF500
0AF823BF9000
02EFFFFA0000
003CFB500000
ENDCHAR
STARTCHAR multiply
ENCODING 215
SWIDTH 454 0
DWIDTH 15 0
BBX 10 12 2 4
BITMAP
0100000000
5E10000160
1DA0001CE1
04F500AF50
00AE37F800
001EEFA000
0009FD1000
005FEF4000
03EA1BD100
1DC002F900
AF2000CF20
0100004B30
ENDCHAR
STARTCHAR Oslash
ENCODING 216
SWIDTH 382 0
DWIDTH 12 0
BBX 12 26 0 -3
BITMAP
000000000520
000001687F40
00003DFFFF00
0001EFC9FF80
000AF703FEF2
003F9007E7F6
009F300CA3F9
00ED002F61FB
04F9006F10FC
08F400BB00EC
0CF101F700FC
0EC005F201FB
2F9009D003F9
4F600E8006F7
6F404F3009F4
7F308E000DF1
8F20D9003FB0
6F32F4009F60
4F67E002ED00
1FACA00BF500
0AFF73BF9000
01EFFFFA0000
00BFFB500000
00E600000000
03F200000000
007000000000
ENDCHAR
STARTCHAR Ugrave
ENCODING 217
SWIDTH 450 0
DWIDTH 14 0
BBX 13 30 1 -4
BITMAP
00008100000000
0001FA00000000
0000BF70000000
00001DF1000000
000003E2000000
00000000000000
00000000003C10
DD000000008F50
FE00000000BF60
FE00000000DF50
EE00000001FF50
EE00000003FF40
DE00000006FF30
DE00000008FF20
CE0000000BFF20
CE0000000EFF10
BE0000002FFF00
BE0000005FFF00
BE0000009FAF00
AE000000EB7F10
9E000004F65F20
7F10000BD04F40
5F60005F602F50
1EE304EB001F70
07FFEFB1000E80
00599500000DA0
00000000000BB0
00000000000AB0
000000000008B0
00000000000440
ENDCHAR
STARTCHAR Uacute
ENCODING 218
SWIDTH 450 0
DWIDTH 14 0
BBX 13 28 1 -4
BITMAP
00000001100000
0000001CA00000
000001CF700000
00000AFB000000
00000EA0003C10
DD000100008F50
FE00000000BF60
FE00000000DF50
EE00000001FF50
EE00000003FF40
DE00000006FF30
DE00000008FF20
CE0000000BFF20
CE0000000EFF10
BE0000002FFF00
BE0000005FFF00
BE0000009FAF00
AE000000EB7F10
9E000004F65F20
7F10000BD04F40
5F60005F602F50
1EE304EB001F70
07FFEFB1000E80
00599500000DA0
00000000000BB0
00000000000AB0
000000000008B0
00000000000440
ENDCHAR
STARTCHAR Ucircumflex
ENCODING 219
SWIDTH 450 0
DWIDTH 14 0
BBX 13 34 1 -4
BITMAP
00003B20000000
0000CFD1000000
0005F7DB000000
000DB03E900000
007F2005F70000
01E900008F5000
08E100000BF700
1E60000001D800
3A000000000000
00000000000000
00000000003C10
DD000000008F50
FE00000000BF60
FE00000000DF50
EE00000001FF50
EE00000003FF40
DE00000006FF30
DE00000008FF20
CE0000000BFF20
CE0000000EFF10
BE0000002FFF00
BE0000005FFF00
BE0000009FAF00
AE000000EB7F10
9E000004F65F20
7F10000BD04F40
5F60005F602F50
1EE304EB001F70
07FFEFB1000E80
00599500000DA0
00000000000BB0
00000000000AB0
000000000008B0
00000000000440
ENDCHAR
STARTCHAR Udieresis
ENCODING 220
SWIDTH 450 0
DWIDTH 14 0
BBX 13 28 1 -4
BITMAP
0008D306D50000
000DF30BF50000
00011001100000
00000000000000
00000000003C10
DD000000008F50
FE00000000BF60
FE00000000DF50
EE00000001FF50
EE00000003FF40
DE00000006FF30
DE00000008FF20
CE0000000BFF20
CE0000000EFF10
BE0000002FFF00
BE0000005FFF00
BE0000009FAF00
AE000000EB7F10
9E000004F65F20
7F10000BD04F40
5F60005F602F50
1EE304EB001F70
07FFEFB1000E80
00599500000DA0
00000000000BB0
00000000000AB0
000000000008B0
00000000000440
ENDCHAR
STARTCHAR Yacute
ENCODING 221
SWIDTH 483 0
DWIDTH 15 0
BBX 15 31 0 0
BITMAP
0000000001100000
000000001CA00000
00000001CF700000
0000000AFB000000
0000000EA0000000
0000000100000000
0000000000000660
0000000000000BB0
0000000000000E70
0000000000004F30
2300000000009D00
8E2000000000E900
2FB000000004F500
08F800000009F100
01DF5000000EB000
003EE300005F7000
0006FD1000AF2000
00008FC101FC0000
00000AFB16F70000
000000BFDDF10000
0000001CFFA00000
00000001FF500000
00000000FE100000
00000003FA000000
00000007F5000000
0000000CE0000000
0000002FA0000000
0000007F50000000
000000CE10000000
000000EA00000000
000000D500000000
ENDCHAR
STARTCHAR Thorn
ENCODING 222
SWIDTH 398 0
DWIDTH 13 0
BBX 13 26 0 0
BITMAP
04C50000000000
06F60000000000
07F30000000000
08F10000000000
08F00000000000
09E0017ACC5000
0AF03EFFFFF400
0BF4EE8329FB00
0BFEE30000CE00
0CFF5000008F10
0DFA0000008F10
0DF3000000BE00
0ED0000001FC00
0ED0000009F500
0FD000006FA000
0FD00006FB0000
0FC003BF900000
0FC4AFE5000000
1FFFF910000000
1FFA2000000000
1FD00000000000
0FD00000000000
0FD00000000000
0EE00000000000
0DE00000000000
03300000000000
ENDCHAR
STARTCHAR germandbls
ENCODING 223
SWIDTH 537 0
DWIDTH 17 0
BBX 17 24 0 0
BITMAP
000000000220000000
0000005AFFFD300000
18103CFEA7AF700000
3F88FC50004F500000
0DFF800000BD000000
0AF9000006F5000000
08F400003E90000000
06F40001DB00000000
04F5001CC147998300
01F601BE9EEB9BFF40
00EA1BFFD510006F60
00CECFF70000005F10
00AFFF50000000B800
007FF600000008D100
005FC00000006F4000
003F60000005F80000
001F6000005FB00000
000E800005FD100000
000BB0005FE2000000
0009D004FE30000000
0007F11EE400000000
0005F26D3000000000
0002F3000000000000
000091000000000000
ENDCHAR
STARTCHAR agrave
ENCODING 224
SWIDTH 366 0
DWIDTH 12 0
BBX 11 24 0 0
BITMAP
000260000000
0006F6000000
0001EF300000
00005FB00000
000006C00000
000000000000
000000034000
000003DFFA00
00002EFFFE00
0000DFA1FD00
0008FC01FC00
002FF303FD00
009F9006FE00
01EF200CFF00
06F9004FFF20
0CF200CF9F40
2FB006FA2F60
7F501DF20F80
BE008F800DA0
EA03FE100BB0
EA2DF5000AD0
BFEF900008D0
6FFA000006D0
065000000270
ENDCHAR
STARTCHAR aacute
ENCODING 225
SWIDTH 366 0
DWIDTH 12 0
BBX 11 24 0 0
BITMAP
000000010000
0000004E5000
000004EF3000
00001EF70000
00004F600000
000001000000
000000034000
000003DFFA00
00002EFFFE00
0000DFA1FD00
0008FC01FC00
002FF303FD00
009F9006FE00
01EF200CFF00
06F9004FFF20
0CF200CF9F40
2FB006FA2F60
7F501DF20F80
BE008F800DA0
EA03FE100BB0
EA2DF5000AD0
BFEF900008D0
6FFA000006D0
065000000270
ENDCHAR
STARTCHAR acircumflex
ENCODING 226
SWIDTH 366 0
DWIDTH 12 0
BBX 12 30 0 0
BITMAP
00006A000000
0002FFA00000
0009E6F80000
002F706F6000
00AD0009F400
03F50000BE20
0BB000001DE4
4F30000003E5
680000000000
000000000000
000000000000
000000000000
000000034000
000003DFFA00
00002EFFFE00
0000DFA1FD00
0008FC01FC00
002FF303FD00
009F9006FE00
01EF200CFF00
06F9004FFF20
0CF200CF9F40
2FB006FA2F60
7F501DF20F80
BE008F800DA0
EA03FE100BB0
EA2DF5000AD0
BFEF900008D0
6FFA000006D0
065000000270
ENDCHAR
STARTCHAR atilde
ENCODING 227
SWIDTH 366 0
DWIDTH 12 0
BBX 13 24 0 0
BITMAP
004ACB60000330
07FD9EF4006FC0
0EE106FA02EF70
2F8000CF9DFA00
0400002DFF8000
00000000420000
00000003400000
000003DFFA0000
00002EFFFE0000
0000DFA1FD0000
0008FC01FC0000
002FF303FD0000
009F9006FE0000
01EF200CFF0000
06F9004FFF2000
0CF200CF9F4000
2FB006FA2F6000
7F501DF20F8000
BE008F800DA000
EA03FE100BB000
EA2DF5000AD000
BFEF900008D000
6FFA000006D000
06500000027000
ENDCHAR
STARTCHAR adieresis
ENCODING 228
SWIDTH 366 0
DWIDTH 12 0
BBX 11 24 0 0
BITMAP
001BC01AC100
003FC02FD100
000200011000
000000000000
000000000000
000000000000
000000034000
000003DFFA00
00002EFFFE00
0000DFA1FD00
0008FC01FC00
002FF303FD00
009F9006FE00
01EF200CFF00
06F9004FFF20
0CF200CF9F40
2FB006FA2F60
7F501DF20F80
BE008F800DA0
EA03FE100BB0
EA2DF5000AD0
BFEF900008D0
6FFA000006D0
065000000270
ENDCHAR
STARTCHAR aring
ENCODING 229
SWIDTH 366 0
DWIDTH 12 0
BBX 11 22 0 0
BITMAP
000049AA6000
0009FECEFB00
003FC101BF10
002F80009F20
000DF968FC00
00029DFFFA00
00003EFFFE00
0000DFA1FD00
0008FC01FC00
002FF303FD00
009F9006FE00
01EF200CFF00
06F9004FFF20
0CF200CF9F40
2FB006FA2F60
7F501DF20F80
BE008F800DA0
EA03FE100BB0
EA2DF5000AD0
BFEF900008D0
6FFA000006D0
065000000270
ENDCHAR
STARTCHAR ae
ENCODING 230
SWIDTH 705 0
DWIDTH 23 0
BBX 22 18 0 0
BITMAP
00000003400006CDB50000
000003DFFA009FFDFF8000
00002EFFFE05FE401DF300
0000DFA1FD0DF5001EF500
0008FC01FC5FA003DF8000
002FF303FDCF329FD40000
009F9006FFFFBFF8100000
01EF200CFFFFFA20000000
06F9004FFFFD3000000024
0CF200CFFFF700000001EE
2FB006FA6FF40000000BF9
7F501DF20FF40000006FD1
BE008F800DF3000003FE30
EA03FD100BF300002EE300
EA2DF4000AF70005ED2000
BFEF900008FFA9CFA10000
6FFA000006E9EFB4000000
0650000002700000000000
ENDCHAR
STARTCHAR ccedilla
ENCODING 231
SWIDTH 390 0
DWIDTH 13 0
BBX 12 29 0 -10
BITMAP
00018CB10000
000CFDF80000
007FA0EC0000
00EF20BE0000
03FB006F0000
07F6000B0000
0AF200000000
0CE000000000
0EB000000000
0F9000000000
1F7000000000
2F6000000094
2F60000003F6
1F60000008F4
0D9000000DF1
09D100005F90
04F90002ED10
00AFC8BFD200
001AFEC71000
0008F1000000
0009E0000000
0008FC300000
0004FFF92000
00006AFFE600
00000019FF40
00000000DF90
0000015BFF90
0005DFFFFB20
0004BA862000
ENDCHAR
STARTCHAR egrave
ENCODING 232
SWIDTH 461 0
DWIDTH 15 0
BBX 15 24 -1 0
BITMAP
0000006200000000
000000DD10000000
0000007FA0000000
0000000BF4000000
00000001C5000000
0000000000000000
0000000000000000
0000006CEC500000
000009FFDFF90000
00004FE401CF4000
0000DF5001DF6000
0005FB003DF90000
000BF418FD500000
003FFCFF81000000
00AFFFA200000000
05FFD30000000240
3FFF700000001DE0
058F50000000AF90
004F40000006FD10
003F4000003EE300
002F400002EE3000
000E80005ED30000
0008FA9CFA100000
00009EFB40000000
ENDCHAR
STARTCHAR eacute
ENCODING 233
SWIDTH 461 0
DWIDTH 15 0
BBX 15 24 -1 0
BITMAP
0000000000100000
000000000AD00000
00000000AFA00000
00000008FD100000
0000000CC1000000
0000000110000000
0000000000000000
0000006CEC500000
000009FFDFF90000
00004FE401CF4000
0000DF5001DF6000
0005FB003DF90000
000BF418FD500000
003FFCFF81000000
00AFFFA200000000
05FFD30000000240
3FFF700000001DE0
058F50000000AF90
004F40000006FD10
003F4000003EE300
002F400002EE3000
000E80005ED30000
0008FA9CFA100000
00009EFB40000000
ENDCHAR
STARTCHAR ecircumflex
ENCODING 234
SWIDTH 461 0
DWIDTH 15 0
BBX 15 30 -1 0
BITMAP
0000002B40000000
0000009FE3000000
000002F9BD100000
00000AD11DC10000
00003F6002EA0000
0000BC00005F8000
0004F3000008FA00
000CA0000000AC00
001B200000000000
0000000000000000
0000000000000000
0000000000000000
0000000000000000
0000006CEC500000
000009FFDFF90000
00004FE401CF4000
0000DF5001DF6000
0005FB003DF90000
000BF418FD500000
003FFCFF81000000
00AFFFA200000000
05FFD30000000240
3FFF700000001DE0
058F50000000AF90
004F40000006FD10
003F4000003EE300
002F400002EE3000
000E80005ED30000
0008FA9CFA100000
00009EFB40000000
ENDCHAR
STARTCHAR edieresis
ENCODING 235
SWIDTH 461 0
DWIDTH 15 0
BBX 15 24 -1 0
BITMAP
000006D604C80000
00000AF508F70000
0000012000200000
0000000000000000
0000000000000000
0000000000000000
0000000000000000
0000006CEC500000
000009FFDFF90000
00004FE401CF4000
0000DF5001DF6000
0005FB003DF90000
000BF418FD500000
003FFCFF81000000
00AFFFA200000000
05FFD30000000240
3FFF700000001DE0
058F50000000AF90
004F40000006FD10
003F4000003EE300
002F400002EE3000
000E80005ED30000
0008FA9CFA100000
00009EFB40000000
ENDCHAR
STARTCHAR igrave
ENCODING 236
SWIDTH 132 0
DWIDTH 4 0
BBX 5 27 -1 -1
BITMAP
2D2000
2FD100
09F900
00BF10
001800
000000
000000
002100
00BD00
00DE00
00EE00
00ED00
00FD00
00ED00
00ED00
00ED00
00ED00
00DD00
00DD00
00CD00
00CD00
00BD00
00BD00
00BD00
00BD00
00AD00
001200
ENDCHAR
STARTCHAR iacute
ENCODING 237
SWIDTH 132 0
DWIDTH 4 0
BBX 5 28 0 -1
BITMAP
000A70
00AF80
09FC10
1FC100
041000
000000
000000
000000
021000
0BD000
0DE000
0EE000
0ED000
0FD000
0ED000
0ED000
0ED000
0ED000
0DD000
0DD000
0CD000
0CD000
0BD000
0BD000
0BD000
0BD000
0AD000
012000
ENDCHAR
STARTCHAR icircumflex
ENCODING 238
SWIDTH 132 0
DWIDTH 4 0
BBX 12 31 -4 -1
BITMAP
00004B200000
0000DFC10000
0006F7DB0000
001EA03F9000
007F2006F700
01E800009F50
09E100000BF7
2F60000001D8
4A0000000000
000000000000
000000000000
000002100000
00000BD00000
00000DE00000
00000EE00000
00000ED00000
00000FD00000
00000ED00000
00000ED00000
00000ED00000
00000ED00000
00000DD00000
00000DD00000
00000CD00000
00000CD00000
00000BD00000
00000BD00000
00000BD00000
00000BD00000
00000AD00000
000001200000
ENDCHAR
STARTCHAR idieresis
ENCODING 239
SWIDTH 132 0
DWIDTH 4 0
BBX 7 25 -1 -1
BITMAP
8D307D40
EE20CF30
11001100
00000000
00000000
00210000
00BD0000
00DE0000
00EE0000
00ED0000
00FD0000
00ED0000
00ED0000
00ED0000
00ED0000
00DD0000
00DD0000
00CD0000
00CD0000
00BD0000
00BD0000
00BD0000
00BD0000
00AD0000
00120000
ENDCHAR
STARTCHAR eth
ENCODING 240
SWIDTH 481 0
DWIDTH 15 0
BBX 14 21 2 -1
BITMAP
00018500000000
0001FE10000000
00008F60000000
00001ED0000000
000007F6000000
000001ED458AA1
007CEFFFFFDA60
00BECA8DE20000
00000008F40000
00000002F90000
04BC8100CD0000
2EFFFE508F1000
8FB7CFF55F2000
CD0004EF7F1000
DA00003FFE0000
BA00000DFA0000
8D00001EF40000
2F8001AFA00000
07FCBDFA000000
007FFD60000000
00022000000000
ENDCHAR
STARTCHAR ntilde
ENCODING 241
SWIDTH 483 0
DWIDTH 15 0
BBX 14 27 1 0
BITMAP
0018CC91000240
02DFACFA001DF3
08F701DF20AFD1
0AE1006FCAFE30
02200009FFC200
00000000240000
00000000000000
00000000000000
51000000494000
F600001AFFF300
F90000CFEDFB00
EB0007FE208F20
DD001EF5001F70
CF005FC0000FA0
BF20AF60000EC0
AF40EE10000DE0
9F52FA00000CF1
8F76F500000CF1
7F89E100000BF2
6FADB000000AF3
5FDF70000009F3
4FFF30000008F4
3FFE00000007F4
1FFB00000006F4
0FF800000005F4
0EF600000004F3
0CC10000000030
ENDCHAR
STARTCHAR ograve
ENCODING 242
SWIDTH 266 0
DWIDTH 9 0
BBX 8 24 0 0
BITMAP
00710000
00EB0000
009F9000
001DF200
0002D300
00000000
00188100
00CFFC10
02FEBE90
05F402F3
09C000C9
0C9000AC
0F70009E
2F60009E
4F6000AE
5F5000BE
6F5000DD
6F5001FA
5F6004F8
4F6009F3
3F601EC0
2FA2BF40
0EFFF700
06EB4000
ENDCHAR
STARTCHAR oacute
ENCODING 243
SWIDTH 266 0
DWIDTH 9 0
BBX 8 24 0 0
BITMAP
00000110
00001BB0
0001CF80
000AFC10
000EB100
00010000
00188100
00CFFC10
02FEBE90
05F402F3
09C000C9
0C9000AC
0F70009E
2F60009E
4F6000AE
5F5000BE
6F5000DD
6F5001FA
5F6004F8
4F6009F3
3F601EC0
2FA2BF40
0EFFF700
06EB4000
ENDCHAR
STARTCHAR ocircumflex
ENCODING 244
SWIDTH 266 0
DWIDTH 9 0
BBX 12 30 -2 0
BITMAP
00002B300000
0000AFE20000
0003F9BD1000
000BD01DB000
004F5003FA00
00CB00005F70
05F3000008F9
0D90000000BB
2B1000000000
000000000000
000000000000
000000000000
000018810000
0000CFFC1000
0002FEBE9000
0005F402F300
0009C000C900
000C9000AC00
000F70009E00
002F60009E00
004F6000AE00
005F5000BE00
006F5000DD00
006F5001FA00
005F6004F800
004F6009F300
003F601EC000
002FA2BF4000
000EFFF70000
0006EB400000
ENDCHAR
STARTCHAR otilde
ENCODING 245
SWIDTH 266 0
DWIDTH 9 0
BBX 13 25 -1 0
BITMAP
029CC810002400
3EE9DF8002EF10
BF502FD10CFB00
DC0008FBBFD200
320000BFFB1000
00000003300000
00000000000000
00018810000000
000CFFC1000000
002FEBE9000000
005F402F300000
009C000C900000
00C9000AC00000
00F70009E00000
02F60009E00000
04F6000AE00000
05F5000BE00000
06F5000DD00000
06F5001FA00000
05F6004F800000
04F6009F300000
03F601EC000000
02FA2BF4000000
00EFFF70000000
006EB400000000
ENDCHAR
STARTCHAR odieresis
ENCODING 246
SWIDTH 266 0
DWIDTH 9 0
BBX 8 24 0 0
BITMAP
06D505C7
0BF409F6
01100020
00000000
00000000
00000000
00188100
00CFFC10
02FEBE90
05F402F3
09C000C9
0C9000AC
0F70009E
2F60009E
4F6000AE
5F5000BE
6F5000DD
6F5001FA
5F6004F8
4F6009F3
3F601EC0
2FA2BF40
0EFFF700
06EB4000
ENDCHAR
STARTCHAR divide
ENCODING 247
SWIDTH 345 0
DWIDTH 11 0
BBX 11 11 0 3
BITMAP
000057000000
0000BE000000
000024000000
000001345600
09ACEFFFFF30
1AA987665410
000000000000
000000000000
000018100000
00004F400000
000015000000
ENDCHAR
STARTCHAR oslash
ENCODING 248
SWIDTH 266 0
DWIDTH 9 0
BBX 10 22 -1 -3
BITMAP
0000000095
00018814F3
000CFFCAD0
002FEBEF80
005F406F40
009C00BF90
00C901FFC0
00F706FAE0
02F60CA9E0
04F62F5AE0
05F57E0BE0
06F5C90DD0
06F8F31FA0
05FDD04F80
04FF809F30
03FF21EC00
02FC2BF400
01FFFF7000
06FEB40000
0BB0000000
1F50000000
0710000000
ENDCHAR
STARTCHAR ugrave
ENCODING 249
SWIDTH 387 0
DWIDTH 12 0
BBX 11 25 1 -1
BITMAP
000710000000
000FB0000000
000AF8000000
0001DF200000
00002E300000
000000000000
000000000000
000000000000
640000024100
EA000006F500
DA000006F500
DB000006F500
DC000007F500
DD000007F500
CE000008F500
CE000009F400
BF00000CF400
AF10002FF500
9F20009FF600
7F3002FFF700
4F500BFCF800
1F908FE2DB00
0AECFE30BE00
02EFD2008F40
001300002820
ENDCHAR
STARTCHAR uacute
ENCODING 250
SWIDTH 387 0
DWIDTH 12 0
BBX 11 25 1 -1
BITMAP
000000110000
000001CA0000
00001CF70000
0000AFB00000
0000EA000000
000010000000
000000000000
000000000000
640000024100
EA000006F500
DA000006F500
DB000006F500
DC000007F500
DD000007F500
CE000008F500
CE000009F400
BF00000CF400
AF10002FF500
9F20009FF600
7F3002FFF700
4F500BFCF800
1F908FE2DB00
0AECFE30BE00
02EFD2008F40
001300002820
ENDCHAR
STARTCHAR ucircumflex
ENCODING 251
SWIDTH 387 0
DWIDTH 12 0
BBX 12 31 0 -1
BITMAP
00003B300000
0000BFD20000
0004F8CC1000
000CC02EB000
005F4004F900
00DA00006F70
06F2000009F8
1E80000000CA
2B1000000000
000000000000
000000000000
000000000000
000000000000
000000000000
064000002410
0EA000006F50
0DA000006F50
0DB000006F50
0DC000007F50
0DD000007F50
0CE000008F50
0CE000009F40
0BF00000CF40
0AF10002FF50
09F20009FF60
07F3002FFF70
04F500BFCF80
01F908FE2DB0
00AECFE30BE0
002EFD2008F4
000130000282
ENDCHAR
STARTCHAR udieresis
ENCODING 252
SWIDTH 387 0
DWIDTH 12 0
BBX 11 25 1 -1
BITMAP
008D306D5000
00DF30BF5000
001100110000
000000000000
000000000000
000000000000
000000000000
000000000000
640000024100
EA000006F500
DA000006F500
DB000006F500
DC000007F500
DD000007F500
CE000008F500
CE000009F400
BF00000CF400
AF10002FF500
9F20009FF600
7F3002FFF700
4F500BFCF800
1F908FE2DB00
0AECFE30BE00
02EFD2008F40
001300002820
ENDCHAR
STARTCHAR yacute
ENCODING 253
SWIDTH 363 0
DWIDTH 12 0
BBX 11 36 0 -12
BITMAP
000000010000
0000004F4000
000004FF2000
00002EF60000
00005F500000
000001000000
000000000000
000000000470
0000000007E0
1820000008E0
4FC0000009E0
0DF500000AE0
04FD10000BE0
00AF80000CE0
001EE2000DD0
0006FA000ED0
0000BF500FC0
00002FE10FC0
000008FB2FB0
000000DFCFB0
0000004FFFA0
0000000AFF90
00000001EF80
000000006F70
000000003F60
000000004F50
000000005F40
000000007F30
000000008F20
000000009F10
00000000AF00
00000000BD00
00000000CC00
00000000EB00
00000000FA00
00000001F800
ENDCHAR
STARTCHAR thorn
ENCODING 254
SWIDTH 439 0
DWIDTH 14 0
BBX 13 22 1 -1
BITMAP
B6000000000000
FC000025641000
FB002BFFEFF800
F908FB51006F40
EACE5000005F50
EFE3000000AF10
DF60000003F800
CD0000001CC000
BB000001BE2000
AB00002CE30000
9D0006EE300000
8F02BFD2000000
8F7EFB10000000
7FFF8000000000
7FE50000000000
8F100000000000
8E000000000000
9D000000000000
AD000000000000
BC000000000000
CB000000000000
97000000000000
ENDCHAR
STARTCHAR ydieresis
ENCODING 255
SWIDTH 363 0
DWIDTH 12 0
BBX 11 36 0 -12
BITMAP
002BB01AC100
004FC02FD100
000200021000
000000000000
000000000000
000000000000
000000000000
000000000470
0000000007E0
1820000008E0
4FC0000009E0
0DF500000AE0
04FD10000BE0
00AF80000CE0
001EE2000DD0
0006FA000ED0
0000BF500FC0
00002FE10FC0
000008FB2FB0
000000DFCFB0
0000004FFFA0
0000000AFF90
00000001EF80
000000006F70
000000003F60
000000004F50
000000005F40
000000007F30
000000008F20
000000009F10
00000000AF00
00000000BD00
00000000CC00
00000000EB00
00000000FA00
00000001F800
ENDCHAR
STARTCHAR Amacron
ENCODING 256
SWIDTH 390 0
DWIDTH 13 0
BBX 16 29 0 -1
BITMAP
000024689AB50000
8CDFFFFFFFE70000
7986543210000000
0000000000000000
000BB00000000000
000EF50000000000
001FFC0000000000
002FFF3000000000
004FCE8000000000
006F58E000000000
007F42F400000000
009F20C900000000
00BF107E00000000
00CF002F50000000
00ED000DA0000000
00FC0009F1000000
02FA0006F7159DD2
03F90002FEEFC9D3
05F90006FF820000
06F804AFFF200000
08FEEFB68F600000
09FF81001FA00000
0BF400000BE00000
0CC0000006F20000
0DA0000002F60000
0F90000000DA0000
1F700000008E0000
03100000002D1000
0000000000020000
ENDCHAR
STARTCHAR amacron
ENCODING 257
SWIDTH 366 0
DWIDTH 12 0
BBX 12 24 0 0
BITMAP
000024679AB7
7CDFFFFFFFE9
698654321000
000000000000
000000000000
000000000000
000000034000
000003DFFA00
00002EFFFE00
0000DFA1FD00
0008FC01FC00
002FF303FD00
009F9006FE00
01EF200CFF00
06F9004FFF20
0CF200CF9F40
2FB006FA2F60
7F501DF20F80
BE008F800DA0
EA03FE100BB0
EA2DF5000AD0
BFEF900008D0
6FFA000006D0
065000000270
ENDCHAR
STARTCHAR Abreve
ENCODING 258
SWIDTH 390 0
DWIDTH 13 0
BBX 16 32 0 -1
BITMAP
0030000074000000
04F50007F7000000
00BF627FE2000000
001CFFFE30000000
00019DA200000000
0000000000000000
0000000000000000
000BB00000000000
000EF50000000000
001FFC0000000000
002FFF3000000000
004FCE8000000000
006F58E000000000
007F42F400000000
009F20C900000000
00BF107E00000000
00CF002F50000000
00ED000DA0000000
00FC0009F1000000
02FA0006F7159DD2
03F90002FEEFC9D3
05F90006FF820000
06F804AFFF200000
08FEEFB68F600000
09FF81001FA00000
0BF400000BE00000
0CC0000006F20000
0DA0000002F60000
0F90000000DA0000
1F700000008E0000
03100000002D1000
0000000000020000
ENDCHAR
STARTCHAR abreve
ENCODING 259
SWIDTH 366 0
DWIDTH 12 0
BBX 11 24 0 0
BITMAP
001200002910
009E1000CF10
002ED33BFA00
0004EFFFB100
00003BC70000
000000000000
000000034000
000003DFFA00
00002EFFFE00
0000DFA1FD00
0008FC01FC00
002FF303FD00
009F9006FE00
01EF200CFF00
06F9004FFF20
0CF200CF9F40
2FB006FA2F60
7F501DF20F80
BE008F800DA0
EA03FE100BB0
EA2DF5000AD0
BFEF900008D0
6FFA000006D0
065000000270
ENDCHAR
STARTCHAR Aogonek
ENCODING 260
SWIDTH 390 0
DWIDTH 13 0
BBX 16 32 0 -8
BITMAP
000BB00000000000
000EF50000000000
001FFC0000000000
002FFF3000000000
004FCE8000000000
006F58E000000000
007F42F400000000
009F20C900000000
00BF107E00000000
00CF002F50000000
00ED000DA0000000
00FC0009F1000000
02FA0006F7159DD2
03F90002FEEFC9D3
05F90006FF820000
06F804AFFF200000
08FEEFB68F600000
09FF81001FA00000
0BF400000BE00000
0CC0000006F20000
0DA0000002F60000
0F90000000DA0000
1F700000008E0000
03100000007E1000
0000000009FA0000
000000005FA00000
00000000CE100000
00000001FA000000
00000001F8000000
00000000DD115BE4
000000006FFFFFD1
0000000005BCB710
ENDCHAR
STARTCHAR aogonek
ENCODING 261
SWIDTH 366 0
DWIDTH 12 0
BBX 15 25 0 -7
BITMAP
0000000340000000
000003DFFA000000
00002EFFFE000000
0000DFA1FD000000
0008FC01FC000000
002FF303FD000000
009F9006FE000000
01EF200CFF000000
06F9004FFF200000
0CF200CF9F400000
2FB006FA2F600000
7F501DF20F800000
BE008F800DA00000
EA03FE100BB00000
EA2DF5000AD00000
BFEF900008D00000
6FFA00001BD00000
06500001DF800000
00000009F6000000
0000000EC0000000
0000002F80000000
0000002F70000200
0000000DD449EF30
00000005FFFFFA00
0000000038973000
ENDCHAR
STARTCHAR Cacute
ENCODING 262
SWIDTH 487 0
DWIDTH 16 0
BBX 15 30 0 -1
BITMAP
0000000001000000
00000001BC000000
0000000BF9000000
0000009FC1000000
000000DB10000000
0000001242000000
0000009FFF700000
000009FA5BF30000
00005F8000B60000
0000DD0000010000
0006F50000000000
000CD00000000000
002F700000000000
007F200000000000
00BD000000000000
00F9000000000000
04F5000000000000
07F1000000000000
0AE0000000000000
0CB0000000000320
0F90000000001FB0
1F70000000008F70
3F6000000003FD10
3F600000000CF300
1F80000000AF7000
0DC0000009F70000
08F40002CF600000
01EFB9BFD4000000
002BFFD710000000
0000020000000000
ENDCHAR
STARTCHAR cacute
ENCODING 263
SWIDTH 390 0
DWIDTH 13 0
BBX 12 27 0 0
BITMAP
000000010000
000000AD0000
00000AFB0000
00007FD10000
0000BC100000
000011000000
000000000000
000000000000
00018CB10000
000CFDF80000
007FA0EC0000
00EF20BE0000
03FB006F0000
07F6000B0000
0AF200000000
0CE000000000
0EB000000000
0F9000000000
1F7000000000
2F6000000094
2F60000003F6
1F60000008F4
0D9000000DF1
09D100005F90
04F90002ED10
00AFC8BFD200
0019EEC71000
ENDCHAR
STARTCHAR Ccircumflex
ENCODING 264
SWIDTH 487 0
DWIDTH 16 0
BBX 15 33 0 -1
BITMAP
0000009800000000
000005FF60000000
00000DC8F4000000
00006F309E300000
0001DA000CD10000
0007E20002EC1000
001E8000004FD200
008D10000006E200
0095000242000000
0000009FFF700000
000009FA5BF30000
00005F8000B60000
0000DD0000010000
0006F50000000000
000CD00000000000
002F700000000000
007F200000000000
00BD000000000000
00F9000000000000
04F5000000000000
07F1000000000000
0AE0000000000000
0CB0000000000320
0F90000000001FB0
1F70000000008F70
3F6000000003FD10
3F600000000CF300
1F80000000AF7000
0DC0000009F70000
08F40002CF600000
01EFB9BFD4000000
002BFFD710000000
0000020000000000
ENDCHAR
STARTCHAR ccircumflex
ENCODING 265
SWIDTH 390 0
DWIDTH 13 0
BBX 12 30 0 0
BITMAP
00002B300000
0000BFE20000
0004F8CC1000
000CD01DB000
005F4003F900
00DB00006F70
06F2000009F9
0D80000000CA
2B1000000000
000000000000
000000000000
00018CB10000
000CFDF80000
007FA0EC0000
00EF20BE0000
03FB006F0000
07F6000B0000
0AF200000000
0CE000000000
0EB000000000
0F9000000000
1F7000000000
2F6000000094
2F60000003F6
1F60000008F4
0D9000000DF1
09D100005F90
04F90002ED10
00AFC8BFD200
0019EEC71000
ENDCHAR
STARTCHAR Cdotaccent
ENCODING 266
SWIDTH 487 0
DWIDTH 16 0
BBX 15 30 0 -1
BITMAP
0000001730000000
0000009F90000000
0000003710000000
0000000000000000
0000000000000000
0000000242000000
0000009FFF700000
000009FA5BF30000
00005F8000B60000
0000DD0000010000
0006F50000000000
000CD00000000000
002F700000000000
007F200000000000
00BD000000000000
00F9000000000000
04F5000000000000
07F1000000000000
0AE0000000000000
0CB0000000000320
0F90000000001FB0
1F70000000008F70
3F6000000003FD10
3F600000000CF300
1F80000000AF7000
0DC0000009F70000
08F40002CF600000
01EFB9BFD4000000
002BFFD710000000
0000020000000000
ENDCHAR
STARTCHAR cdotaccent
ENCODING 267
SWIDTH 390 0
DWIDTH 13 0
BBX 12 23 0 0
BITMAP
000033000000
0001FA000000
000073000000
000000000000
00019CB10000
001DFDF70000
008F90FB0000
01EE10CD0000
04FA007E0000
08F5001B0000
0BF100000000
0DD000000000
0EA000000000
1F8000000000
2F6000000000
3F50000000A4
3F50000004F5
2F50000009F3
0E8000000EE0
0AD000006F80
05F80003ED10
00BFB8BFD200
0019EEC70000
ENDCHAR
STARTCHAR Ccaron
ENCODING 268
SWIDTH 487 0
DWIDTH 16 0
BBX 15 31 0 -1
BITMAP
0038000000001000
001D8000000AF200
0003F50001BD3000
00006E301CC10000
00000AD4CA000000
000001DF70000000
0000001542000000
0000009FFF700000
000009FA5BF30000
00005F8000B60000
0000DD0000010000
0006F50000000000
000CD00000000000
002F700000000000
007F200000000000
00BD000000000000
00F9000000000000
04F5000000000000
07F1000000000000
0AE0000000000000
0CB0000000000320
0F90000000001FB0
1F70000000008F70
3F6000000003FD10
3F600000000CF300
1F80000000AF7000
0DC0000009F70000
08F40002CF600000
01EFB9BFD4000000
002BFFD710000000
0000020000000000
ENDCHAR
STARTCHAR ccaron
ENCODING 269
SWIDTH 390 0
DWIDTH 13 0
BBX 12 26 0 0
BITMAP
083000000010
07D1000004E8
00BB00005F71
001E8006E500
0004F68D3000
00008FC10000
000004000000
00018CB10000
000CFDF80000
007FA0EC0000
00EF20BE0000
03FB006F0000
07F6000B0000
0AF200000000
0CE000000000
0EB000000000
0F9000000000
1F7000000000
2F6000000094
2F60000003F6
1F60000008F4
0D9000000DF1
09D100005F90
04F90002ED10
00AFC8BFD200
0019EEC71000
ENDCHAR
STARTCHAR Dcaron
ENCODING 270
SWIDTH 554 0
DWIDTH 18 0
BBX 17 30 0 0
BITMAP
000083000000010000
00006E1000004E9000
00000AC00005E81000
000001D9006E500000
0000003F77E3000000
00000007FC20000000
000540003100000000
0009A0000000000000
002EFFFFDCA7400000
03DFFB888ACEFE7000
2EFFF10000004AFC10
281DF0000000005F90
000CF0000000000AE0
000BF00000000008F0
000AF00000000009C0
0009F1000000000D80
0008F1000000004F30
0007F200000000BC00
0005F300000005F500
0004F30000001EB000
0003F4000000CF3000
0002F4000009F70000
0001F500007FB00000
0000F50005FD100000
0000E6005FE2000000
0000D704FF40000000
0000C73EF500000000
000064DF6000000000
00000AF60000000000
00000D600000000000
ENDCHAR
STARTCHAR Emacron
ENCODING 274
SWIDTH 474 0
DWIDTH 15 0
BBX 14 28 1 0
BITMAP
000024689AB500
9CDFFFFFFFE600
79765432100000
00000000000000
00000000002300
69000005AEE500
DF3017EFE71000
9F78EFE7100000
7FFFE710000000
5FE71000000000
4F700000000000
2F700000000000
0F800000001000
0E9000001AB000
0EA00006ED2000
0DB005DF910000
0CB3BFA2000000
0BFFC300000000
0BFA0000000000
0BF40000000000
0BF400000006E8
0BF4000002CFA1
0BF400006ED400
0BF4002BFA1000
0BF417EE500000
0BFCEF91000000
0BFFC300000000
05940000000000
ENDCHAR
STARTCHAR emacron
ENCODING 275
SWIDTH 461 0
DWIDTH 15 0
BBX 15 24 -1 0
BITMAP
00000013568ABB10
002BCEFFFFFFED20
0028876543200000
0000000000000000
0000000000000000
0000000000000000
0000000000000000
0000006CEC500000
000009FFDFF90000
00004FE401CF4000
0000DF5001DF6000
0005FB003DF90000
000BF418FD500000
003FFCFF81000000
00AFFFA200000000
05FFD30000000240
3FFF700000001DE0
058F50000000AF90
004F40000006FD10
003F4000003EE300
002F400002EE3000
000E80005ED30000
0008FA9CFA100000
00009EFB40000000
ENDCHAR
STARTCHAR Ebreve
ENCODING 276
SWIDTH 474 0
DWIDTH 15 0
BBX 14 30 1 0
BITMAP
00030000066000
001F70005F9000
0008F826EF3000
0000AFFFF50000
000007DB300000
00000000000000
00000000002300
69000005AEE500
DF3017EFE71000
9F78EFE7100000
7FFFE710000000
5FE71000000000
4F700000000000
2F700000000000
0F800000001000
0E9000001AB000
0EA00006ED2000
0DB005DF910000
0CB3BFA2000000
0BFFC300000000
0BFA0000000000
0BF40000000000
0BF400000006E8
0BF4000002CFA1
0BF400006ED400
0BF4002BFA1000
0BF417EE500000
0BFCEF91000000
0BFFC300000000
05940000000000
ENDCHAR
STARTCHAR ebreve
ENCODING 277
SWIDTH 461 0
DWIDTH 15 0
BBX 15 24 -1 0
BITMAP
0000030000056000
00001F80004F9000
000008F826EF4000
000000AFFFF50000
00000007DB300000
0000000000000000
0000000000000000
0000006CEC500000
000009FFDFF90000
00004FE401CF4000
0000DF5001DF6000
0005FB003DF90000
000BF418FD500000
003FFCFF81000000
00AFFFA200000000
05FFD30000000240
3FFF700000001DE0
058F50000000AF90
004F40000006FD10
003F4000003EE300
002F400002EE3000
000E80005ED30000
0008FA9CFA100000
00009EFB40000000
ENDCHAR
STARTCHAR Edotaccent
ENCODING 278
SWIDTH 474 0
DWIDTH 15 0
BBX 14 26 1 0
BITMAP
00002720000000
0000CF60000000
00004700002300
69000005AEE500
DF3017EFE71000
9F78EFE7100000
7FFFE710000000
5FE71000000000
4F700000000000
2F700000000000
0F800000001000
0E9000001AB000
0EA00006ED2000
0DB005DF910000
0CB3BFA2000000
0BFFC300000000
0BFA0000000000
0BF40000000000
0BF400000006E8
0BF4000002CFA1
0BF400006ED400
0BF4002BFA1000
0BF417EE500000
0BFCEF91000000
0BFFC300000000
05940000000000
ENDCHAR
STARTCHAR edotaccent
ENCODING 279
SWIDTH 461 0
DWIDTH 15 0
BBX 15 20 -1 0
BITMAP
0000000173000000
0000000AF9000000
0000000371000000
0000006CEC500000
000009FFDFF90000
00004FE401CF4000
0000DF5001DF6000
0005FB003DF90000
000BF418FD500000
003FFCFF81000000
00AFFFA200000000
05FFD30000000240
3FFF700000001DE0
058F50000000AF90
004F40000006FD10
003F4000003EE300
002F400002EE3000
000E80005ED30000
0008FA9CFA100000
00009EFB40000000
ENDCHAR
STARTCHAR Eogonek
ENCODING 280
SWIDTH 474 0
DWIDTH 15 0
BBX 14 28 1 -4
BITMAP
00000000002300
69000005AEE500
DF3017EFE71000
9F78EFE7100000
7FFFE710000000
5FE71000000000
4F700000000000
2F700000000000
0F800000001000
0E9000001AB000
0EA00006ED2000
0DB005DF910000
0CB3BFA2000000
0BFFC300000000
0BFA0000000000
0BF40000000000
0BF400000006E8
0BF4000002BFA1
0BF400006ED400
0BF4001AFB1000
0BF417EF910000
0BFCEFFD000000
0BFFC9F6000000
059406F3000000
000004F70038A0
000000DFBDFFD0
0000002BFFE810
00000000010000
ENDCHAR
STARTCHAR eogonek
ENCODING 281
SWIDTH 461 0
DWIDTH 15 0
BBX 15 24 -1 -7
BITMAP
0000006CEC500000
000009FFDFF90000
00004FE401CF4000
0000DF5001DF6000
0005FB003DF90000
000BF418FD500000
003FFCFF81000000
00AFFFA200000000
05FFD30000000240
3FFF700000001DE0
058F50000000AF90
004F40000006FD10
003F4000003EE300
002F400002EE3000
000E80005ED30000
0008FA9CFA100000
00009EFFA0000000
000004FA00000000
00000AF200000000
00000CD000000000
00000CD000042000
000008F959EF8000
000001CFFFFB1000
0000000576300000
ENDCHAR
STARTCHAR Ecaron
ENCODING 282
SWIDTH 474 0
DWIDTH 15 0
BBX 14 30 1 0
BITMAP
29100000002000
0BA0000007F400
01E700009E5000
004F400AD20000
0008E4BB100000
0000CF90000000
00001300002300
69000005AEE500
DF3017EFE71000
9F78EFE7100000
7FFFE710000000
5FE71000000000
4F700000000000
2F700000000000
0F800000001000
0E9000001AB000
0EA00006ED2000
0DB005DF910000
0CB3BFA2000000
0BFFC300000000
0BFA0000000000
0BF40000000000
0BF400000006E8
0BF4000002CFA1
0BF400006ED400
0BF4002BFA1000
0BF417EE500000
0BFCEF91000000
0BFFC300000000
05940000000000
ENDCHAR
STARTCHAR ecaron
ENCODING 283
SWIDTH 461 0
DWIDTH 15 0
BBX 15 26 -1 0
BITMAP
0008300000001000
0006E1000004E900
0000AC00005E8100
00001D9006E50000
000003F77E300000
0000007FC2000000
0000000310000000
0000000000000000
0000000000000000
0000006CEC500000
000009FFDFF90000
00004FE401CF4000
0000DF5001DF6000
0005FB003DF90000
000BF418FD500000
003FFCFF81000000
00AFFFA200000000
05FFD30000000240
3FFF700000001DE0
058F50000000AF90
004F40000006FD10
003F4000003EE300
002F400002EE3000
000E80005ED30000
0008FA9CFA100000
00009EFB40000000
ENDCHAR
STARTCHAR Gcircumflex
ENCODING 284
SWIDTH 591 0
DWIDTH 19 0
BBX 19 34 0 -4
BITMAP
00000001B50000000000
00000009FE3000000000
0000002F9BE200000000
000000AE11CC10000000
000003F6002EB0000000
00000BC00004F9000000
00004F4000007FB00000
0000CA0000000AC00000
0001B200000000000000
00000000029CB2000000
000000007FFFA3000000
00000009FB6100000000
0000009F400000000000
000005F7000000000000
00002EB0000000000000
0000AE20000000000000
0004F700000000000000
000CD0000000147ACC30
004F5000004BFFFFF800
00BD0000019999CFB000
02F70000000000DF6000
07F10000000006FF3000
0CC0000000001EFF1000
1F8000000000BFFE0000
3F5000000009FEDD0000
5F400000009FD2CC0000
4FA000003CFC10DC0000
1EFC867BFF9000ED0000
02DFFFFFD40000ED0000
00048984000000EE0000
00000000000000EF0000
00000000000000CF2000
000000000000008F3000
00000000000000140000
ENDCHAR
STARTCHAR gcircumflex
ENCODING 285
SWIDTH 437 0
DWIDTH 14 0
BBX 13 44 0 -14
BITMAP
000005B1000000
00001EFB000000
00008F6E900000
0002F805F70000
0009E1008F5000
003F60000BE300
00AC000001DE50
03F40000002E60
06800000000000
00000000000000
00000000000000
00000000000000
00000002784000
0000009FFFF900
00000BFA4DFC00
00009F600DFE00
0005F7005FFF00
001EC000BBEF10
007F3003F6EF20
01EA000AF1DF40
06F4002FA0CF50
0BD0009F30BF60
1F8002FC00AF70
4F500AF4009F90
7F205FB0009FA0
7F53EF30008FB0
2FFFF700007FC0
08FF7000006FD0
00320000005FE0
00000000005FE0
00000000005FD0
00000000005FC0
00000000006FA0
00000000007F80
00000000009F40
0000000000CF10
0000000001FB00
0000000006F600
000000000DE100
000000008F7000
00000007FD0000
000004BFE30000
004DFFFD300000
00038961000000
ENDCHAR
STARTCHAR Gbreve
ENCODING 286
SWIDTH 591 0
DWIDTH 19 0
BBX 19 31 0 -4
BITMAP
00000012000018200000
0000007F2000AF300000
0000001DD42AFC000000
00000002EFFFD1000000
000000002AD810000000
00000000000000000000
00000000029CB2000000
000000007FFFA3000000
00000009FB6100000000
0000009F400000000000
000005F7000000000000
00002EB0000000000000
0000AE20000000000000
0004F700000000000000
000CD0000000147ACC30
004F5000004BFFFFF800
00BD0000019999CFB000
02F70000000000DF6000
07F10000000006FF3000
0CC0000000001EFF1000
1F8000000000BFFE0000
3F5000000009FEDD0000
5F400000009FD2CC0000
4FA000003CFC10DC0000
1EFC867BFF9000ED0000
02DFFFFFD40000ED0000
00048984000000EE0000
00000000000000EF0000
00000000000000CF2000
000000000000008F3000
00000000000000140000
ENDCHAR
STARTCHAR gbreve
ENCODING 287
SWIDTH 437 0
DWIDTH 14 0
BBX 13 40 0 -14
BITMAP
00012000018200
0007F2000AF300
0001DD42AFC000
00002EFFFD1000
000002AD810000
00000000000000
00000000000000
00000000000000
00000002784000
0000009FFFF900
00000BFA4DFC00
00009F600DFE00
0005F7005FFF00
001EC000BBEF10
007F3003F6EF20
01EA000AF1DF40
06F4002FA0CF50
0BD0009F30BF60
1F8002FC00AF70
4F500AF4009F90
7F205FB0009FA0
7F53EF30008FB0
2FFFF700007FC0
08FF7000006FD0
00320000005FE0
00000000005FE0
00000000005FD0
00000000005FC0
00000000006FA0
00000000007F80
00000000009F40
0000000000CF10
0000000001FB00
0000000006F600
000000000DE100
000000008F7000
00000007FD0000
000004BFE30000
004DFFFD300000
00038961000000
ENDCHAR
STARTCHAR Gdotaccent
ENCODING 288
SWIDTH 591 0
DWIDTH 19 0
BBX 18 30 1 -4
BITMAP
000000005600000000
00000004FE00000000
000000007400000000
000000000000000000
000000000000000000
0000000005AC900000
00000002CFFD800000
0000002DE930000000
000001DC1000000000
00000BE20000000000
00007F500000000000
0002EA000000000000
000AE2000000000000
003F70000000269BCA
00AD0000017DFFFFD4
02F70000059999EF50
08F10000000004FF10
0DA0000000000CFC00
3F60000000006FFA00
7F2000000003EFF800
9E000000002DFCF700
BD00000002DF94F600
AF4000006EF704F600
6FFA768DFE4005F700
06FFFFFFA10005F700
00168972000005F800
00000000000005F900
00000000000003FB00
00000000000000EC00
000000000000004100
ENDCHAR
STARTCHAR gdotaccent
ENCODING 289
SWIDTH 437 0
DWIDTH 14 0
BBX 13 36 0 -14
BITMAP
00000000650000
00000007FC0000
00000002720000
00000000000000
00000002784000
0000009FFFF900
00000BFA4DFC00
00009F600DFE00
0005F7005FFF00
001EC000BBEF10
007F3003F6EF20
01EA000AF1DF40
06F4002FA0CF50
0BD0009F30BF60
1F8002FC00AF70
4F500AF4009F90
7F205FB0009FA0
7F53EF30008FB0
2FFFF700007FC0
08FF7000006FD0
00320000005FE0
00000000005FE0
00000000005FD0
00000000005FC0
00000000006FA0
00000000007F80
00000000009F40
0000000000CF10
0000000001FB00
0000000006F600
000000000DE100
000000008F7000
00000007FD0000
000004BFE30000
004DFFFD300000
00038961000000
ENDCHAR
STARTCHAR Gcommaaccent
ENCODING 290
SWIDTH 591 0
DWIDTH 19 0
BBX 19 32 0 -11
BITMAP
00000000029CB2000000
000000007FFFA3000000
00000009FB6100000000
0000009F400000000000
000005F7000000000000
00002EB0000000000000
0000AE20000000000000
0004F700000000000000
000CD0000000147ACC30
004F5000004BFFFFF800
00BD0000019999CFB000
02F70000000000DF6000
07F10000000006FF3000
0CC0000000001EFF1000
1F8000000000BFFE0000
3F5000000009FEDD0000
5F400000009FD2CC0000
4FA000003CFC10DC0000
1EFC867BFF9000ED0000
02DFFFFFD40000ED0000
00048984000000EE0000
00000000000000EF0000
00000000000000CF2000
000000000000008F3000
000000007E2000140000
00000000DF6000000000
00000000AF7000000000
000000009F5000000000
000000009F2000000000
000000009D0000000000
00000000A90000000000
00000000310000000000
ENDCHAR
STARTCHAR Hcircumflex
ENCODING 292
SWIDTH 424 0
DWIDTH 14 0
BBX 13 33 0 0
BITMAP
00002B30000000
0000AFE2000000
0003F9BD100000
000BD01DB00000
004F5003FA0000
00CB00005F7000
05F3000008F900
0D90000000BB00
2B100000000000
00000000000000
00000000000000
02000000031000
0F8000001FA000
0F9000000DD000
0FA0000009F000
0EA0000006F100
0EB0000004F300
0DB0000004F400
0DC0000004F500
0CC0000007F700
0CD000000CF800
0BE000009FFA00
0BF0003BF9CB00
0AF35BFC30AD00
0AFEFD50009E00
09FF8100008F00
09F70000006F20
08F10000005F30
07E00000004F50
07F00000003F60
06F20000002F70
06F30000000F80
05E20000000A50
ENDCHAR
STARTCHAR hcircumflex
ENCODING 293
SWIDTH 466 0
DWIDTH 15 0
BBX 15 31 1 -1
BITMAP
00000007A0000000
0000002FF9000000
000000AE6F700000
000003F606F50000
00000BC000AE3000
00004F40000CE200
7400CA000002EE40
EA05F20000004F40
EA07700000000000
EB00000000000000
EB00000000000000
EB00000000000000
EC00000000000000
EC00000000000000
ED00000279950000
ED00008FFFFF7000
ED0008FFD54FC000
EE003FFD100ED000
EE00BFE2000EE000
EE02FF60000DE000
EF08FC00000DF000
EF0DF400000CF000
EF3FB000000CF000
EF9F4000000CF100
EFEC0000000BF100
EFF50000000BF100
EFD00000000AF200
EF600000000AF200
ED000000000AF200
730000000009F200
0000000000023000
ENDCHAR
STARTCHAR Hbar
ENCODING 294
SWIDTH 424 0
DWIDTH 14 0
BBX 13 22 0 0
BITMAP
02000000031000
0F8000001FA000
1F9000000DD000
0FA0000009F000
0FA0000006F100
0EB0000016F500
0EC68ACEFFFF00
6FFFEDCA9AF900
0DC0000006F700
0CD000000CF800
0BE000009FFA00
0BF0003BF9CB00
0AF35BFC30AD00
0AFEFD50009E00
09FF8100008F00
09F70000006F20
08F10000005F30
07E00000004F50
07F00000003F60
06F20000002F70
06F30000000F80
05E20000000A50
ENDCHAR
STARTCHAR hbar
ENCODING 295
SWIDTH 466 0
DWIDTH 15 0
BBX 17 25 -2 -1
BITMAP
000740000000000000
000EA0000000000000
000EA0000000000000
000EB0000000000000
000EB0000000000000
000EC0000000000000
000EC0024562000000
367FEDFFFFF9000000
CFEFEA987679995000
000ED00008FFFFF700
000ED0008FFD54FC00
000EE003FFD100ED00
000EE00BFE2000EE00
000EE02FF60000DE00
000EF08FC00000DF00
000EF0DF400000CF00
000EF3FB000000CF00
000EF9F4000000CF10
000EFEC0000000BF10
000EFF50000000BF10
000EFD00000000AF20
000EF600000000AF20
000ED000000000AF20
000730000000009F20
000000000000002300
ENDCHAR
STARTCHAR Itilde
ENCODING 296
SWIDTH 153 0
DWIDTH 5 0
BBX 13 32 -4 0
BITMAP
005BCB50000420
08FCAFF2008FA0
2FD107F803FF50
4F6001DF9EF800
0400003EFE6000
00000001420000
00000000000000
00000000000000
000003C3000000
000003F6000000
000001F7000000
000000F9000000
000000EA000000
000000DB000000
000000DB000000
000000DC000000
000000CC000000
000000CD000000
000000CD000000
000000BD000000
000000BE000000
000000BE000000
000000AE000000
000000AE000000
000000AE000000
000000AF000000
0000009F000000
0000009F000000
0000009F000000
0000008F000000
0000008F000000
0000004B000000
ENDCHAR
STARTCHAR itilde
ENCODING 297
SWIDTH 132 0
DWIDTH 4 0
BBX 13 27 -4 -1
BITMAP
00012000000000
05DFFD30005910
5FD59FB004FF20
BF400DF31DF900
AB0004FEEFA000
0000005DE70000
00000000000000
00000210000000
00000BD0000000
00000DE0000000
00000EE0000000
00000ED0000000
00000FD0000000
00000ED0000000
00000ED0000000
00000ED0000000
00000ED0000000
00000DD0000000
00000DD0000000
00000CD0000000
00000CD0000000
00000BD0000000
00000BD0000000
00000BD0000000
00000BD0000000
00000AD0000000
00000120000000
ENDCHAR
STARTCHAR imacron
ENCODING 299
SWIDTH 132 0
DWIDTH 4 0
BBX 12 25 -4 -1
BITMAP
000013579AB9
5BDEFFFFFFEC
498765321000
000000000000
000000000000
000002100000
00000BD00000
00000DE00000
00000EE00000
00000ED00000
00000FD00000
00000ED00000
00000ED00000
00000ED00000
00000ED00000
00000DD00000
00000DD00000
00000CD00000
00000CD00000
00000BD00000
00000BD00000
00000BD00000
00000BD00000
00000AD00000
000001200000
ENDCHAR
STARTCHAR Ibreve
ENCODING 300
SWIDTH 153 0
DWIDTH 5 0
BBX 9 31 -2 0
BITMAP
0300000560
1F80004F90
08F826EF40
00AFFFF500
0007DB3000
0000000000
0000000000
0003C30000
0003F60000
0001F70000
0000F90000
0000EA0000
0000DB0000
0000DB0000
0000DC0000
0000CC0000
0000CD0000
0000CD0000
0000BD0000
0000BE0000
0000BE0000
0000AE0000
0000AE0000
0000AE0000
0000AF0000
00009F0000
00009F0000
00009F0000
00008F0000
00008F0000
00004B0000
ENDCHAR
STARTCHAR ibreve
ENCODING 301
SWIDTH 132 0
DWIDTH 4 0
BBX 9 27 -2 -1
BITMAP
0000000210
3B10004F60
2EB102EF30
05FEBFF700
006EFE6000
0001410000
0000000000
0002100000
000BD00000
000DE00000
000EE00000
000ED00000
000FD00000
000ED00000
000ED00000
000ED00000
000ED00000
000DD00000
000DD00000
000CD00000
000CD00000
000BD00000
000BD00000
000BD00000
000BD00000
000AD00000
0001200000
ENDCHAR
STARTCHAR Iogonek
ENCODING 302
SWIDTH 153 0
DWIDTH 5 0
BBX 8 31 0 -7
BITMAP
03C30000
03F60000
01F70000
00F90000
00EA0000
00DB0000
00DB0000
00DC0000
00CC0000
00CD0000
00CD0000
00BD0000
00BE0000
00BE0000
00AE0000
00AE0000
00AE0000
00AF0000
00AF0000
009F0000
009F0000
009F0000
01BF3000
0AFB0000
3FB00000
8F300000
AF000000
9F200275
3FD8BFFA
06FFFF91
00133100
ENDCHAR
STARTCHAR iogonek
ENCODING 303
SWIDTH 132 0
DWIDTH 4 0
BBX 8 32 -1 -8
BITMAP
02910000
04F40000
00300000
00000000
00000000
00210000
00BD0000
00DE0000
00EE0000
00ED0000
00FD0000
00ED0000
00ED0000
00ED0000
00ED0000
00DD0000
00DD0000
00CD0000
00CD0000
00BD0000
00BD0000
00BD0000
00BD0000
01DF1000
0BF80000
5F900000
AF200000
CD000000
BE000263
6FB7BFF8
0AFFFF91
00254100
ENDCHAR
STARTCHAR Idotaccent
ENCODING 304
SWIDTH 153 0
DWIDTH 5 0
BBX 3 29 1 0
BITMAP
1730
9F90
3710
0000
0000
8B00
8F10
6F20
5F30
4F40
4F50
3F60
3F70
2F70
2F70
2F80
1F80
1F80
1F90
1F90
0F90
0F90
0F90
0FA0
0EA0
0EA0
0EA0
0DA0
0870
ENDCHAR
STARTCHAR dotlessi
ENCODING 305
SWIDTH 132 0
DWIDTH 4 0
BBX 2 20 1 -1
BITMAP
21
BD
DE
EE
ED
FD
ED
ED
ED
ED
DD
DD
CD
CD
BD
BD
BD
BD
AD
12
ENDCHAR
STARTCHAR Jcircumflex
ENCODING 308
SWIDTH 371 0
DWIDTH 12 0
BBX 14 34 0 -2
BITMAP
0000007A000000
000002FF900000
00000AE6F70000
00003F606F5000
0000BC000AE300
0004F40000CE20
000CA000002EE4
005F20000004F4
00770000000000
00000004900000
00000007E00000
00000006F10000
00000005F40000
00000004F60000
00000003F80000
00000001FB0000
00000000ED0000
00000000CF0000
00000000AF2000
000000008F4000
000000006F6000
000000004F7000
000000003F9000
000000001FA000
000000000EB000
000000000DB000
000000000CC000
610000000BC000
770000000BC000
4E1000000BB000
0C9000000CA000
03F700002F6000
005EA425DC0000
00029EFE910000
ENDCHAR
STARTCHAR jcircumflex
ENCODING 309
SWIDTH 112 0
DWIDTH 4 0
BBX 14 41 -6 -11
BITMAP
00000089000000
000004FF800000
00000CD7F60000
00005F508F4000
0000CB000BE200
0006F30001DD10
000D9000003ED3
007E10000005F3
00860000000010
00000000000000
00000000000000
00000000000000
00000000000000
00000005200000
0000001F800000
0000001F800000
0000001F800000
0000002F800000
0000002F800000
0000001F800000
0000001F900000
0000000FA00000
0000000EB00000
0000000DC00000
0000000CE00000
0000000BF00000
0000000AF10000
00000008F20000
00000007F30000
00000007F40000
00000006F40000
00000005F50000
00000004F50000
00000004F50000
00000006F40000
00000008F20000
6900000BE00000
3FA0002FA00000
05FB10BF400000
003CEDFB000000
00005AB2000000
ENDCHAR
STARTCHAR Kcommaaccent
ENCODING 310
SWIDTH 524 0
DWIDTH 17 0
BBX 17 33 0 -11
BITMAP
073000000000000000
1FB000000001100000
0CD00000004E500000
09F0000003EB000000
06F200001DE2000000
05F30000AF60000000
03F50004FB00000000
02F7001DE200000000
00F8008F5000000000
00EA03F90000000000
00DC0CD10000000000
00CD6F400000000000
00AFEC000000000000
009FF5000000000000
008FF1000000000000
006FD3000000000000
005FFFFEEDDCCCCC70
003FC9999999999920
001F90000000000000
000DC0000000000000
000AD0000000000000
000480000000000000
000000000000000000
000000000000000000
000000000000000000
00000008D100000000
0000000EF500000000
0000000BF500000000
0000000AF300000000
0000000AF100000000
0000000BC000000000
0000000B8000000000
000000030000000000
ENDCHAR
STARTCHAR kcommaaccent
ENCODING 311
SWIDTH 428 0
DWIDTH 14 0
BBX 13 36 0 -11
BITMAP
00610000000000
05F50000000000
05F80000000000
06F80000000000
06F90000000000
07F80000000000
07F800000008A0
08F70000007FD0
08F6000002FF50
09F500000CFC00
09F400007FF400
0AF30002EFA000
0BF2000CFE1000
0BF1007FF50000
0CF103FF800000
0CF01DFA000000
0DF2CFC1000000
0DFDFB10000000
0EFFA000000000
0EFF4000000000
0FFFF820000000
1FC4AFFB620000
1FB0027DFFDA60
2F9000005BFFA0
2F600000002740
2E100000000000
01000000000000
00000000000000
000003D7000000
000007FC000000
000004FC000000
000003FA000000
000003F7000000
000004F4000000
000004F0000000
00000220000000
ENDCHAR
STARTCHAR Lacute
ENCODING 313
SWIDTH 537 0
DWIDTH 17 0
BBX 17 24 0 0
BITMAP
000000000010000000
0000000007F1000000
000000007FD0000000
00000004FE30000000
1EE10008E300000000
1FF200001000000000
0FF300000000000000
0EF300000000000000
0DF400000000000000
0CF400000000000000
0CF500000000000000
0BF500000000000000
0BF600000000000000
0AF600000000000000
0AF700000000000000
09F700000000000000
09F800000000000120
09F800000000029FD0
08F900000004BFEA50
08F9000005CFD61000
08FA0006DFE6000000
07FB38EFE710000000
07FFFFE71000000000
05FDA6100000000000
ENDCHAR
STARTCHAR lacute
ENCODING 314
SWIDTH 137 0
DWIDTH 4 0
BBX 5 36 0 0
BITMAP
000100
008F10
08FD00
5FE200
9D2000
010000
000000
000000
020000
3F4000
1F6000
0F7000
0D8000
0BA000
0AB000
09C000
08D000
07E000
06F000
05F000
05F100
04F200
04F200
03F300
03F300
03F400
03F400
03F500
03F500
03F600
03F600
04F600
05F700
06F700
07F700
005200
ENDCHAR
STARTCHAR Lcommaaccent
ENCODING 315
SWIDTH 537 0
DWIDTH 17 0
BBX 17 31 0 -11
BITMAP
1EE100000000000000
1FF200000000000000
0FF300000000000000
0EF300000000000000
0DF400000000000000
0CF400000000000000
0CF500000000000000
0BF500000000000000
0BF600000000000000
0AF600000000000000
0AF700000000000000
09F700000000000000
09F800000000000120
09F800000000029FD0
08F900000004BFEA50
08F9000005CFD61000
08FA0006DFE6000000
07FB38EFE710000000
07FFFFE71000000000
05FDA6100000000000
000000000000000000
000000000000000000
000000000000000000
00000006E300000000
0000000BF800000000
00000008F800000000
00000007F700000000
00000007F400000000
00000008F000000000
00000008B000000000
000000021000000000
ENDCHAR
STARTCHAR lcommaaccent
ENCODING 316
SWIDTH 137 0
DWIDTH 4 0
BBX 4 39 0 -11
BITMAP
0200
3F40
1F60
0F70
0D80
0BA0
0AB0
09C0
08D0
07E0
06F0
05F0
05F1
04F2
04F2
03F3
03F3
03F4
03F4
03F5
03F5
03F6
03F6
04F6
05F7
06F7
07F7
0052
0000
0000
0000
0AC0
1FF3
0DF3
0CF1
0CD0
0DA0
0D60
0300
ENDCHAR
STARTCHAR Lcaron
ENCODING 317
SWIDTH 537 0
DWIDTH 17 0
BBX 17 30 0 0
BITMAP
029100000002000000
00BA0000007F400000
001E700009E5000000
0004F400AD20000000
00008E4BB100000000
00000CF90000000000
000001300000000000
000000000000000000
000000000000000000
000000000000000000
1EE100000000000000
1FF200000000000000
0FF300000000000000
0EF300000000000000
0DF400000000000000
0CF400000000000000
0CF500000000000000
0BF500000000000000
0BF600000000000000
0AF600000000000000
0AF700000000000000
09F700000000000000
09F800000000000120
09F800000000029FD0
08F900000004BFEA50
08F9000005CFD61000
08FA0006DFE6000000
07FB38EFE710000000
07FFFFE71000000000
05FDA6100000000000
ENDCHAR
STARTCHAR Ldot
ENCODING 319
SWIDTH 537 0
DWIDTH 17 0
BBX 17 20 0 0
BITMAP
1EE100000000000000
1FF200000000000000
0FF300000000000000
0EF300000000000000
0DF400000000000000
0CF400000000000000
0CF500000000000000
0BF500000000000000
0BF600000000000000
0AF600000000000000
0AF700000000000000
09F70004FC00000000
09F80005E700000120
09F800000000029FD0
08F900000004BFEA50
08F9000005CFD61000
08FA0006DFE6000000
07FB38EFE710000000
07FFFFE71000000000
05FDA6100000000000
ENDCHAR
STARTCHAR ldot
ENCODING 320
SWIDTH 267 0
DWIDTH 9 0
BBX 8 28 0 0
BITMAP
02000000
3F400000
1F600000
0F700000
0D800000
0BA00000
0AB00000
09C00000
08D00000
07E00000
06F00000
05F00000
05F10000
04F20000
04F20000
03F30000
03F30000
03F40000
03F40010
03F50AF5
03F50BD2
03F60000
03F60000
04F60000
05F70000
06F70000
07F70000
00520000
ENDCHAR
STARTCHAR Lslash
ENCODING 321
SWIDTH 537 0
DWIDTH 17 0
BBX 18 20 -1 0
BITMAP
01EE10000000000000
01FF20000000000000
00FF30000000000000
00EF30000000000000
00DF40000000000000
00CF40000000000000
00CF50000000000000
00BF50000000000000
00BF60000000000000
00AF60016AD6000000
00AF73AEFFF6000000
00AFEFFE9510000000
ADFFD8400000000012
88CF800000000029FD
008F900000004BFEA5
008F9000005CFD6100
008FA0006DFE600000
007FB38EFE71000000
007FFFFE7100000000
005FDA610000000000
ENDCHAR
STARTCHAR lslash
ENCODING 322
SWIDTH 137 0
DWIDTH 4 0
BBX 13 28 -4 0
BITMAP
00000200000000
00003F40000000
00001F60000000
00000F70000000
00000D80000000
00000BA0000000
00000AB0000000
000009C0000000
000008D0000000
000007E0000000
000006F0000000
000005F0000000
000005F1000000
000004F2000000
000004F2000000
000004F3000000
000003F3000000
000003F4014500
000003F9BFFF10
000029FFFEA600
147BFFFB400000
7FFC86F6000000
010003F6000000
000004F7000000
000005F7000000
000006F7000000
000007F7000000
00000052000000
ENDCHAR
STARTCHAR Nacute
ENCODING 323
SWIDTH 541 0
DWIDTH 17 0
BBX 16 28 1 0
BITMAP
0000000100000000
0000006F30000000
000006FE10000000
00003FF400016000
00007E400006F500
000001000003FA00
000000000000FC00
810000000000DE00
FE3000000000CF00
EFE200000000BF00
DFFC00000000AF00
BFFF800000009F10
9F8EF40000008F10
7F44FE2000008F20
6F506FB000007F20
4F600AF800007F20
2F7000CF40006F30
1F90002EE1006F30
0EB00004FB007F40
0CC000007F707F40
0AF000000AF48F40
09F2000001CDAF50
07F40000002EFF60
05F600000005FF90
04F8000000008FE0
02F8000000005FF1
02F9000000001640
00C5000000000000
ENDCHAR
STARTCHAR nacute
ENCODING 324
SWIDTH 483 0
DWIDTH 15 0
BBX 14 25 1 0
BITMAP
00000001100000
0000002D900000
000001DF600000
00000BFA000000
00001F90000000
00000100000000
51000000494000
F600001AFFF300
F90000CFEDFB00
EB0007FE208F20
DD001EF5001F70
CF005FC0000FA0
BF20AF60000EC0
AF40EE10000DE0
9F52FA00000CF1
8F76F500000CF1
7F89E100000BF2
6FADB000000AF3
5FDF70000009F3
4FFF30000008F4
3FFE00000007F4
1FFB00000006F4
0FF800000005F4
0EF600000004F3
0CC10000000030
ENDCHAR
STARTCHAR Ncommaaccent
ENCODING 325
SWIDTH 541 0
DWIDTH 17 0
BBX 16 36 1 -11
BITMAP
0000000000016000
000000000006F500
000000000003FA00
000000000000FC00
810000000000DE00
FE3000000000CF00
EFE200000000BF00
DFFC00000000AF00
BFFF800000009F10
9F8EF40000008F10
7F44FE2000008F20
6F506FB000007F20
4F600AF800007F20
2F7000CF40006F30
1F90002EE1006F30
0EB00004FB007F40
0CC000007F707F40
0AF000000AF48F40
09F2000001CDAF50
07F40000002EFF60
05F600000005FF90
04F8000000008FE0
02F8000000005FF1
02F9000000001640
00C5000000000000
0000000000000000
0000000000000000
0000000000000000
0000005E40000000
000000BF90000000
0000008F90000000
0000006F70000000
0000007F40000000
0000007F10000000
0000008C00000000
0000002100000000
ENDCHAR
STARTCHAR ncommaaccent
ENCODING 326
SWIDTH 483 0
DWIDTH 15 0
BBX 14 30 1 -11
BITMAP
51000000494000
F600001AFFF300
F90000CFEDFB00
EB0007FE208F20
DD001EF5001F70
CF005FC0000FA0
BF20AF60000EC0
AF40EE10000DE0
9F52FA00000CF1
8F76F500000CF1
7F89E100000BF2
6FADB000000AF3
5FDF70000009F3
4FFF30000008F4
3FFE00000007F4
1FFB00000006F4
0FF800000005F4
0EF600000004F3
0CC10000000030
00000000000000
00000000000000
00000000000000
000004D5000000
000009FA000000
000006FA000000
000005F8000000
000005F5000000
000006F2000000
000006D0000000
00000210000000
ENDCHAR
STARTCHAR Ncaron
ENCODING 327
SWIDTH 541 0
DWIDTH 17 0
BBX 16 29 1 0
BITMAP
0092000000010000
008D1000005F8000
000BA00006F70000
0002E8007E400000
00005F68D3016000
000008FB1006F500
000000400003FA00
000000000000FC00
810000000000DE00
FE3000000000CF00
EFE200000000BF00
DFFC00000000AF00
BFFF800000009F10
9F8EF40000008F10
7F44FE2000008F20
6F506FB000007F20
4F600AF800007F20
2F7000CF40006F30
1F90002EE1006F30
0EB00004FB007F40
0CC000007F707F40
0AF000000AF48F40
09F2000001CDAF50
07F40000002EFF60
05F600000005FF90
04F8000000008FE0
02F8000000005FF1
02F9000000001640
00C5000000000000
ENDCHAR
STARTCHAR ncaron
ENCODING 328
SWIDTH 483 0
DWIDTH 15 0
BBX 14 26 1 0
BITMAP
05600000000100
02E5000001CE00
005E30002CC200
0009D102DA0000
0001CB4E700000
00002EE5000000
00000220000000
51000000494000
F600001AFFF300
F90000CFEDFB00
EB0007FE208F20
DD001EF5001F70
CF005FC0000FA0
BF20AF60000EC0
AF40EE10000DE0
9F52FA00000CF1
8F76F500000CF1
7F89E100000BF2
6FADB000000AF3
5FDF70000009F3
4FFF30000008F4
3FFE00000007F4
1FFB00000006F4
0FF800000005F4
0EF600000004F3
0CC10000000030
ENDCHAR
STARTCHAR napostrophe
ENCODING 329
SWIDTH 483 0
DWIDTH 15 0
BBX 14 28 1 0
BITMAP
000BB000000000
003FF100000000
001EF200000000
000DF000000000
000EC000000000
000E9000000000
000F5000000000
00030000000000
00000000000000
51000000494000
F600001AFFF300
F90000CFEDFB00
EB0007FE208F20
DD001EF5001F70
CF005FC0000FA0
BF20AF60000EC0
AF40EE10000DE0
9F52FA00000CF1
8F76F500000CF1
7F89E100000BF2
6FADB000000AF3
5FDF70000009F3
4FFF30000008F4
3FFE00000007F4
1FFB00000006F4
0FF800000005F4
0EF600000004F3
0CC10000000030
ENDCHAR
STARTCHAR Omacron
ENCODING 332
SWIDTH 382 0
DWIDTH 12 0
BBX 14 26 0 0
BITMAP
00000024689AB4
009CDFFFFFFFE6
00887654321000
00000000000000
00000167400000
00003DFFF90000
0001EFC9DF8000
000AF7001DF200
003F900006F600
009F300003F900
00ED000001FB00
04F9000000EC00
08F4000000EC00
0CF1000000FC00
0EC0000001FB00
2F90000003F900
4F60000006F700
6F40000009F400
7F3000000DF100
8F2000003FB000
6F3000009F6000
4F600002ED0000
1FA0000BF50000
0AF823BF900000
02EFFFFA000000
003CFB50000000
ENDCHAR
STARTCHAR omacron
ENCODING 333
SWIDTH 266 0
DWIDTH 9 0
BBX 13 24 -2 0
BITMAP
000013578ABB00
3BDEFFFFFFED10
38876543200000
00000000000000
00000000000000
00000000000000
00001881000000
0000CFFC100000
0002FEBE900000
0005F402F30000
0009C000C90000
000C9000AC0000
000F70009E0000
002F60009E0000
004F6000AE0000
005F5000BE0000
006F5000DD0000
006F5001FA0000
005F6004F80000
004F6009F30000
003F601EC00000
002FA2BF400000
000EFFF7000000
0006EB40000000
ENDCHAR
STARTCHAR Obreve
ENCODING 334
SWIDTH 382 0
DWIDTH 12 0
BBX 12 28 0 0
BITMAP
001200001910
008E1000BF20
002ED42BFB00
0003EFFFC100
00003BD81000
000000000000
000001674000
00003DFFF900
0001EFC9DF80
000AF7001DF2
003F900006F6
009F300003F9
00ED000001FB
04F9000000EC
08F4000000EC
0CF1000000FC
0EC0000001FB
2F90000003F9
4F60000006F7
6F40000009F4
7F3000000DF1
8F2000003FB0
6F3000009F60
4F600002ED00
1FA0000BF500
0AF823BF9000
02EFFFFA0000
003CFB500000
ENDCHAR
STARTCHAR obreve
ENCODING 335
SWIDTH 266 0
DWIDTH 9 0
BBX 9 24 0 0
BITMAP
0300000650
2F70005F80
09F726FF30
00BFFFF500
0008DB3000
0000000000
0018810000
00CFFC1000
02FEBE9000
05F402F300
09C000C900
0C9000AC00
0F70009E00
2F60009E00
4F6000AE00
5F5000BE00
6F5000DD00
6F5001FA00
5F6004F800
4F6009F300
3F601EC000
2FA2BF4000
0EFFF70000
06EB400000
ENDCHAR
STARTCHAR Ohungarumlaut
ENCODING 336
SWIDTH 382 0
DWIDTH 12 0
BBX 13 28 0 0
BITMAP
00000000830000
0000000AF62D60
000000AFC2DF50
000003FC2CF900
000001813F9000
00000000030000
00000167400000
00003DFFF90000
0001EFC9DF8000
000AF7001DF200
003F900006F600
009F300003F900
00ED000001FB00
04F9000000EC00
08F4000000EC00
0CF1000000FC00
0EC0000001FB00
2F90000003F900
4F60000006F700
6F40000009F400
7F3000000DF100
8F2000003FB000
6F3000009F6000
4F600002ED0000
1FA0000BF50000
0AF823BF900000
02EFFFFA000000
003CFB50000000
ENDCHAR
STARTCHAR ohungarumlaut
ENCODING 337
SWIDTH 266 0
DWIDTH 9 0
BBX 9 24 0 0
BITMAP
0002900000
002DF14E10
01DF85FE10
08F93FF500
04708F5000
0000120000
0018810000
00CFFC1000
02FEBE9000
05F402F300
09C000C900
0C9000AC00
0F70009E00
2F60009E00
4F6000AE00
5F5000BE00
6F5000DD00
6F5001FA00
5F6004F800
4F6009F300
3F601EC000
2FA2BF4000
0EFFF70000
06EB400000
ENDCHAR
STARTCHAR OE
ENCODING 338
SWIDTH 732 0
DWIDTH 23 0
BBX 23 24 0 -1
BITMAP
0000000000400000027AA000
0000016848F40006CFE81000
00003DFFFEF917EFE8100000
0001EFC9DFFDEFE810000000
000AF7001DFFE81000000000
003F900006FC100000000000
009F300003FA000000000000
00ED000001FB000000000000
04F9000000EC000000290000
08F4000000ED000006DB0000
0CF1000000FE0004CF800000
0EC0000001FF02AFB3000000
2F90000003FF9FC400000000
4F60000006FFF70000000000
6F40000009FF900000000000
7F3000000DFF800000000560
8F2000003FFF80000003CF90
6F3000009FCF8000007FD400
4F600002ED7F80002BF91000
1FA0000BF57F8006ED400000
0AF823BF907FA6DF91000000
02EFFFFA007FFFC300000000
003CFB50006FC60000000000
000000000001000000000000
ENDCHAR
STARTCHAR oe
ENCODING 339
SWIDTH 628 0
DWIDTH 20 0
BBX 21 18 0 0
BITMAP
0018810000002420000000
00CFFC10001AFFFC200000
02FEBE9000CFD79FD20000
05F402F306FD1009F70000
09C000C90DF3003EF50000
0C9000AC6F9006FE400000
0F70009ECF56DFA1000000
2F60009FFFFFC300000000
4F6000AFFFD50000000000
5F5000BFFC100000005A10
6F5000DFF800000002EE00
6F5000FEF60000000CF800
5F6004FAF60000008FC000
4F6009F5F5000006FC1000
3F601ED0F600005FC10000
2FA2BF50BC1029FA100000
0EFFF8003FFFFD50000000
06EC500002896100000000
ENDCHAR
STARTCHAR Racute
ENCODING 340
SWIDTH 503 0
DWIDTH 16 0
BBX 15 31 1 0
BITMAP
0000000001000000
000000006F200000
00000006FE100000
0000003FF4000000
0000007E40000000
4300000100000000
BF50001688520000
BF503AFFFFFFB300
BF79FEA6435BFE20
BFFD61000000DF40
BFB100000002EC00
BF400000002DC100
BF30000005EB1000
BF100002BF700000
BF00018FB2000000
BE007EE600000000
BD6DFA1000000000
BFFE500000000000
BFC1000000000000
BFD6000000000000
BFFFD60000000000
BB5BFFD600000000
BB003BFFD5000000
BB00003BFFC50000
BB0000003AFFD600
BB0000000029FFC0
BB00000000002960
AB00000000000000
AB00000000000000
AB00000000000000
6600000000000000
ENDCHAR
STARTCHAR racute
ENCODING 341
SWIDTH 396 0
DWIDTH 13 0
BBX 12 24 0 0
BITMAP
000000001000
0000000AC000
000000BFA000
000008FC1000
00000CC10000
000001000000
000000000000
000000002331
1C50005DFFFC
2F8005FFCA85
0EA00EF70000
0CC05FA00000
0AE09F400000
07F1CF100000
05F3DD000000
03F5EB000000
00F7FA000000
00DAF9000000
00BDF8000000
008FF7000000
006FF6000000
004FF5000000
001FF3000000
000AC1000000
ENDCHAR
STARTCHAR Rcommaaccent
ENCODING 342
SWIDTH 503 0
DWIDTH 16 0
BBX 15 37 1 -11
BITMAP
4300000000000000
BF50001688520000
BF503AFFFFFFB300
BF79FEA6435BFE20
BFFD61000000DF40
BFB100000002EC00
BF400000002DC100
BF30000005EB1000
BF100002BF700000
BF00018FB2000000
BE007EE600000000
BD6DFA1000000000
BFFE500000000000
BFC1000000000000
BFD6000000000000
BFFFD60000000000
BB5BFFD600000000
BB003BFFD5000000
BB00003BFFC50000
BB0000003AFFD600
BB0000000029FFC0
BB00000000002960
AB00000000000000
AB00000000000000
AB00000000000000
6600000000000000
0000000000000000
0000000000000000
0000000000000000
000001CA00000000
000004FF00000000
000001FF00000000
000000FE00000000
000000FB00000000
000000F700000000
000001F300000000
0000013000000000
ENDCHAR
STARTCHAR rcommaaccent
ENCODING 343
SWIDTH 396 0
DWIDTH 13 0
BBX 12 28 0 -11
BITMAP
000000002331
1C50005DFFFC
2F8005FFCA85
0EA00EF70000
0CC05FA00000
0AE09F400000
07F1CF100000
05F3DD000000
03F5EB000000
00F7FA000000
00DAF9000000
00BDF8000000
008FF7000000
006FF6000000
004FF5000000
001FF3000000
000AC1000000
000000000000
000000000000
000000000000
000008D10000
00000EF50000
00000BF60000
00000AF40000
00000AF10000
00000AC00000
00000B800000
000003000000
ENDCHAR
STARTCHAR Rcaron
ENCODING 344
SWIDTH 503 0
DWIDTH 16 0
BBX 15 33 1 0
BITMAP
0056000000011000
003E4000001CD000
0006E20002DB2000
0000AD103E900000
00001DA5E6000000
000003FE40000000
0000002200000000
4300000000000000
BF50001688520000
BF503AFFFFFFB300
BF79FEA6435BFE20
BFFD61000000DF40
BFB100000002EC00
BF400000002DC100
BF30000005EB1000
BF100002BF700000
BF00018FB2000000
BE007EE600000000
BD6DFA1000000000
BFFE500000000000
BFC1000000000000
BFD6000000000000
BFFFD60000000000
BB5BFFD600000000
BB003BFFD5000000
BB00003BFFC50000
BB0000003AFFD600
BB0000000029FFC0
BB00000000002960
AB00000000000000
AB00000000000000
AB00000000000000
6600000000000000
ENDCHAR
STARTCHAR rcaron
ENCODING 345
SWIDTH 396 0
DWIDTH 13 0
BBX 12 26 0 0
BITMAP
083000000010
06E1000004E9
00AC00005E81
001D9006E500
0003F77E3000
00007FC20000
000003100000
000000000000
000000000000
000000002331
1C50005DFFFC
2F8005FFCA85
0EA00EF70000
0CC05FA00000
0AE09F400000
07F1CF100000
05F3DD000000
03F5EB000000
00F7FA000000
00DAF9000000
00BDF8000000
008FF7000000
006FF6000000
004FF5000000
001FF3000000
000AC1000000
ENDCHAR
STARTCHAR Sacute
ENCODING 346
SWIDTH 541 0
DWIDTH 17 0
BBX 17 29 0 0
BITMAP
000000000010000000
000000000AD0000000
00000000AFB0000000
00000007FD10000000
0000000BC100000000
000000011023300000
000000028DFFF20000
0000008FC7CFD10000
00002CE50003000000
0003ED200000000000
003EC1000000000000
01DE20000000000000
09F400000000000000
2FB000000000000000
7F4000000000000000
9F1000000000000000
8F2000000000000000
3F9000000000000000
07FB40000000000000
003AFFCA8754200000
00001479BDFFFFB400
00000000000147DF30
000000000000006F70
00000000000006EE20
000000000005DFC200
0000000049EFC50000
000016BEFFA4000000
0002EFEA5100000000
000153000000000000
ENDCHAR
STARTCHAR sacute
ENCODING 347
SWIDTH 366 0
DWIDTH 12 0
BBX 12 25 0 -1
BITMAP
000000010000
0000004E5000
000004EF3000
00001EF70000
00004F600000
000001000000
000000000000
000000011000
000018DFF800
0004ED88C400
005FB1000000
02ED10000000
09F400000000
0EC000000000
2F7000000000
3F700049CC30
1FEABEFFFFE1
08FFFA5239F4
0024100009F3
000000006FA0
00000007FD10
000001AFE200
00003DFD2000
0007FFA10000
0006A5000000
ENDCHAR
STARTCHAR Scircumflex
ENCODING 348
SWIDTH 541 0
DWIDTH 17 0
BBX 17 33 0 0
BITMAP
00000002B400000000
0000000AFE20000000
0000003F9BD1000000
000000BD01DC000000
000004F5003EA00000
00000CB00005F80000
00005F3000008FA000
0000D90000000BB000
0001B1000000000000
000000000023300000
000000028DFFF20000
0000008FC7CFD10000
00002CE50003000000
0003ED200000000000
003EC1000000000000
01DE20000000000000
09F400000000000000
2FB000000000000000
7F4000000000000000
9F1000000000000000
8F2000000000000000
3F9000000000000000
07FB40000000000000
003AFFCA8754200000
00001479BDFFFFB400
00000000000147DF30
000000000000006F70
00000000000006EE20
000000000005DFC200
0000000049EFC50000
000016BEFFA4000000
0002EFEA5100000000
000153000000000000
ENDCHAR
STARTCHAR scircumflex
ENCODING 349
SWIDTH 366 0
DWIDTH 12 0
BBX 12 27 0 -1
BITMAP
00002B300000
0000BFE20000
0004F8CC1000
000CD01DB000
005F4003F900
00DB00006F70
06F2000009F9
0D80000000CA
2B1000000000
000000011000
000018DFF800
0004ED88C400
005FB1000000
02ED10000000
09F400000000
0EC000000000
2F7000000000
3F700049CC30
1FEABEFFFFE1
08FFFA5239F4
0024100009F3
000000006FA0
00000007FD10
000001AFE200
00003DFD2000
0007FFA10000
0006A5000000
ENDCHAR
STARTCHAR Scedilla
ENCODING 350
SWIDTH 541 0
DWIDTH 17 0
BBX 18 33 0 -9
BITMAP
000000000023300000
000000028DFFF20000
0000008FC7CFD10000
00002CE50003000000
0003ED200000000000
003EC1000000000000
01DE20000000000000
09F400000000000000
2FB000000000000000
7F4000000000000000
9F1000000000000000
8F2000000000000000
3F9000000000000000
07FB40000000000000
003AFFCA8754200000
00001479BDFFFFB400
00000000000147DF30
000000000000006F70
00000000000006EE20
000000000005DFC200
0000000049EFC50000
000016BEFFB8000000
0002EFEA516D000000
0001530000AE000000
0000000000BD000000
0000000000AFD40000
00000000005FFFA200
0000000000059EFF60
000000000000019FF3
000000000000000EF8
00000000000037DFF8
00000000007EFFFE91
000000000049874100
ENDCHAR
STARTCHAR scedilla
ENCODING 351
SWIDTH 366 0
DWIDTH 12 0
BBX 12 27 0 -10
BITMAP
000000011000
000018DFF800
0004ED88C400
005FB1000000
02ED10000000
09F400000000
0EC000000000
2F7000000000
3F700049CC30
1FEABEFFFFE1
08FFFA5239F4
0024100009F3
000000006FA0
00000007FD10
000001AFE200
00003DFD2000
0007FFB10000
0006DF300000
00007F200000
00006FB20000
00003FFE7100
000007DFFE50
00000003BFF4
000000000BFB
000000016EFD
000029CFFFF6
00003EECA610
ENDCHAR
STARTCHAR Scaron
ENCODING 352
SWIDTH 541 0
DWIDTH 17 0
BBX 17 30 0 0
BITMAP
000650000000110000
0003E4000002CD0000
00007E20002DB20000
00000AC103E9000000
000001DA5E60000000
0000004FE400000000
000000022023300000
000000028DFFF20000
0000008FC7CFD10000
00002CE50003000000
0003ED200000000000
003EC1000000000000
01DE20000000000000
09F400000000000000
2FB000000000000000
7F4000000000000000
9F1000000000000000
8F2000000000000000
3F9000000000000000
07FB40000000000000
003AFFCA8754200000
00001479BDFFFFB400
00000000000147DF30
000000000000006F70
00000000000006EE20
000000000005DFC200
0000000049EFC50000
000016BEFFA4000000
0002EFEA5100000000
000153000000000000
ENDCHAR
STARTCHAR scaron
ENCODING 353
SWIDTH 366 0
DWIDTH 12 0
BBX 12 25 0 -1
BITMAP
380000000010
1D8000000AF2
03F50001BD30
006E301CC100
000AD4CA0000
0001DF700000
000013000000
000000011000
000018DFF800
0004ED88C400
005FB1000000
02ED10000000
09F400000000
0EC000000000
2F7000000000
3F700049CC30
1FEABEFFFFE1
08FFFA5239F4
0024100009F3
000000006FA0
00000007FD10
000001AFE200
00003DFD2000
0007FFA10000
0006A5000000
ENDCHAR
STARTCHAR Tcommaaccent
ENCODING 354
SWIDTH 595 0
DWIDTH 19 0
BBX 23 34 0 -11
BITMAP
0000000001A4000012457820
0000000016FE9BCEFFFFE700
013579CEFFFFEDCA97520000
6FFFFFC976FF000000000000
4986300000DF000000000000
0000000000BF000000000000
00000000009F100000000000
00000000007F200000000000
00000000006F300000000000
00000000004F500000000000
00000000003F700000000000
00000000002F900000000000
00000000000FB00000000000
00000000000ED00000000000
00000000000CF00000000000
00000000000BF20000000000
000000000009F40000000000
000000000008F60000000000
000000000006F70000000000
000000000004F90000000000
000000000002FA0000000000
000000000000EA0000000000
000000000000BB0000000000
000000000000000000000000
000000000000000000000000
000000000000000000000000
0000000000002D7000000000
0000000000007FC000000000
0000000000004FD000000000
0000000000002FB000000000
0000000000003F8000000000
0000000000003F4000000000
0000000000004F1000000000
000000000000120000000000
ENDCHAR
STARTCHAR tcommaaccent
ENCODING 355
SWIDTH 268 0
DWIDTH 9 0
BBX 11 36 -2 -11
BITMAP
000042000000
0000ED000000
0000EC000000
0000FB000000
0000FA000000
0000F9000000
0001F8000000
0001F9026B80
0001FDDFFF90
003CFFFE8200
0AFFFD610000
1FFDF8000000
0654F8000000
0004F9000000
0003FA000000
0002FA000000
0001FB000000
0000FC000000
0000EC000000
0000DD000000
0000DD000000
0000CE000000
0000BF000000
0000AF000000
00009F000000
000049000000
000000000000
000000000000
000008D10000
00000EF50000
00000BF50000
00000AF30000
00000AF10000
00000BC00000
00000B800000
000003000000
ENDCHAR
STARTCHAR Tcaron
ENCODING 356
SWIDTH 595 0
DWIDTH 19 0
BBX 23 32 0 0
BITMAP
000000092000000010000000
00000008D1000005F8000000
00000000BA00006F70000000
000000002E8007E400000000
0000000005F68D3000000000
00000000008FB10000000000
000000000004000000000000
000000000000000000000000
000000000000000000000000
0000000001A4000012457820
0000000016FE9BCEFFFFE700
013579CEFFFFEDCA97520000
6FFFFFC976FF000000000000
4986300000DF000000000000
0000000000BF000000000000
00000000009F100000000000
00000000007F200000000000
00000000006F300000000000
00000000004F500000000000
00000000003F700000000000
00000000002F900000000000
00000000000FB00000000000
00000000000ED00000000000
00000000000CF00000000000
00000000000BF20000000000
000000000009F40000000000
000000000008F60000000000
000000000006F70000000000
000000000004F90000000000
000000000002FA0000000000
000000000000EA0000000000
000000000000BB0000000000
ENDCHAR
STARTCHAR Tbar
ENCODING 358
SWIDTH 595 0
DWIDTH 19 0
BBX 23 23 0 0
BITMAP
0000000001A4000012457820
0000000016FE9BCEFFFFE700
013579CEFFFFEDCA97520000
6FFFFFC976FF000000000000
4986300000DF000000000000
0000000000BF000000000000
00000000009F000000000000
0000000024AFACDE80000000
000009EFFFFFFEDC70000000
00000466436F400000000000
00000000003F600000000000
00000000002F800000000000
00000000000FA00000000000
00000000000ED00000000000
00000000000CF00000000000
00000000000BF20000000000
000000000009F40000000000
000000000008F60000000000
000000000006F70000000000
000000000004F90000000000
000000000002FA0000000000
000000000000EA0000000000
000000000000BB0000000000
ENDCHAR
STARTCHAR Utilde
ENCODING 360
SWIDTH 450 0
DWIDTH 14 0
BBX 13 31 1 -4
BITMAP
006BCA40000420
09FCAFF1009F90
3FD008F704FF40
5F5001EF9EF700
0400004EFE6000
00000001410000
00000000000000
00000000003C10
DD000000008F50
FE00000000BF60
FE00000000DF50
EE00000001FF50
EE00000003FF40
DE00000006FF30
DE00000008FF20
CE0000000BFF20
CE0000000EFF10
BE0000002FFF00
BE0000005FFF00
BE0000009FAF00
AE000000EB7F10
9E000004F65F20
7F10000BD04F40
5F60005F602F50
1EE304EB001F70
07FFEFB1000E80
00599500000DA0
00000000000BB0
00000000000AB0
000000000008B0
00000000000440
ENDCHAR
STARTCHAR utilde
ENCODING 361
SWIDTH 387 0
DWIDTH 12 0
BBX 13 24 0 -1
BITMAP
029CC800002400
3FE9DF7003FF10
BF402FD00CFB00
DC0009FBBFD100
310000BFFB1000
00000003300000
00000000000000
06400000241000
0EA000006F5000
0DA000006F5000
0DB000006F5000
0DC000007F5000
0DD000007F5000
0CE000008F5000
0CE000009F4000
0BF00000CF4000
0AF10002FF5000
09F20009FF6000
07F3002FFF7000
04F500BFCF8000
01F908FE2DB000
00AECFE30BE000
002EFD2008F400
00013000028200
ENDCHAR
STARTCHAR Umacron
ENCODING 362
SWIDTH 450 0
DWIDTH 14 0
BBX 13 28 1 -4
BITMAP
000013579ABA00
4BDEFFFFFFEC00
49876542100000
00000000000000
00000000003C10
DD000000008F50
FE00000000BF60
FE00000000DF50
EE00000001FF50
EE00000003FF40
DE00000006FF30
DE00000008FF20
CE0000000BFF20
CE0000000EFF10
BE0000002FFF00
BE0000005FFF00
BE0000009FAF00
AE000000EB7F10
9E000004F65F20
7F10000BD04F40
5F60005F602F50
1EE304EB001F70
07FFEFB1000E80
00599500000DA0
00000000000BB0
00000000000AB0
000000000008B0
00000000000440
ENDCHAR
STARTCHAR umacron
ENCODING 363
SWIDTH 387 0
DWIDTH 12 0
BBX 12 25 0 -1
BITMAP
000013579ABA
4BDEFFFFFFED
498765421000
000000000000
000000000000
000000000000
000000000000
000000000000
064000002410
0EA000006F50
0DA000006F50
0DB000006F50
0DC000007F50
0DD000007F50
0CE000008F50
0CE000009F40
0BF00000CF40
0AF10002FF50
09F20009FF60
07F3002FFF70
04F500BFCF80
01F908FE2DB0
00AECFE30BE0
002EFD2008F4
000130000282
ENDCHAR
STARTCHAR Ubreve
ENCODING 364
SWIDTH 450 0
DWIDTH 14 0
BBX 13 28 1 -4
BITMAP
00030000074000
004F40007F6000
000BE628FE1000
0001CFFFE30000
000019DA203C10
DD000000008F50
FE00000000BF60
FE00000000DF50
EE00000001FF50
EE00000003FF40
DE00000006FF30
DE00000008FF20
CE0000000BFF20
CE0000000EFF10
BE0000002FFF00
BE0000005FFF00
BE0000009FAF00
AE000000EB7F10
9E000004F65F20
7F10000BD04F40
5F60005F602F50
1EE304EB001F70
07FFEFB1000E80
00599500000DA0
00000000000BB0
00000000000AB0
000000000008B0
00000000000440
ENDCHAR
STARTCHAR ubreve
ENCODING 365
SWIDTH 387 0
DWIDTH 12 0
BBX 11 25 1 -1
BITMAP
003000007400
04F50007F700
00BF627FE200
001CFFFE3000
00019DA20000
000000000000
000000000000
000000000000
640000024100
EA000006F500
DA000006F500
DB000006F500
DC000007F500
DD000007F500
CE000008F500
CE000009F400
BF00000CF400
AF10002FF500
9F20009FF600
7F3002FFF700
4F500BFCF800
1F908FE2DB00
0AECFE30BE00
02EFD2008F40
001300002820
ENDCHAR
STARTCHAR Uring
ENCODING 366
SWIDTH 450 0
DWIDTH 14 0
BBX 13 30 1 -4
BITMAP
00005897200000
002DFEEFE30000
00AF6006F80000
00AF0001FA0000
006FB55CF60000
0007CDCA500000
00000000003C10
DD000000008F50
FE00000000BF60
FE00000000DF50
EE00000001FF50
EE00000003FF40
DE00000006FF30
DE00000008FF20
CE0000000BFF20
CE0000000EFF10
BE0000002FFF00
BE0000005FFF00
BE0000009FAF00
AE000000EB7F10
9E000004F65F20
7F10000BD04F40
5F60005F602F50
1EE304EB001F70
07FFEFB1000E80
00599500000DA0
00000000000BB0
00000000000AB0
000000000008B0
00000000000440
ENDCHAR
STARTCHAR uring
ENCODING 367
SWIDTH 387 0
DWIDTH 12 0
BBX 11 23 1 -1
BITMAP
000379830000
00BFFDFF6000
06FA003EC000
06F4000DE000
02FD559FA000
005BDDB70000
640000024100
EA000006F500
DA000006F500
DB000006F500
DC000007F500
DD000007F500
CE000008F500
CE000009F400
BF00000CF400
AF10002FF500
9F20009FF600
7F3002FFF700
4F500BFCF800
1F908FE2DB00
0AECFE30BE00
02EFD2008F40
001300002820
ENDCHAR
STARTCHAR Uhungarumlaut
ENCODING 368
SWIDTH 450 0
DWIDTH 14 0
BBX 13 31 1 -4
BITMAP
00000650000000
00007FA0AA0000
0005FE3AFA0000
000EE48FD10000
000830EC100000
00000031000000
00000000000000
00000000003C10
DD000000008F50
FE00000000BF60
FE00000000DF50
EE00000001FF50
EE00000003FF40
DE00000006FF30
DE00000008FF20
CE0000000BFF20
CE0000000EFF10
BE0000002FFF00
BE0000005FFF00
BE0000009FAF00
AE000000EB7F10
9E000004F65F20
7F10000BD04F40
5F60005F602F50
1EE304EB001F70
07FFEFB1000E80
00599500000DA0
00000000000BB0
00000000000AB0
000000000008B0
00000000000440
ENDCHAR
STARTCHAR uhungarumlaut
ENCODING 369
SWIDTH 387 0
DWIDTH 12 0
BBX 11 23 1 -1
BITMAP
000290000000
002EF15E1000
01DF85FE1000
09F83FF40000
04608E500000
000012000000
640000024100
EA000006F500
DA000006F500
DB000006F500
DC000007F500
DD000007F500
CE000008F500
CE000009F400
BF00000CF400
AF10002FF500
9F20009FF600
7F3002FFF700
4F500BFCF800
1F908FE2DB00
0AECFE30BE00
02EFD2008F40
001300002820
ENDCHAR
STARTCHAR Uogonek
ENCODING 370
SWIDTH 450 0
DWIDTH 14 0
BBX 16 29 1 -9
BITMAP
00000000003C1000
DD000000008F5000
FE00000000BF6000
FE00000000DF5000
EE00000001FF5000
EE00000003FF4000
DE00000006FF3000
DE00000008FF2000
CE0000000BFF2000
CE0000000EFF1000
BE0000002FFF0000
BE0000005FFF0000
BE0000009FAF0000
AE000000EB7F1000
9E000004F65F2000
7F10000BD04F4000
5F60005F602F5000
1EE304EB001F7000
07FFEFB1000E8000
00599500000DA000
00000000003EB000
0000000005FFB000
000000002EDAB000
000000008F544000
00000000BE000000
00000000BD000000
000000008F5049E9
000000002EFFFFF4
00000000029BB820
ENDCHAR
STARTCHAR uogonek
ENCODING 371
SWIDTH 387 0
DWIDTH 12 0
BBX 13 24 1 -8
BITMAP
64000002410000
EA000006F50000
DA000006F50000
DB000006F50000
DC000007F50000
DD000007F50000
CE000008F50000
CE000009F40000
BF00000CF40000
AF10002FF50000
9F20009FF60000
7F3002FFF70000
4F500BFCF80000
1F908FE2DB0000
0AECFE30BE0000
02EFD204EF4000
0013004FD92000
000000DE200000
000004F8000000
000006F4000000
000005F4000340
000001FD57CFE0
0000006FFFFE50
00000002674100
ENDCHAR
STARTCHAR Wcircumflex
ENCODING 372
SWIDTH 878 0
DWIDTH 28 0
BBX 27 34 0 -1
BITMAP
0000000000005B10000000000000
000000000001EFB0000000000000
000000000007F6EA000000000000
00000000001E904F800000000000
00000000008E1007F50000000000
0000000002F70000AF4000000000
000000000AD000001CE600000000
000000003F50000002E700000000
0000000059000000000000000000
0000000000000000000000000660
0000000000000000000000000CD0
0000000000000000000000001F90
0000000000000000000000005F50
07600000000003F9000000008F20
4FE00000000008FF10000000CD00
1EF4000000000AFF60000001F900
07F9000000001ECFB0000004F600
01ED000000005F3FF1000008F200
00AF300000009D0BF500000CD000
005F80000000E806F900001F9000
001FC0000004F301FE00004F6000
000BF2000008E000AF30008F2000
0008F700000D90004F9000BD0000
0004FB00003F50000DE001F90000
0001FF10008F100007F404F60000
0000CF6000DB000001EB07F20000
00008FB003F60000008F3BD00000
00004FF108F20000001ECEA00000
00000EF50DC000000008FF700000
00000AFA3F8000000001EF400000
000005FEAF50000000007E000000
000000EFFE100000000001000000
0000006FF7000000000000000000
0000000540000000000000000000
ENDCHAR
STARTCHAR wcircumflex
ENCODING 373
SWIDTH 566 0
DWIDTH 18 0
BBX 17 30 0 0
BITMAP
00000005B100000000
0000001EFB00000000
0000007F6EA0000000
000001E904F8000000
000008E1007F500000
00002F70000AF40000
0000AD000001CE6000
0003F50000002E7000
000590000000000000
000000000000000000
000000000000000000
000000000000000000
000000000000000000
000000035000000300
0D50000CF300001F60
1FC0000FFC00001F90
0AF3002FDF60001F90
04F9003F8CE1001F90
00DE105F73F9001F90
007F606F609F301F90
002FB08F501EB01FA0
000BF29F4007F51FB0
0006F8BF4000CD1FB0
0001EEDF30004F8FC0
00009FFF20000AFFC0
00004FFF100002EFD0
00000DFE0000007FE0
000007FD0000000CF0
000002FC0000000020
0000008A0000000000
ENDCHAR
STARTCHAR Ycircumflex
ENCODING 374
SWIDTH 483 0
DWIDTH 15 0
BBX 15 34 0 0
BITMAP
0000007900000000
000003FF80000000
00000BE7F6000000
00004F607F400000
0000CC000AE30000
0005F40001CD2000
000DA000002ED300
006F20000004F300
0076000000000000
0000000000000660
0000000000000BB0
0000000000000E70
0000000000004F30
2300000000009D00
8E2000000000E900
2FB000000004F500
08F800000009F100
01DF5000000EB000
003EE300005F7000
0006FD1000AF2000
00008FC101FC0000
00000AFB16F70000
000000BFDDF10000
0000001CFFA00000
00000001FF500000
00000000FE100000
00000003FA000000
00000007F5000000
0000000CE0000000
0000002FA0000000
0000007F50000000
000000CE10000000
000000EA00000000
000000D500000000
ENDCHAR
STARTCHAR ycircumflex
ENCODING 375
SWIDTH 363 0
DWIDTH 12 0
BBX 12 42 0 -12
BITMAP
00007A000000
0002FF900000
000AE6F70000
003F606F5000
00BC000AE300
04F40000CE20
0CA000002EE4
5F20000004F4
770000000000
000000000000
000000000000
000000000000
000000000000
000000000470
0000000007E0
1820000008E0
4FC0000009E0
0DF500000AE0
04FD10000BE0
00AF80000CE0
001EE2000DD0
0006FA000ED0
0000BF500FC0
00002FE10FC0
000008FB2FB0
000000DFCFB0
0000004FFFA0
0000000AFF90
00000001EF80
000000006F70
000000003F60
000000004F50
000000005F40
000000007F30
000000008F20
000000009F10
00000000AF00
00000000BD00
00000000CC00
00000000EB00
00000000FA00
00000001F800
ENDCHAR
STARTCHAR Ydieresis
ENCODING 376
SWIDTH 483 0
DWIDTH 15 0
BBX 15 25 0 0
BITMAP
0000000000000660
00002BA01BC00BB0
00005FA03FC00E70
0000020002004F30
2300000000009D00
8E2000000000E900
2FB000000004F500
08F800000009F100
01DF5000000EB000
003EE300005F7000
0006FD1000AF2000
00008FC101FC0000
00000AFB16F70000
000000BFDDF10000
0000001CFFA00000
00000001FF500000
00000000FE100000
00000003FA000000
00000007F5000000
0000000CE0000000
0000002FA0000000
0000007F50000000
000000CE10000000
000000EA00000000
000000D500000000
ENDCHAR
STARTCHAR Zacute
ENCODING 377
SWIDTH 670 0
DWIDTH 21 0
BBX 21 30 0 0
BITMAP
0000000000010000000000
00000000008F1000000000
0000000008FD0000000000
000000005FE20000000000
000000009D200000000000
0000000001000000000000
0000000000000000000000
0000000000000000000000
0ACCCCCCCCCCCBBBB70000
0799888899ABCDFFFB0000
000000000000007FE30000
00000000000003FF500000
0000000000001DF8000000
000000000000BFB0000000
000000000008FD10000000
00000000005FE300000000
0000000002EF5000000000
000000001CF80000000000
00000000AFB00000000000
00000006FD100000000000
0000003FE3000000000000
000001EF50000000000000
00000BF800000000000000
00009FB000000000000000
0005FD1000000000000000
003EF30000000000000000
01DF500000000000000000
0AFC666666666666789B70
4FFFFFFFFFFFFFFFFFFFA0
1DFECCBBAAA99988765410
ENDCHAR
STARTCHAR zacute
ENCODING 378
SWIDTH 618 0
DWIDTH 20 0
BBX 21 25 0 -1
BITMAP
0000000000010000000000
00000000004E5000000000
0000000004EF3000000000
000000001EF70000000000
000000004F600000000000
0000000001000000000000
0000000000000000000000
0000000000000000000000
0000000016BF8000000000
00000049EFFFA000000000
00038DFFA5CF7000000000
1CEFFC7103FF2000000000
07B730000AFA0000000000
000000002FF30000000000
000000009F900000000000
00000002FE100000000000
00000008F5000000000000
0000001EB0000000000000
0000007F40000000000000
000000DD00000000014300
000003F80000147ADFFF50
000008F7369CFFFFFFDA30
00000CFFFFFFEB86310000
00000EFDA7520000000000
0000031000000000000000
ENDCHAR
STARTCHAR Zdotaccent
ENCODING 379
SWIDTH 670 0
DWIDTH 21 0
BBX 21 26 0 0
BITMAP
0000000000650000000000
0000000007FC0000000000
0000000002720000000000
0000000000000000000000
0ACCCCCCCCCCCBBBB70000
0799888899ABCDFFFB0000
000000000000007FE30000
00000000000003FF500000
0000000000001DF8000000
000000000000BFB0000000
000000000008FD10000000
00000000005FE300000000
0000000002EF5000000000
000000001CF80000000000
00000000AFB00000000000
00000006FD100000000000
0000003FE3000000000000
000001EF50000000000000
00000BF800000000000000
00009FB000000000000000
0005FD1000000000000000
003EF30000000000000000
01DF500000000000000000
0AFC666666666666789B70
4FFFFFFFFFFFFFFFFFFFA0
1DFECCBBAAA99988765410
ENDCHAR
STARTCHAR zdotaccent
ENCODING 380
SWIDTH 618 0
DWIDTH 20 0
BBX 21 21 0 -1
BITMAP
0000000005700000000000
000000003FF10000000000
0000000007400000000000
0000000000000000000000
0000000016BF8000000000
00000049EFFFA000000000
00038DFFA5CF7000000000
1CEFFC7103FF2000000000
07B730000AFA0000000000
000000002FF30000000000
000000009F900000000000
00000002FE100000000000
00000008F5000000000000
0000001EB0000000000000
0000007F40000000000000
000000DD00000000014300
000003F80000147ADFFF50
000008F7369CFFFFFFDA30
00000CFFFFFFEB86310000
00000EFDA7520000000000
0000031000000000000000
ENDCHAR
STARTCHAR Zcaron
ENCODING 381
SWIDTH 670 0
DWIDTH 21 0
BBX 21 30 0 0
BITMAP
0000008300000001000000
0000007D1000004E900000
0000000BB00005F8100000
00000001D9006E50000000
000000004F68D300000000
0000000008FC2000000000
0000000000310000000000
0000000000000000000000
0ACCCCCCCCCCCBBBB70000
0799888899ABCDFFFB0000
000000000000007FE30000
00000000000003FF500000
0000000000001DF8000000
000000000000BFB0000000
000000000008FD10000000
00000000005FE300000000
0000000002EF5000000000
000000001CF80000000000
00000000AFB00000000000
00000006FD100000000000
0000003FE3000000000000
000001EF50000000000000
00000BF800000000000000
00009FB000000000000000
0005FD1000000000000000
003EF30000000000000000
01DF500000000000000000
0AFC666666666666789B70
4FFFFFFFFFFFFFFFFFFFA0
1DFECCBBAAA99988765410
ENDCHAR
STARTCHAR zcaron
ENCODING 382
SWIDTH 618 0
DWIDTH 20 0
BBX 21 25 0 -1
BITMAP
0002810000000200000000
0000BA0000008F40000000
00002E700009E400000000
000004F400AD2000000000
0000008E4BB10000000000
0000000CF9000000000000
0000000130000000000000
0000000000000000000000
0000000016BF8000000000
00000049EFFFA000000000
00038DFFA5CF7000000000
1CEFFC7103FF2000000000
07B730000AFA0000000000
000000002FF30000000000
000000009F900000000000
00000002FE100000000000
00000008F5000000000000
0000001EB0000000000000
0000007F40000000000000
000000DD00000000014300
000003F80000147ADFFF50
000008F7369CFFFFFFDA30
00000CFFFFFFEB86310000
00000EFDA7520000000000
0000031000000000000000
ENDCHAR
STARTCHAR florin
ENCODING 402
SWIDTH 345 0
DWIDTH 11 0
BBX 12 38 -1 -9
BITMAP
000001761000
000008FFD100
00000EFDF900
00004FD09E00
00007F902F10
0000AF600400
0000BF400000
0000DF300000
0000EF100000
0000EF000000
0000FE000000
0001FD000000
0001FC000045
0000FB018EFC
0000FCAEFFC3
0003FFFB7300
006FFC100000
04FCCC000000
00209D000000
00009E000000
00009F000000
00009F100000
00008F200000
00008F300000
00008F400000
00008F500000
00008F600000
00008F700000
00008F800000
00007F900000
00007FA00000
00007FB00000
00007FB00000
00006FB00000
00006FA00000
7CDEEF600000
29EFFB000000
000220000000
ENDCHAR
STARTCHAR AEacute
ENCODING 508
SWIDTH 708 0
DWIDTH 23 0
BBX 23 31 0 0
BITMAP
000000000010000000000000
0000000005F4000000000000
000000005FF2000000000000
00000002EF50000000000000
00000006F500000000000000
000000001000000000000000
000000000000000000000000
000BB0000000000000352000
000EF5001B6000039DFA1000
001FFC004FD005CFFA200000
002FFF300EF5DFFA20000000
004FCE800CFFFA2000000000
006F58E00BFA200000000000
007F42F409F1000000000000
009F20C907F1000000000000
00BF107E06F2000000110000
00CF002F55F3000005E30000
00ED000DA4F40004CC300000
00FC0009F5F504BE70000000
02FA0006FAFABFA200000000
03F90002FFFFC30000000000
05F90006FFFE000000000000
06F804AFFFFE000000000100
08FEEFB68FFE00000002BF30
09FF81001EFE0000007FD500
0BF400000AFD00002BF91000
0CC0000006FD0006EE500000
0DA0000002FD04CFA1000000
0F90000002FFEFD500000000
1F70000002FFF81000000000
031000000023200000000000
ENDCHAR
STARTCHAR aeacute
ENCODING 509
SWIDTH 705 0
DWIDTH 23 0
BBX 22 24 0 0
BITMAP
0000000000001100000000
000000000001BB00000000
00000000001CF800000000
0000000000AFC100000000
0000000000EB1000000000
0000000000100000000000
00000003400006CDB50000
000003DFFA009FFDFF8000
00002EFFFE05FE401DF300
0000DFA1FD0DF5001EF500
0008FC01FC5FA003DF8000
002FF303FDCF329FD40000
009F9006FFFFBFF8100000
01EF200CFFFFFA20000000
06F9004FFFFD3000000024
0CF200CFFFF700000001EE
2FB006FA6FF40000000BF9
7F501DF20FF40000006FD1
BE008F800DF3000003FE30
EA03FD100BF300002EE300
EA2DF4000AF70005ED2000
BFEF900008FFA9CFA10000
6FFA000006E9EFB4000000
0650000002700000000000
ENDCHAR
STARTCHAR Oslashacute
ENCODING 510
SWIDTH 382 0
DWIDTH 12 0
BBX 12 32 0 -3
BITMAP
000000001000
00000004E500
0000004FF200
000001EF6000
000005F60000
000000100000
000000000520
000001687F40
00003DFFFF00
0001EFC9FF80
000AF703FEF2
003F9007E7F6
009F300CA3F9
00ED002F61FB
04F9006F10FC
08F400BB00EC
0CF101F700FC
0EC005F201FB
2F9009D003F9
4F600E8006F7
6F404F3009F4
7F308E000DF1
8F20D9003FB0
6F32F4009F60
4F67E002ED00
1FACA00BF500
0AFF73BF9000
01EFFFFA0000
00BFFB500000
00E600000000
03F200000000
007000000000
ENDCHAR
STARTCHAR oslashacute
ENCODING 511
SWIDTH 266 0
DWIDTH 9 0
BBX 10 28 -1 -3
BITMAP
0000001100
000001BB00
00001CF800
0000AFC100
0000EB1000
0000100000
0000000095
00018814F3
000CFFCAD0
002FEBEF80
005F406F40
009C00BF90
00C901FFC0
00F706FAE0
02F60CA9E0
04F62F5AE0
05F57E0BE0
06F5C90DD0
06F8F31FA0
05FDD04F80
04FF809F30
03FF21EC00
02FC2BF400
01FFFF7000
06FEB40000
0BB0000000
1F50000000
0710000000
ENDCHAR
STARTCHAR Scommaaccent
ENCODING 536
SWIDTH 541 0
DWIDTH 17 0
BBX 17 35 0 -11
BITMAP
000000000023300000
000000028DFFF20000
0000008FC7CFD10000
00002CE50003000000
0003ED200000000000
003EC1000000000000
01DE20000000000000
09F400000000000000
2FB000000000000000
7F4000000000000000
9F1000000000000000
8F2000000000000000
3F9000000000000000
07FB40000000000000
003AFFCA8754200000
00001479BDFFFFB400
00000000000147DF30
000000000000006F70
00000000000006EE20
000000000005DFC200
0000000049EFC50000
000016BEFFA4000000
0002EFEA5100000000
000153000000000000
000000000000000000
000000000000000000
000000000000000000
00000005E400000000
0000000BF900000000
00000008F900000000
00000006F700000000
00000007F400000000
00000007F100000000
00000008C000000000
000000021000000000
ENDCHAR
STARTCHAR scommaaccent
ENCODING 537
SWIDTH 366 0
DWIDTH 12 0
BBX 12 28 0 -11
BITMAP
000000011000
000018DFF800
0004ED88C400
005FB1000000
02ED10000000
09F400000000
0EC000000000
2F7000000000
3F700049CC30
1FEABEFFFFE1
08FFFA5239F4
0024100009F3
000000006FA0
00000007FD10
000001AFE200
00003DFD2000
0007FFA10000
0006A5000000
000000000000
000000000000
00002C800000
00006FD00000
00003FD00000
00002FB00000
00002F800000
00003F500000
00003F100000
000012000000
ENDCHAR
STARTCHAR circumflex
ENCODING 710
SWIDTH 390 0
DWIDTH 13 0
BBX 12 9 0 21
BITMAP
00001B500000
00009FE30000
0002F9BE2000
000AE11CC100
003F6002EB00
00BC00004F90
04F4000007FB
0CA0000000AC
1B2000000000
ENDCHAR
STARTCHAR caron
ENCODING 711
SWIDTH 390 0
DWIDTH 13 0
BBX 12 7 1 19
BITMAP
281000000020
0BA0000008F4
02E700009E40
004F400AD200
0008E4BB1000
0000CF900000
000013000000
ENDCHAR
STARTCHAR breve
ENCODING 728
SWIDTH 390 0
DWIDTH 13 0
BBX 8 5 2 19
BITMAP
21000038
CB0002ED
4FB24DF7
06FFFF90
005CC600
ENDCHAR
STARTCHAR dotaccent
ENCODING 729
SWIDTH 128 0
DWIDTH 4 0
BBX 3 3 0 17
BITMAP
0560
5FE0
1730
ENDCHAR
STARTCHAR ring
ENCODING 730
SWIDTH 266 0
DWIDTH 9 0
BBX 8 6 0 16
BITMAP
00379840
0AFFDFF7
6FB102ED
5F5000CF
2FD648FB
04BDDB71
ENDCHAR
STARTCHAR ogonek
ENCODING 731
SWIDTH 366 0
DWIDTH 12 0
BBX 8 9 3 -8
BITMAP
00470000
07FD0000
3FC10000
AF300000
DC000000
EB000000
BE204AE6
4FFFFFE3
04BCB710
ENDCHAR
STARTCHAR tilde
ENCODING 732
SWIDTH 458 0
DWIDTH 15 0
BBX 13 6 1 17
BITMAP
028CC810002400
2EEACF9001EF30
9F601EE10BFC00
BD0007FCAFD200
2200009FFC2000
00000003300000
ENDCHAR
STARTCHAR hungarumlaut
ENCODING 733
SWIDTH 239 0
DWIDTH 8 0
BBX 8 6 0 14
BITMAP
00191000
01DF33E3
1CF94EF2
7FA2EF60
3706F600
00013000
ENDCHAR
STARTCHAR Wgrave
ENCODING 7808
SWIDTH 878 0
DWIDTH 28 0
BBX 27 32 0 -1
BITMAP
0000000000002700000000000000
0000000000005F60000000000000
0000000000001EF3000000000000
00000000000004FC000000000000
000000000000006D000000000000
0000000000000000000000000000
0000000000000000000000000000
0000000000000000000000000660
0000000000000000000000000CD0
0000000000000000000000001F90
0000000000000000000000005F50
07600000000003F9000000008F20
4FE00000000008FF10000000CD00
1EF4000000000AFF60000001F900
07F9000000001ECFB0000004F600
01ED000000005F3FF1000008F200
00AF300000009D0BF500000CD000
005F80000000E806F900001F9000
001FC0000004F301FE00004F6000
000BF2000008E000AF30008F2000
0008F700000D90004F9000BD0000
0004FB00003F50000DE001F90000
0001FF10008F100007F404F60000
0000CF6000DB000001EB07F20000
00008FB003F60000008F3BD00000
00004FF108F20000001ECEA00000
00000EF50DC000000008FF700000
00000AFA3F8000000001EF400000
000005FEAF50000000007E000000
000000EFFE100000000001000000
0000006FF7000000000000000000
0000000540000000000000000000
ENDCHAR
STARTCHAR wgrave
ENCODING 7809
SWIDTH 566 0
DWIDTH 18 0
BBX 17 24 0 0
BITMAP
000000080000000000
0000002F9000000000
0000000CF600000000
00000002EE00000000
000000004E10000000
000000000000000000
000000000000000000
000000035000000300
0D50000CF300001F60
1FC0000FFC00001F90
0AF3002FDF60001F90
04F9003F8CE1001F90
00DE105F73F9001F90
007F606F609F301F90
002FB08F501EB01FA0
000BF29F4007F51FB0
0006F8BF4000CD1FB0
0001EEDF30004F8FC0
00009FFF20000AFFC0
00004FFF100002EFD0
00000DFE0000007FE0
000007FD0000000CF0
000002FC0000000020
0000008A0000000000
ENDCHAR
STARTCHAR Wacute
ENCODING 7810
SWIDTH 878 0
DWIDTH 28 0
BBX 27 31 0 -1
BITMAP
0000000000000010000000000000
00000000000009E0000000000000
0000000000009FC0000000000000
000000000006FD20000000000000
00000000000AD200000000000000
0000000000001000000000000000
0000000000000000000000000660
0000000000000000000000000CD0
0000000000000000000000001F90
0000000000000000000000005F50
07600000000003F9000000008F20
4FE00000000008FF10000000CD00
1EF4000000000AFF60000001F900
07F9000000001ECFB0000004F600
01ED000000005F3FF1000008F200
00AF300000009D0BF500000CD000
005F80000000E806F900001F9000
001FC0000004F301FE00004F6000
000BF2000008E000AF30008F2000
0008F700000D90004F9000BD0000
0004FB00003F50000DE001F90000
0001FF10008F100007F404F60000
0000CF6000DB000001EB07F20000
00008FB003F60000008F3BD00000
00004FF108F20000001ECEA00000
00000EF50DC000000008FF700000
00000AFA3F8000000001EF400000
000005FEAF50000000007E000000
000000EFFE100000000001000000
0000006FF7000000000000000000
0000000540000000000000000000
ENDCHAR
STARTCHAR wacute
ENCODING 7811
SWIDTH 566 0
DWIDTH 18 0
BBX 17 24 0 0
BITMAP
000000000010000000
0000000002D8000000
000000002DF6000000
00000000CF90000000
00000002F800000000
000000001000000000
000000000000000000
000000035000000300
0D50000CF300001F60
1FC0000FFC00001F90
0AF3002FDF60001F90
04F9003F8CE1001F90
00DE105F73F9001F90
007F606F609F301F90
002FB08F501EB01FA0
000BF29F4007F51FB0
0006F8BF4000CD1FB0
0001EEDF30004F8FC0
00009FFF20000AFFC0
00004FFF100002EFD0
00000DFE0000007FE0
000007FD0000000CF0
000002FC0000000020
0000008A0000000000
ENDCHAR
STARTCHAR Wdieresis
ENCODING 7812
SWIDTH 878 0
DWIDTH 28 0
BBX 27 28 0 -1
BITMAP
000000000007D405C60000000000
00000000000CF40AF60000000000
0000000000011000200000000000
0000000000000000000000000660
0000000000000000000000000CD0
0000000000000000000000001F90
0000000000000000000000005F50
07600000000003F9000000008F20
4FE00000000008FF10000000CD00
1EF4000000000AFF60000001F900
07F9000000001ECFB0000004F600
01ED000000005F3FF1000008F200
00AF300000009D0BF500000CD000
005F80000000E806F900001F9000
001FC0000004F301FE00004F6000
000BF2000008E000AF30008F2000
0008F700000D90004F9000BD0000
0004FB00003F50000DE001F90000
0001FF10008F100007F404F60000
0000CF6000DB000001EB07F20000
00008FB003F60000008F3BD00000
00004FF108F20000001ECEA00000
00000EF50DC000000008FF700000
00000AFA3F8000000001EF400000
000005FEAF50000000007E000000
000000EFFE100000000001000000
0000006FF7000000000000000000
0000000540000000000000000000
ENDCHAR
STARTCHAR wdieresis
ENCODING 7813
SWIDTH 566 0
DWIDTH 18 0
BBX 17 24 0 0
BITMAP
0000009D208D400000
000001EE10DF300000
000000110011000000
000000000000000000
000000000000000000
000000000000000000
000000000000000000
000000035000000300
0D50000CF300001F60
1FC0000FFC00001F90
0AF3002FDF60001F90
04F9003F8CE1001F90
00DE105F73F9001F90
007F606F609F301F90
002FB08F501EB01FA0
000BF29F4007F51FB0
0006F8BF4000CD1FB0
0001EEDF30004F8FC0
00009FFF20000AFFC0
00004FFF100002EFD0
00000DFE0000007FE0
000007FD0000000CF0
000002FC0000000020
0000008A0000000000
ENDCHAR
STARTCHAR Ygrave
ENCODING 7922
SWIDTH 483 0
DWIDTH 15 0
BBX 15 32 0 0
BITMAP
0000007100000000
000000FB00000000
000000AF80000000
0000001DF2000000
00000002E3000000
0000000000000000
0000000000000000
0000000000000660
0000000000000BB0
0000000000000E70
0000000000004F30
2300000000009D00
8E2000000000E900
2FB000000004F500
08F800000009F100
01DF5000000EB000
003EE300005F7000
0006FD1000AF2000
00008FC101FC0000
00000AFB16F70000
000000BFDDF10000
0000001CFFA00000
00000001FF500000
00000000FE100000
00000003FA000000
00000007F5000000
0000000CE0000000
0000002FA0000000
0000007F50000000
000000CE10000000
000000EA00000000
000000D500000000
ENDCHAR
STARTCHAR ygrave
ENCODING 7923
SWIDTH 363 0
DWIDTH 12 0
BBX 11 36 0 -12
BITMAP
000260000000
0006F5000000
0002EE200000
00006FA00000
000007B00000
000000000000
000000000000
000000000470
0000000007E0
1820000008E0
4FC0000009E0
0DF500000AE0
04FD10000BE0
00AF80000CE0
001EE2000DD0
0006FA000ED0
0000BF500FC0
00002FE10FC0
000008FB2FB0
000000DFCFB0
0000004FFFA0
0000000AFF90
00000001EF80
000000006F70
000000003F60
000000004F50
000000005F40
000000007F30
000000008F20
000000009F10
00000000AF00
00000000BD00
00000000CC00
00000000EB00
00000000FA00
00000001F800
ENDCHAR
STARTCHAR endash
ENCODING 8211
SWIDTH 399 0
DWIDTH 13 0
BBX 13 6 0 5
BITMAP
00000000014500
00000005BFFF10
000028EFFEA600
147CFFD9400000
7FFC7300000000
01000000000000
ENDCHAR
STARTCHAR emdash
ENCODING 8212
SWIDTH 549 0
DWIDTH 18 0
BBX 16 5 0 5
BITMAP
00000000001479B9
00000036ADFFFFFB
1469CFFFFDB86310
7FFDB86310000000
0100000000000000
ENDCHAR
STARTCHAR quoteleft
ENCODING 8216
SWIDTH 155 0
DWIDTH 5 0
BBX 3 10 1 10
BITMAP
C900
EF10
CF20
AF30
9F30
7F20
5F10
3F10
1D10
0100
ENDCHAR
STARTCHAR quoteright
ENCODING 8217
SWIDTH 155 0
DWIDTH 5 0
BBX 3 10 1 10
BITMAP
C900
EF10
CF20
AF30
9F30
7F20
5F10
3F10
1D10
0100
ENDCHAR
STARTCHAR quotesinglbase
ENCODING 8218
SWIDTH 155 0
DWIDTH 5 0
BBX 3 10 1 -1
BITMAP
6B00
9F40
8F70
6F70
4F70
3F70
1F60
0E60
0B50
0120
ENDCHAR
STARTCHAR quotedblleft
ENCODING 8220
SWIDTH 212 0
DWIDTH 7 0
BBX 6 10 0 16
BITMAP
030000
2F6075
0F7099
0E8099
0CA099
0BB099
0AB099
08C099
06C069
03B000
ENDCHAR
STARTCHAR quotedblright
ENCODING 8221
SWIDTH 212 0
DWIDTH 7 0
BBX 6 10 0 16
BITMAP
030000
2F6075
0F7099
0E8099
0CA099
0BB099
0AB099
08C099
06C069
03B000
ENDCHAR
STARTCHAR quotedblbase
ENCODING 8222
SWIDTH 212 0
DWIDTH 7 0
BBX 5 11 1 -1
BITMAP
100000
F70540
E808B0
DA08B0
BB08B0
AC08B0
9C08B0
7D08B0
5D06B0
2D0010
010000
ENDCHAR
STARTCHAR dagger
ENCODING 8224
SWIDTH 268 0
DWIDTH 9 0
BBX 11 26 -2 -1
BITMAP
000042000000
0000ED000000
0000EC000000
0000FB000000
0000FA000000
0000F9000000
0001F8000000
0001F9026B80
0001FDDFFF90
003CFFFE8200
0AFFFD610000
1FFDF8000000
0654F8000000
0004F9000000
0003FA000000
0002FA000000
0001FB000000
0000FC000000
0000EC000000
0000DD000000
0000DD000000
0000CE000000
0000BF000000
0000AF000000
00009F000000
000049000000
ENDCHAR
STARTCHAR daggerdbl
ENCODING 8225
SWIDTH 326 0
DWIDTH 10 0
BBX 11 26 0 -1
BITMAP
000141000000
0005F6000000
0006F5000000
0006F4000000
0006F3000000
0007F3000000
0007F2000000
0007F2048C20
0007FCEFFE30
007EFFFC5000
4DFFFA300000
7FEEF2000000
172BF237BE40
000BFEFFFC50
16CFFD951000
4FDDF3000000
2309F4000000
0008F4000000
0007F5000000
0006F5000000
0005F6000000
0004F7000000
0002F8000000
0001F8000000
0000F9000000
000084000000
ENDCHAR
STARTCHAR bullet
ENCODING 8226
SWIDTH 189 0
DWIDTH 6 0
BBX 5 5 1 7
BITMAP
049700
5FFF20
CFFF20
8FFB00
198100
ENDCHAR
STARTCHAR ellipsis
ENCODING 8230
SWIDTH 387 0
DWIDTH 12 0
BBX 12 2 0 0
BITMAP
1BE20AE408E5
1ED10DE20BE3
ENDCHAR
STARTCHAR guilsinglleft
ENCODING 8249
SWIDTH 409 0
DWIDTH 13 0
BBX 12 17 1 4
BITMAP
000000000022
0000000001CB
000000002DF6
00000004EF90
0000006FF900
000009FF6000
0001BFD30000
002DF9100000
04EE50000000
4FD200000000
5FE300000000
07FF81000000
004DFD500000
00019FFB2000
000003CFFB50
00000006EFF1
000000001A70
ENDCHAR
STARTCHAR guilsinglright
ENCODING 8250
SWIDTH 450 0
DWIDTH 14 0
BBX 12 18 1 3
BITMAP
4E7000000000
4FFD40000000
03BFFB200000
0004CFF81000
000005DFE600
00000007EFC1
0000000019F7
0000000005F5
000000001DC0
00000001CE30
0000003DF400
000006FF5000
0001AFE40000
002DFD300000
03EFC1000000
2EF800000000
7E4000000000
110000000000
ENDCHAR
STARTCHAR fraction
ENCODING 8260
SWIDTH 306 0
DWIDTH 10 0
BBX 9 26 0 -3
BITMAP
0000000350
0000000CB0
0000002F60
0000006F10
000000BC00
000001F700
000005F200
00000AD000
00000E8000
00004F3000
00009E0000
0000D90000
0003F40000
0007E00000
000CA00000
001F600000
006F100000
00BB000000
01E7000000
05F2000000
09C0000000
0E80000000
3F30000000
8D00000000
C900000000
5300000000
ENDCHAR
STARTCHAR Euro
ENCODING 8364
SWIDTH 589 0
DWIDTH 19 0
BBX 18 25 0 -1
BITMAP
000000000014300000
0000000005EFFB1000
000000005FC58F6000
00000002EC0007A000
0000000AE200001000
0000002F8000000000
0000008F2000000000
000000EB0000000000
000003F60000000000
000007F20000000000
00000CD35798000000
079BDFFFFD81000000
0EFFFFA62000000000
01217F200000000000
00009E000369A00000
0000BD49EFFE600000
0036EFFB8640000000
8FFEFB100000000000
3951EA00000000009C
0000CC0000000004FD
0000AF100000006EF4
00004F8000004AFF50
00000BFC99BEFFC300
0000019EFFFEA50000
000000003431000000
ENDCHAR
STARTCHAR trademark
ENCODING 8482
SWIDTH 1278 0
DWIDTH 41 0
BBX 40 25 0 0
BITMAP
0000000000000000000054000000000000015000
00000000000000000000EFB1000000000009F300
0000000001A400000245EFFB00000000000DF400
0000000016FE9BCEFFFFFFEF60000000003FF500
013579CEFFFFEDBA97537F1DE1000000008CF700
6FFFFFC976FF000000005F15F700000000D7D800
4986300000DF000000003F10DE10000003F2C900
0000000000BF000000002F205F80000007D0BA00
00000000009F100000001F400CE100000C909B00
00000000007F200000000F5005F700002F408D00
00000000006F300000000E7000CE10007E007E00
00000000004F500000000E80005F7000CA006F00
00000000003F700000000EA0000CE102F5004F10
00000000002F900000000DB00005F807E1003F30
00000000000FB00000000DD00000DE1CA0002F40
00000000000ED00000000DE000005FCF40000F60
00000000000CF00000000CF100000DFC00000E80
00000000000BF20000000CF2000006F400000DA0
000000000009F40000000CF40000003000000BC0
000000000008F60000000CF50000000000000AE0
000000000006F70000000CF600000000000009F2
000000000004F90000000BF800000000000007F5
000000000002FA0000000AF800000000000006F8
000000000000EA00000009F900000000000005FC
000000000000BB00000006F700000000000003B5
ENDCHAR
STARTCHAR minus
ENCODING 8722
SWIDTH 358 0
DWIDTH 11 0
BBX 10 3 1 8
BITMAP
0000024563
4ABDFFFFFB
6AA9876543
ENDCHAR
STARTCHAR commaaccent
ENCODING 63171
SWIDTH 450 0
DWIDTH 14 0
BBX 3 8 5 -11
BITMAP
3D60
8FB0
5FC0
3FA0
4F70
4F30
5E00
2200
ENDCHAR
STARTCHAR fi
ENCODING 64257
SWIDTH 409 0
DWIDTH 13 0
BBX 12 30 0 -1
BITMAP
000017610000
00008FFD1000
0000EFDF9000
0004FD09E000
0007F902F100
000AF6004540
000BF4000CC0
000DF3000230
000EF1000000
000EF0000000
000FE0000010
001FD00003F5
001FC00007F6
000FB018EFF6
000FC9EFFFF6
003FFFEB67F6
06FFC20006F6
4FCDC00006F6
020AD00006F6
000AE00006F6
000AF10005F6
0009F20005F6
0008F40004F6
0007F60004F6
0006F70003F6
0005F80003F6
0004F80003F6
0003F80003F6
0001E50002F6
000000000041
ENDCHAR
STARTCHAR fl
ENCODING 64258
SWIDTH 416 0
DWIDTH 13 0
BBX 13 30 0 -1
BITMAP
00001761000000
00008FFD100000
0000EFDF936000
0004FD09E9E000
0007F902F7F100
000AF60044F200
000BF40003F300
000DF30001F500
000EF10000F600
000EF00000E700
000FE00000D800
001FD00000C800
001FC00004D900
000FB018EFFA00
000FC9EFFDBB00
003FFFEB61AC00
06FFC200009C00
4FCDC000009D00
020AD000008D00
000AE000008E00
000AF100008E00
0009F200008E00
0008F400008F00
0007F600009F00
0006F700009F10
0005F80000AF10
0004F80000BF20
0003F80000DF20
0001E50000AF20
00000000000100
ENDCHAR
STARTCHAR .notdef
ENCODING -1
SWIDTH 450 0
DWIDTH 14 0
BBX 1 1 0 0
BITMAP
00
ENDCHAR
STARTCHAR .null
ENCODING -1
SWIDTH 0 0
DWIDTH 0 0
BBX 1 1 0 0
BITMAP
00
ENDCHAR
STARTCHAR nonmarkingreturn
ENCODING -1
SWIDTH 450 0
DWIDTH 14 0
BBX 1 1 0 0
BITMAP
00
ENDCHAR
ENDFONT
